<?xml version="1.0" encoding="utf-8"?>
<!-- Generator: Adobe Illustrator 13.0.0, SVG Export Plug-In . SVG Version: 6.00 Build 14948)  -->
<!DOCTYPE svg PUBLIC "-//W3C//DTD SVG 1.1//EN" "http://www.w3.org/Graphics/SVG/1.1/DTD/svg11.dtd">
<svg version="1.1" id="Layer_1" xmlns="http://www.w3.org/2000/svg" xmlns:xlink="http://www.w3.org/1999/xlink" x="0px" y="0px"
	 width="792px" height="462px" viewBox="0 0 792 462" enable-background="new 0 0 792 462" xml:space="preserve">
<g>
	<g>
		<g>
			<polygon fill="#4EC48F" points="72,0 792,420 720,462 0,42 			"/>
		</g>
		<g>
			<polygon fill="#FFFFFF" points="6,38.5 726,458.5 720,462 0,42 			"/>
		</g>
	</g>
	<g>
		<path fill="#FFFFFF" d="M408.028,250.26c-2.102,1.277-1.785,3.246-0.484,5.168c1.336,1.959,3.822,4.082,7.188,6.051
			c3.374,1.967,7.015,3.414,10.37,4.193c3.295,0.758,6.676,0.943,8.863-0.283c2.104-1.273,1.785-3.246,0.486-5.17
			c-1.335-1.957-3.824-4.08-7.189-6.049c-3.374-1.965-7.014-3.416-10.371-4.195C413.596,249.217,410.215,249.033,408.028,250.26z
			 M430.784,260.793c1.053,1.549,0.822,2.523,0.182,2.846c-0.557,0.373-2.225,0.508-4.881-0.104
			c-2.589-0.594-5.793-1.842-8.754-3.572c-2.964-1.725-5.105-3.596-6.121-5.107c-1.051-1.547-0.822-2.521-0.182-2.846
			c0.557-0.373,2.228-0.508,4.881,0.105c2.587,0.594,5.797,1.842,8.754,3.57C427.63,257.412,429.766,259.283,430.784,260.793z"/>
		<path fill="#FFFFFF" d="M436.781,238.373c-3.293-0.76-6.675-0.941-8.862,0.285c-2.102,1.273-1.783,3.246-0.486,5.168
			c1.338,1.959,3.822,4.08,7.191,6.051c3.373,1.963,7.014,3.414,10.369,4.193c3.296,0.758,6.676,0.941,8.863-0.283
			c2.104-1.275,1.787-3.25,0.484-5.17c-1.332-1.961-3.82-4.082-7.187-6.051C443.779,240.602,440.141,239.15,436.781,238.373z
			 M450.674,249.189c1.055,1.547,0.823,2.523,0.182,2.846c-0.557,0.375-2.226,0.51-4.879-0.104c-2.589-0.596-5.797-1.84-8.756-3.57
			c-2.966-1.727-5.103-3.6-6.121-5.109c-1.051-1.547-0.822-2.521-0.182-2.846c0.559-0.373,2.229-0.508,4.881,0.104
			c2.588,0.596,5.797,1.842,8.756,3.572C447.522,245.809,449.659,247.68,450.674,249.189z"/>
		<path fill="#FFFFFF" d="M379.506,221.4c-1.021,1.596,1.967,4.766,6.673,7.078l0.713-1.113c0.586,0.4,1.246,0.791,1.977,1.15
			c3.121,1.533,6.194,1.92,6.871,0.863c0.678-1.057-1.3-3.152-4.419-4.686c-0.73-0.359-1.458-0.654-2.153-0.883l0.712-1.109
			C385.175,220.389,380.531,219.805,379.506,221.4z"/>
		<polygon fill="#FFFFFF" points="430.196,247.584 415.797,238.402 406.639,241.096 399.37,234.369 411.11,235.168 411.006,232.869 
			391.968,231.572 404.724,243.373 439.077,257.611 441.051,255.787 441.049,255.787 409.897,242.877 415.325,241.279 
			427.446,249.006 		"/>
		<polygon fill="#FFFFFF" points="364.926,215.068 369.784,212.234 357.534,205.09 361.858,202.566 336.624,195.727 
			348.352,210.445 352.677,207.922 		"/>
	</g>
</g>
</svg>
