<?xml version="1.0" encoding="utf-8"?>
<!-- Generator: Adobe Illustrator 13.0.0, SVG Export Plug-In . SVG Version: 6.00 Build 14948)  -->
<!DOCTYPE svg PUBLIC "-//W3C//DTD SVG 1.1//EN" "http://www.w3.org/Graphics/SVG/1.1/DTD/svg11.dtd">
<svg version="1.1" id="Layer_1" xmlns="http://www.w3.org/2000/svg" xmlns:xlink="http://www.w3.org/1999/xlink" x="0px" y="0px"
	 width="56px" height="79.002px" viewBox="0 0 56 79.002" enable-background="new 0 0 56 79.002" xml:space="preserve">
<path opacity="0.2" fill="#4D4D4D" d="M53,56.466V40.002c0-0.201-0.007-0.402-0.019-0.603c-0.183-9.581-1.452-18.196-5.271-25.667
	c-1.96-3.768-4.738-7.292-8.548-9.843C35.379,1.32,30.669-0.029,26,0c-2.398,0.006-5.04,0.235-7.847,1.107
	c-4.202,1.217-8.721,4.418-11.309,8.958c-2.562,4.377-3.616,9.384-3.812,15.146c-0.021,0.263-0.033,0.527-0.033,0.79v16.463
	C1.397,44.35-0.013,47.18,0,50.502v0.999c-0.017,2.836,1.053,5.447,2.375,7.231c2.022,2.719,4.358,4.06,6.604,4.975
	c2.272,0.888,4.594,1.286,7.021,1.295c2.799-0.025,5.457-0.513,8.062-1.751c-0.042,0.408-0.064,0.825-0.062,1.251v1
	c-0.017,2.834,1.053,5.446,2.375,7.231c2.022,2.719,4.358,4.059,6.604,4.974c2.271,0.887,4.594,1.287,7.021,1.295
	c3.237-0.028,6.283-0.677,9.281-2.388c1.491-0.878,3.014-2.062,4.344-3.881c1.321-1.785,2.39-4.397,2.375-7.231v-1
	C56.012,61.181,54.602,58.351,53,56.466z"/>
<path fill="#4D4D4D" d="M48.686,59.172c-0.224-0.218-0.452-0.421-0.686-0.609V40.001c0-0.126-0.005-0.253-0.015-0.379
	c-0.146-9.184-1.431-17.21-4.71-23.577c-1.668-3.206-3.927-6.011-6.896-8.001C33.422,6.045,29.806,4.986,26,5
	c-4.023-0.019-8.805,0.869-12.477,4.531c-3.589,3.615-5.299,8.944-5.499,16C8.008,25.688,8,25.845,8,26.001v18.561
	c-0.233,0.189-0.462,0.392-0.686,0.61c-1.214,1.166-2.322,3.069-2.314,5.33v0.999c-0.008,1.66,0.609,3.196,1.422,4.298
	c1.239,1.673,2.787,2.609,4.389,3.256c1.614,0.632,3.353,0.943,5.188,0.947c2.448-0.015,4.721-0.534,6.763-1.707
	c1.016-0.597,1.997-1.377,2.814-2.496c0.813-1.102,1.431-2.638,1.424-4.298v-0.999c0.006-2.261-1.103-4.164-2.314-5.33
	c-0.224-0.219-0.452-0.421-0.686-0.609V27.002c-0.012-3.154,0.696-5.014,1.208-5.732c0.57-0.712,0.533-0.537,0.776-0.599
	c0.097,0,0.252,0.016,0.479,0.088c1.189,0.398,1.839,0.855,2.462,1.542c0.914,1.009,1.802,2.941,2.341,6.139
	c0.547,3.167,0.737,7.425,0.733,12.561l-0.002,17.561c-0.233,0.188-0.462,0.392-0.686,0.609c-1.212,1.167-2.32,3.07-2.312,5.33v1
	c-0.01,1.659,0.609,3.195,1.423,4.296c1.238,1.674,2.786,2.611,4.389,3.257c1.614,0.632,3.353,0.943,5.188,0.947
	c2.448-0.016,4.721-0.534,6.763-1.707c1.016-0.597,1.996-1.377,2.813-2.497c0.813-1.101,1.431-2.637,1.423-4.296l0.002-1
	C51.006,62.242,49.898,60.339,48.686,59.172z"/>
<path fill="#FFFFFF" d="M46.225,61.66c-0.492-0.483-1.075-0.876-1.726-1.192V40.002c0-0.063-0.004-0.126-0.012-0.189
	c-0.112-8.925-1.412-16.556-4.317-22.152C37.294,12.03,32.446,8.458,26,8.502c-3.597-0.006-7.253,0.759-10.004,3.505
	c-2.721,2.727-4.306,7.103-4.478,13.763c-0.012,0.077-0.019,0.155-0.019,0.232v20.466c-0.649,0.315-1.232,0.709-1.725,1.194
	c-0.732,0.714-1.277,1.708-1.275,2.839v1.001c0.017,1.715,1.16,2.994,2.503,3.77c1.373,0.795,3.104,1.226,4.998,1.229
	c1.894-0.004,3.625-0.435,5-1.229c1.341-0.775,2.484-2.055,2.501-3.77v-1.001c0.002-1.131-0.542-2.125-1.275-2.839
	c-0.493-0.485-1.075-0.879-1.725-1.194V27.002c-0.004-3.631,0.768-6.171,1.812-7.699c1.062-1.527,2.274-2.115,3.673-2.133
	c0.489,0,1.009,0.083,1.554,0.258c3.38,1.129,5.193,3.291,6.432,7.199c1.201,3.894,1.535,9.42,1.529,16.374v19.467
	c-0.649,0.316-1.232,0.709-1.726,1.192c-0.732,0.716-1.277,1.711-1.272,2.841v1.001c0.014,1.715,1.157,2.994,2.5,3.771
	c1.37,0.794,3.104,1.224,4.998,1.229c1.895-0.006,3.626-0.436,4.998-1.229c1.343-0.776,2.486-2.056,2.501-3.771l0.002-1.001
	C47.502,63.371,46.958,62.376,46.225,61.66z"/>
</svg>
