<?xml version="1.0" encoding="utf-8"?>
<!-- Generator: Adobe Illustrator 13.0.0, SVG Export Plug-In . SVG Version: 6.00 Build 14948)  -->
<!DOCTYPE svg PUBLIC "-//W3C//DTD SVG 1.1//EN" "http://www.w3.org/Graphics/SVG/1.1/DTD/svg11.dtd">
<svg version="1.1" id="Layer_1" xmlns="http://www.w3.org/2000/svg" xmlns:xlink="http://www.w3.org/1999/xlink" x="0px" y="0px"
	 width="660px" height="819px" viewBox="0 0 660 819" enable-background="new 0 0 660 819" xml:space="preserve">
<g>
	<polygon fill="#E6E6E6" points="192,273 36,154 300,0 480,105 	"/>
	<polygon fill="#C37D68" points="180,714 480,539 480,105 192,273 192,245 180,252 	"/>
	<polygon fill="#D4A293" points="180,252 0,147 12,140 192,245 	"/>
	<polygon fill="#CC907E" points="180,714 0,609 0,147 180,252 	"/>
</g>
<g>
	<polygon fill="#CCCCCC" points="372,378 216,259 480,105 660,210 	"/>
	<polygon fill="#9E8266" points="360,819 660,644 660,210 372,378 372,350 360,357 	"/>
	<polygon fill="#BAA591" points="360,357 180,252 192,245 372,350 	"/>
	<polygon fill="#AC947C" points="360,819 180,714 180,252 360,357 	"/>
</g>
</svg>
