<?xml version="1.0" encoding="utf-8"?>
<!-- Generator: Adobe Illustrator 13.0.0, SVG Export Plug-In . SVG Version: 6.00 Build 14948)  -->
<!DOCTYPE svg PUBLIC "-//W3C//DTD SVG 1.1//EN" "http://www.w3.org/Graphics/SVG/1.1/DTD/svg11.dtd">
<svg version="1.1" id="Layer_1" xmlns="http://www.w3.org/2000/svg" xmlns:xlink="http://www.w3.org/1999/xlink" x="0px" y="0px"
	 width="49.001px" height="234px" viewBox="0 0 49.001 234" enable-background="new 0 0 49.001 234" xml:space="preserve">
<g opacity="0.2">
	<g>
		<path fill="#4D4D4D" d="M20.32,232.855c-2.008-0.821-4.152-2.028-6.062-4.589l0,0c-1.245-1.681-2.272-4.177-2.256-6.892l0,0
			v-3.749c-0.014-2.557,0.87-4.829,2-6.529l0,0V64.971l-7.731-4.51C2.392,58.199,0,54.041,0,49.545l0,0V12.636
			c0.002-4.523,2.419-8.702,6.348-10.96l0,0C8.291,0.561,10.47,0,12.638,0l0,0c2.192,0,4.402,0.575,6.366,1.722l0,0l2.238,1.305
			c1.786-0.746,3.492-1.004,5.26-1.026l0,0c1.7,0.006,3.35,0.277,5.062,0.943l0,0c1.687,0.694,3.575,1.722,5.336,4.072l0,0
			c1.132,1.527,2.098,3.841,2.102,6.37l0,0l3.726,2.174V15.56c3.887,2.264,6.274,6.422,6.274,10.917l0,0v36.91
			c0,4.525-2.419,8.704-6.343,10.958l0,0c-1.153,0.663-2.392,1.13-3.657,1.401l0,0v135.353c1.128,1.699,2.012,3.972,1.999,6.528l0,0
			v3.749c0.018,2.713-1.011,5.211-2.256,6.889l0,0c-1.255,1.717-2.667,2.807-4.022,3.605l0,0c-2.727,1.554-5.398,2.103-8.22,2.131
			l0,0C24.386,233.992,22.351,233.648,20.32,232.855L20.32,232.855z"/>
	</g>
	<g>
		<path fill="#4D4D4D" d="M15.012,39.15L15.012,39.15L15.012,39.15L15.012,39.15L15.012,39.15L15.012,39.15z"/>
	</g>
	<g>
		<path fill="#4D4D4D" d="M15.057,40.965L15.057,40.965L15.057,40.965L15.057,40.965z"/>
	</g>
</g>
<g>
	<g>
		<path fill="#4D4D4D" d="M22.151,228.204c-1.36-0.552-2.72-1.356-3.845-2.874l0,0c-0.736-0.996-1.312-2.417-1.305-3.955l0,0v-3.749
			c-0.008-1.954,0.9-3.636,1.898-4.676l0,0c0.033-0.035,0.066-0.069,0.1-0.104l0,0V62.099L8.789,56.143
			c-2.344-1.369-3.788-3.88-3.788-6.598l0,0V12.637c0-2.734,1.46-5.26,3.834-6.623l0,0C10.01,5.339,11.328,5,12.639,5.001l0,0
			C13.964,5,15.297,5.348,16.485,6.04l0,0l4.738,2.765c0.329-0.277,0.663-0.503,0.992-0.697l0,0C23.625,7.304,25.021,7.015,26.502,7
			l0,0c1.109,0.004,2.174,0.186,3.229,0.596l0,0c1.044,0.427,2.146,1.052,3.121,2.357l0,0c0.636,0.858,1.157,2.125,1.15,3.505l0,0
			v2.801l6.208,3.623v0c2.349,1.367,3.791,3.88,3.791,6.598l0,0v36.908c0,2.734-1.461,5.26-3.832,6.623l0,0
			c-1.178,0.675-2.499,1.015-3.804,1.013l0,0c-0.796,0.001-1.595-0.124-2.363-0.373l0,0v142.2c0.033,0.033,0.065,0.067,0.099,0.102
			l0,0c1,1.038,1.908,2.72,1.9,4.676l0,0v3.749c0.008,1.538-0.569,2.959-1.305,3.955l0,0c-0.742,1.016-1.613,1.703-2.494,2.22l0,0
			c-1.77,1.015-3.668,1.436-5.7,1.45l0,0C24.977,228.996,23.527,228.742,22.151,228.204L22.151,228.204z"/>
	</g>
</g>
<g>
	<path fill="#FFFFFF" d="M38.447,22.904l-7.946-4.635v-4.812c-0.017-1.154-0.767-1.92-1.478-2.327
		c-0.739-0.425-1.595-0.627-2.522-0.631c-0.927,0.004-1.782,0.206-2.522,0.631c-0.71,0.406-1.459,1.173-1.477,2.327v0.144
		l-7.779-4.537C14.078,8.688,13.357,8.5,12.637,8.5c-0.71,0-1.422,0.184-2.058,0.55c-1.286,0.737-2.077,2.105-2.077,3.587v36.909
		c0,1.47,0.781,2.831,2.052,3.572l11.948,6.97v154.422c-1.082,0.646-1.957,1.653-2,3.114v3.75c0.016,1.475,0.99,2.535,2.062,3.151
		c1.1,0.638,2.458,0.969,3.937,0.975c1.479-0.006,2.838-0.337,3.938-0.975c1.072-0.616,2.048-1.677,2.062-3.151v-3.75
		c-0.042-1.463-0.917-2.469-1.999-3.114V64.754l3.78,2.206c0.642,0.375,1.364,0.562,2.083,0.562c0.711,0,1.423-0.181,2.061-0.55
		c1.285-0.737,2.076-2.104,2.076-3.585V26.479C40.501,25.006,39.72,23.646,38.447,22.904z"/>
</g>
</svg>
