<?xml version="1.0" encoding="utf-8"?>
<!-- Generator: Adobe Illustrator 13.0.0, SVG Export Plug-In . SVG Version: 6.00 Build 14948)  -->
<!DOCTYPE svg PUBLIC "-//W3C//DTD SVG 1.1//EN" "http://www.w3.org/Graphics/SVG/1.1/DTD/svg11.dtd">
<svg version="1.1" id="Layer_1" xmlns="http://www.w3.org/2000/svg" xmlns:xlink="http://www.w3.org/1999/xlink" x="0px" y="0px"
	 width="264px" height="182px" viewBox="0 0 264 182" enable-background="new 0 0 264 182" xml:space="preserve">
<polygon opacity="0.1" fill="#1A1A1A" points="0,84 168,182 264,126 96,28 "/>
<polygon fill="#29ABE2" points="0,74 168,172 264,116 264,98 216,42 156,7 96,0 0,56 "/>
<path fill="#4D4D4D" d="M144,119c7.732,0,14,10.742,14,24s-6.268,24-14,24c-7.734,0-14-10.742-14-24S136.266,119,144,119z"/>
<path fill="#4D4D4D" d="M36,56c7.733,0,14,10.742,14,24s-6.267,24-14,24c-7.734,0-14-10.742-14-24S28.266,56,36,56z"/>
<polygon fill="#67C3EA" points="84,49 144,84 216,42 156,7 "/>
</svg>
