<?xml version="1.0" encoding="utf-8"?>
<!-- Generator: Adobe Illustrator 13.0.0, SVG Export Plug-In . SVG Version: 6.00 Build 14948)  -->
<!DOCTYPE svg PUBLIC "-//W3C//DTD SVG 1.1//EN" "http://www.w3.org/Graphics/SVG/1.1/DTD/svg11.dtd">
<svg version="1.1" id="Layer_1" xmlns="http://www.w3.org/2000/svg" xmlns:xlink="http://www.w3.org/1999/xlink" x="0px" y="0px"
	 width="31px" height="90px" viewBox="0 0 31 90" enable-background="new 0 0 31 90" xml:space="preserve">
<g>
	<g>
		<polygon fill="#A3D165" points="12,17 6,13.5 0,17 0,39.5 6,43 12,39.5 		"/>
		<polygon fill="#8CC63F" points="6,20.5 6,43 12,39.5 12,17 		"/>
	</g>
	<polygon fill="#54BCE8" points="27,50 15,38 3,50 3,83 15,90 27,83 	"/>
	<polygon fill="#29ABE2" points="15,57 15,90 27,83 27,50 	"/>
	<polygon fill="#A3D165" points="27,21 15,14 3,21 3,50 15,57 27,50 	"/>
	<polygon fill="#8CC63F" points="15,28 15,57 27,50 27,21 	"/>
	<g>
		<polygon fill="#A3D165" points="31,28 25,24.5 19,28 19,50.5 25,54 31,50.5 		"/>
		<polygon fill="#8CC63F" points="25,31.5 25,54 31,50.5 31,28 		"/>
	</g>
	<circle fill="#FDD79D" cx="15" cy="12" r="12"/>
</g>
</svg>
