<?xml version="1.0" encoding="utf-8"?>
<!-- Generator: Adobe Illustrator 13.0.0, SVG Export Plug-In . SVG Version: 6.00 Build 14948)  -->
<!DOCTYPE svg PUBLIC "-//W3C//DTD SVG 1.1//EN" "http://www.w3.org/Graphics/SVG/1.1/DTD/svg11.dtd">
<svg version="1.1" id="Layer_1" xmlns="http://www.w3.org/2000/svg" xmlns:xlink="http://www.w3.org/1999/xlink" x="0px" y="0px"
	 width="726px" height="434px" viewBox="0 0 726 434" enable-background="new 0 0 726 434" xml:space="preserve">
<g>
	<g>
		<polygon fill="#FEE7C4" points="726,430.5 720,434 0,14 6,10.5 		"/>
	</g>
	<g>
		<polygon fill="#FEE7C4" points="618.002,353.5 624.002,350 684.002,385 678.002,388.5 		"/>
	</g>
	<g>
		<polygon fill="#FEE7C4" points="498,283.5 504,280 564,315 558,318.5 		"/>
	</g>
	<g>
		<polygon fill="#FEE7C4" points="378.001,213.5 384.001,210 444.001,245 438.001,248.5 		"/>
	</g>
	<g>
		<polygon fill="#FEE7C4" points="258,143.5 264,140 324,175 318,178.5 		"/>
	</g>
	<g>
		<polygon fill="#FEE7C4" points="138.001,73.5 144.001,70 204.001,105 198.001,108.5 		"/>
	</g>
	<g>
		<polygon fill="#FEE7C4" points="18,3.5 24,0 84,35 78,38.5 		"/>
	</g>
</g>
</svg>
