<?xml version="1.0" encoding="utf-8"?>
<!-- Generator: Adobe Illustrator 13.0.0, SVG Export Plug-In . SVG Version: 6.00 Build 14948)  -->
<!DOCTYPE svg PUBLIC "-//W3C//DTD SVG 1.1//EN" "http://www.w3.org/Graphics/SVG/1.1/DTD/svg11.dtd">
<svg version="1.1" id="Layer_1" xmlns="http://www.w3.org/2000/svg" xmlns:xlink="http://www.w3.org/1999/xlink" x="0px" y="0px"
	 width="816.997px" height="487.104px" viewBox="0 0 816.997 487.104" enable-background="new 0 0 816.997 487.104"
	 xml:space="preserve">
<path fill="#999999" d="M96.751,0.068c-0.156-0.091-0.349-0.091-0.504,0L0.25,56.066c0,0,0,0-0.001,0s0,0-0.001,0.001l-0.001,0
	c-0.033,0.019-0.05,0.053-0.077,0.078c-0.036,0.034-0.079,0.062-0.104,0.104C0.024,56.325,0,56.411,0,56.5v10.105
	c0,0.177,0.094,0.341,0.248,0.431l719.998,419.999c0.001,0,0.001,0.002,0.002,0.002c0.077,0.046,0.164,0.067,0.25,0.067
	c0.087,0,0.174-0.022,0.251-0.067l96.001-56.001c0.153-0.089,0.248-0.253,0.248-0.432v-10.105c0-0.179-0.095-0.345-0.248-0.434
	L96.751,0.068z"/>
<g>
	<polygon fill="#CCCCCC" points="815.504,420.497 696.497,351.077 601.49,406.499 720.497,475.919 	"/>
	<polygon fill="#CCCCCC" points="600.497,405.921 695.504,350.498 576.496,281.077 481.489,336.499 	"/>
	<polygon fill="#CCCCCC" points="361.492,266.5 480.497,335.92 575.504,280.497 456.497,211.078 	"/>
	<polygon fill="#CCCCCC" points="241.491,196.5 360.499,265.92 455.506,210.5 336.498,141.078 	"/>
	<polygon fill="#CCCCCC" points="121.492,126.5 240.499,195.92 335.507,140.498 216.499,71.078 	"/>
	<polygon fill="#CCCCCC" points="120.499,125.92 215.506,70.498 96.5,1.078 1.49,56.5 	"/>
</g>
</svg>
