<?xml version="1.0" encoding="utf-8"?>
<!-- Generator: Adobe Illustrator 13.0.0, SVG Export Plug-In . SVG Version: 6.00 Build 14948)  -->
<!DOCTYPE svg PUBLIC "-//W3C//DTD SVG 1.1//EN" "http://www.w3.org/Graphics/SVG/1.1/DTD/svg11.dtd">
<svg version="1.1" id="Layer_1" xmlns="http://www.w3.org/2000/svg" xmlns:xlink="http://www.w3.org/1999/xlink" x="0px" y="0px"
	 width="768.998px" height="487.104px" viewBox="0 0 768.998 487.104" enable-background="new 0 0 768.998 487.104"
	 xml:space="preserve">
<g>
	<path fill="#999999" d="M672.246,487.035c0,0,0,0.002,0.002,0.002c0.076,0.047,0.164,0.066,0.25,0.066s0.174-0.021,0.25-0.066
		l96.002-56c0.152-0.09,0.248-0.254,0.248-0.434V420.5c0-0.18-0.096-0.346-0.248-0.434L48.751,0.067c-0.155-0.09-0.349-0.09-0.504,0
		L0.25,28.066c0,0,0,0-0.001,0s0,0-0.001,0H0.247c-0.033,0.02-0.05,0.055-0.077,0.078c-0.036,0.035-0.079,0.062-0.104,0.105
		C0.023,28.326,0,28.412,0,28.5v10.105c0,0.178,0.094,0.34,0.248,0.432l1.242,0.724l120,70l119.786,69.874l120.219,70.128
		l119.992,69.995l120.006,70.004l71.998,42.089c0,0,34.688,23.254,10.689,37.254L672,476L672.246,487.035z"/>
	<g>
		<polygon fill="#CCCCCC" points="600.496,377.922 647.504,350.498 528.496,281.078 481.488,308.5 		"/>
		<polygon fill="#CCCCCC" points="361.492,238.5 480.496,307.92 527.504,280.498 408.496,211.078 		"/>
		<polygon fill="#CCCCCC" points="241.492,168.5 360.5,237.92 407.506,210.5 288.498,141.078 		"/>
		<polygon fill="#CCCCCC" points="121.492,98.5 240.5,167.92 287.508,140.498 168.5,71.078 		"/>
		<polygon fill="#CCCCCC" points="120.5,97.92 167.506,70.498 48.5,1.078 1.49,28.5 		"/>
		<path fill="#CCCCCC" d="M672.496,475.92l95.008-55.422l-119.008-69.42L601.49,378.5l72,42
			C673.49,420.5,720.992,447.84,672.496,475.92z"/>
	</g>
</g>
</svg>
