<?xml version="1.0" encoding="utf-8"?>
<!-- Generator: Adobe Illustrator 13.0.0, SVG Export Plug-In . SVG Version: 6.00 Build 14948)  -->
<!DOCTYPE svg PUBLIC "-//W3C//DTD SVG 1.1//EN" "http://www.w3.org/Graphics/SVG/1.1/DTD/svg11.dtd">
<svg version="1.1" id="Layer_1" xmlns="http://www.w3.org/2000/svg" xmlns:xlink="http://www.w3.org/1999/xlink" x="0px" y="0px"
	 width="192px" height="112px" viewBox="0 0 192 112" enable-background="new 0 0 192 112" xml:space="preserve">
<g>
	<polygon fill="#999999" points="0,91 36,112 45.773,102.8 12.802,87.748 	"/>
	<path fill="#F0DC32" d="M156,0.035V0c15.66,1.923,28.749,10.101,36,21L36,112c-7.251-10.899-20.34-19.077-36-21L156,0.035z"/>
	<path fill="#B3B3B3" d="M192,21c0,0-47.991-13.994-60-7l-12,7c12-7,60,7,60,7L192,21z"/>
	<path fill="#B3B3B3" d="M168,35c0,0-47.991-13.994-60-7l-12,7c12-7,60,7,60,7L168,35z"/>
	<path fill="#B3B3B3" d="M144,49c0,0-47.991-13.994-60-7l-12,7c12-7,60,7,60,7L144,49z"/>
	<path fill="#B3B3B3" d="M120,63c0,0-47.991-13.994-60-7l-12,7c12-7,60,7,60,7L120,63z"/>
	<path fill="#B3B3B3" d="M96,77c0,0-47.991-13.994-60-7l-12,7c12-7,60,7,60,7L96,77z"/>
	<path fill="#B3B3B3" d="M72,91c0,0-47.991-13.994-60-7L0,91c12-7,60,7,60,7L72,91z"/>
	<path fill="#B3B3B3" d="M36,112l12-7c0,0-12.144-3.541-25.743-6.17C27.895,102.381,32.597,106.885,36,112z"/>
	<path fill="#B3B3B3" d="M156,0.035l-11.396,6.646c6.315-3.048,20.646-1.367,33.65,1.147C171.881,3.814,164.309,1.021,156,0V0.035z"
		/>
</g>
</svg>
