<?xml version="1.0" encoding="utf-8"?>
<!-- Generator: Adobe Illustrator 13.0.0, SVG Export Plug-In . SVG Version: 6.00 Build 14948)  -->
<!DOCTYPE svg PUBLIC "-//W3C//DTD SVG 1.1//EN" "http://www.w3.org/Graphics/SVG/1.1/DTD/svg11.dtd">
<svg version="1.1" id="Layer_1" xmlns="http://www.w3.org/2000/svg" xmlns:xlink="http://www.w3.org/1999/xlink" x="0px" y="0px"
	 width="288px" height="175px" viewBox="0 0 288 175" enable-background="new 0 0 288 175" xml:space="preserve">
<g>
	<polygon fill="#B3B3B3" points="72,140 132,175 147.832,145.501 112.832,125.834 	"/>
	<path fill="#999999" d="M288,84c-68.061,39.515-87.94,51.487-156,91c-9.194-16.282-31.742-29.786-60-35
		c68.06-39.516,87.939-51.486,156-91C256.256,54.214,278.806,67.719,288,84z"/>
	<g>
		<path fill="#CCCCCC" d="M188.779,83.98c-3.043,0.196-4.125,0.312-7.26,0.578c1.195,6.144,2.699,12.771,2.381,19.892
			c-10.664,0.05-22.152,0.539-34.33,1.569c0,0-0.076,2.851-1.193,5.793c0,0,24.642-2.332,42.646-1.745
			C191.193,96.092,188.779,83.98,188.779,83.98z"/>
	</g>
	<g>
		<path fill="#CCCCCC" d="M116.583,125.524c46.833-5.476,86.544-0.024,86.544-0.024s7.623-17.25-1.939-50.442
			c-3.479,0.309-4.991,0.648-8.55,1.038c4.104,14.199,5.173,27.207,4.294,41.841c-22.816-1.524-47.956-1.387-77.899,1.889
			C117.803,123.531,116.583,125.524,116.583,125.524z"/>
	</g>
	<g>
		<path fill="#CCCCCC" d="M168,41.824l-7.093,4.127c-7.894,4.596-20.166,6.046-33.483-1.636l-0.519-0.302
			c-9.252-5.338-10.354-9.946-9.466-13.334c-6.651,0.763-14.322,0.313-23.54-5.006l-0.928-0.534
			C80.087,17.707,79.284,9.717,88.483,4.368L96,0L168,41.824z M129.604,29.376c-3.627,2.112-2.857,5.369,3.407,8.99l0.208,0.121
			c6.253,3.616,11.329,3.751,14.947,1.644l0.134-0.075l-18.562-10.755L129.604,29.376z M99.28,11.887
			c-3.78,2.199-3.062,5.749,2.948,9.227l0.523,0.301c5.996,3.466,12.098,3.869,15.866,1.677l0.202-0.118L99.483,11.769L99.28,11.887
			z"/>
		<path fill="#CCCCCC" d="M90.683,27.827l51.073,29.436l-8.1,4.712L81.279,31.861c-6.554-3.769-10.646-4.401-12.739-3.185
			c-2.093,1.219-0.974,3.58,5.588,7.344l52.436,30.083l-8.101,4.713L67.209,41.482c-15.334-8.777-17.237-15.647-10.47-19.583
			C63.506,17.966,75.403,19.021,90.683,27.827z"/>
		<path fill="#CCCCCC" d="M113.765,73.553l-8.101,4.714L73.475,66.573l20.673,18.396l-8.102,4.716L13.138,48.351l7.92-4.607
			l44.189,25.111L43.636,49.665l0.135-0.078l33.579,12.225L33.24,36.658l7.92-4.605L113.765,73.553z"/>
		<path fill="#CCCCCC" d="M81.208,92.501l-7.301,4.249c-8.906,5.184-22.593,4.614-39.65-4.979l-0.205-0.114
			c-16.503-9.28-18.436-17.159-11.007-22.557l0.066-0.04L0,55.983l8.244-4.788L81.208,92.501z M34.866,75.774
			c-3.131,2.172-1.889,5.881,6.973,10.878l0.203,0.114c9.254,5.217,15.481,6.112,19.036,4.044l0.27-0.155l-26.416-14.92
			L34.866,75.774z"/>
	</g>
</g>
</svg>
