<?xml version="1.0" encoding="utf-8"?>
<!-- Generator: Adobe Illustrator 13.0.0, SVG Export Plug-In . SVG Version: 6.00 Build 14948)  -->
<!DOCTYPE svg PUBLIC "-//W3C//DTD SVG 1.1//EN" "http://www.w3.org/Graphics/SVG/1.1/DTD/svg11.dtd">
<svg version="1.1" id="Layer_1" xmlns="http://www.w3.org/2000/svg" xmlns:xlink="http://www.w3.org/1999/xlink" x="0px" y="0px"
	 width="660px" height="847px" viewBox="0 0 660 847" enable-background="new 0 0 660 847" xml:space="preserve">
<g>
	<polygon fill="#CCCCCC" points="360,847 660,672 660,210 0,175 	"/>
	<polygon fill="#E6E6E6" points="360,847 0,637 0,175 360,385 	"/>
	<polygon fill="#F2F2F2" points="360,385 0,175 300,0 660,210 	"/>
	<polygon fill="#808080" points="360,371 24,175 300,14 636,210 	"/>
	<g>
		<polygon fill="#CCCCCC" points="324,812 324.001,798 144.001,693 132,700 		"/>
		<polygon fill="#B3B3B3" points="132,602 144.001,609 144.001,693 132,700 		"/>
	</g>
	<g>
		<polygon fill="#736357" points="84,686 84.001,672 48.001,651 36,658 		"/>
		<polygon fill="#736357" points="36,560 48.001,567 48.001,651 36,658 		"/>
	</g>
	<polygon fill="#B8AA9E" points="144,609 324.001,714 324.001,798 144,693 	"/>
	<g>
		<polygon fill="#AD9E91" points="151,691 145.791,694.043 157.791,701.043 163,698 		"/>
		<polygon fill="#AD9E91" points="175,705 169.791,708.043 181.791,715.043 187,712 		"/>
		<polyline fill="#AD9E91" points="151,691 163,684 151,677 		"/>
		<polygon fill="#AD9E91" points="175,691 163,698 175,705 187,698 		"/>
		<polygon fill="#AD9E91" points="199,719 193.791,722.043 205.791,729.043 211,726 		"/>
		<polygon fill="#AD9E91" points="199,705 187,712 199,719 211,712 		"/>
		<polygon fill="#AD9E91" points="223,733 217.791,736.043 229.791,743.043 235,740 		"/>
		<polygon fill="#AD9E91" points="223,719 211,726 223,733 235,726 		"/>
		<polygon fill="#AD9E91" points="247,747 241.791,750.043 253.791,757.043 259,754 		"/>
		<polygon fill="#AD9E91" points="247,733 235,740 247,747 259,740 		"/>
		<polygon fill="#AD9E91" points="199,691 187,698 199,705 211,698 		"/>
		<polygon fill="#AD9E91" points="223,691 211,698 223,705 235,698 		"/>
		<polygon fill="#AD9E91" points="223,705 211,712 223,719 235,712 		"/>
		<polygon fill="#AD9E91" points="247,705 235,712 247,719 259,712 		"/>
		<polygon fill="#AD9E91" points="247,719 235,726 247,733 259,726 		"/>
		<polygon fill="#AD9E91" points="247,691 235,698 247,705 259,698 		"/>
		<polygon fill="#AD9E91" points="271,691 259,698 271,705 283,698 		"/>
		<polygon fill="#AD9E91" points="175,677 163,684 175,691 187,684 		"/>
		<polygon fill="#AD9E91" points="199,677 187,684 199,691 211,684 		"/>
		<polygon fill="#AD9E91" points="223,677 211,684 223,691 235,684 		"/>
		<polygon fill="#AD9E91" points="247,677 235,684 247,691 259,684 		"/>
		<polygon fill="#AD9E91" points="265.785,680.041 259,684 271,691 277.785,687.041 		"/>
		<polyline fill="#AD9E91" points="151,677 163,670 151,663 		"/>
		<polygon fill="#AD9E91" points="175,663 163,670 175,677 187,670 		"/>
		<polygon fill="#AD9E91" points="199,663 187,670 199,677 211,670 		"/>
		<polygon fill="#AD9E91" points="223,663 211,670 223,677 235,670 		"/>
		<polygon fill="#AD9E91" points="241.785,666.041 235,670 247,677 253.785,673.041 		"/>
		<polyline fill="#AD9E91" points="151,663 163,656 151,649 		"/>
		<polygon fill="#AD9E91" points="175,649 163,656 175,663 187,656 		"/>
		<polygon fill="#AD9E91" points="199,649 187,656 199,663 211,656 		"/>
		<polygon fill="#AD9E91" points="217.785,652.041 211,656 223,663 229.785,659.041 		"/>
		<polyline fill="#AD9E91" points="151,649 163,642 151,635 		"/>
		<polygon fill="#AD9E91" points="175,635 163,642 175,649 187,642 		"/>
		<polygon fill="#AD9E91" points="193.785,638.041 187,642 199,649 205.785,645.041 		"/>
		<polygon fill="#AD9E91" points="143.998,630.916 151,635 163,628 151,621 144.001,625.083 		"/>
		<polygon fill="#AD9E91" points="143.998,644.916 151,649 163,642 151,635 144.001,639.083 		"/>
		<polygon fill="#AD9E91" points="143.998,658.916 151,663 163,656 151,649 144.001,653.083 		"/>
		<polygon fill="#AD9E91" points="143.998,672.916 151,677 163,670 151,663 144.001,667.083 		"/>
		<polygon fill="#AD9E91" points="143.998,686.916 151,691 163,684 151,677 144.001,681.083 		"/>
		<polygon fill="#AD9E91" points="169.785,624.041 163,628 175,635 181.785,631.041 		"/>
		<polygon fill="#AD9E91" points="143.994,616.913 151,621 157.785,617.041 145.785,610.041 143.994,611.086 		"/>
	</g>
	<g>
		<polygon fill="#B8AA9E" points="48.001,567 84.001,588 84.001,672 48.001,651 		"/>
		<g>
			<polygon fill="#AD9E91" points="55,649 49.791,652.043 61.791,659.043 67,656 			"/>
			<polygon fill="#AD9E91" points="48.003,644.918 55,649 67,642 55,635 48,639.083 			"/>
			<polygon fill="#AD9E91" points="48.003,630.918 55,635 67,628 55,621 48,625.083 			"/>
			<polygon fill="#AD9E91" points="48.003,616.918 55,621 67,614 55,607 48,611.083 			"/>
			<polygon fill="#AD9E91" points="84,651.916 79,649 67,656 79,663 84,660.084 			"/>
			<polygon fill="#AD9E91" points="84,637.916 79,635 67,642 79,649 84,646.084 			"/>
			<polygon fill="#AD9E91" points="84,623.916 79,621 67,628 79,635 84,632.084 			"/>
			<polygon fill="#AD9E91" points="84,609.916 79,607 67,614 79,621 84,618.084 			"/>
			<polygon fill="#AD9E91" points="84,595.916 79,593 67,600 79,607 84,604.084 			"/>
		</g>
	</g>
	<g>
		<polygon fill="#AF8963" points="252,714 252,756 300,784 318.952,764.952 299.355,724.161 		"/>
		<polygon fill="#A67C52" points="300,784 324,770 324,728 300,742 		"/>
		<polygon fill="#B89675" points="288,693 252,714 300,742 324,728 324,714 		"/>
	</g>
	<polygon fill="#8C6239" points="156,462 216,497 216,581 156,546 	"/>
	<polygon fill="#8C6239" points="264,525 324,560 324,644 264,609 	"/>
	<g>
		<path fill="#829382" d="M179.954,475.973C168.64,485.426,162,496.923,162,509.328c0,22.549,21.915,42.104,54,51.817V497
			L179.954,475.973z"/>
		<path fill="#829382" d="M264,567.656c20.507-0.234,39.494-4.068,55.19-10.463L264,525V567.656z"/>
	</g>
	<polygon fill="#754C24" points="194,508 194,524.5 188,528 188,511.5 	"/>
	<polygon fill="#917050" points="182,508 182,524.5 188,528 188,511.5 	"/>
	<polygon fill="#917050" points="213.533,526.574 213.533,543.074 219.533,546.574 219.533,530.074 	"/>
	<polygon fill="#835E3A" points="192,497 180,504 216,525 216,511 	"/>
	<polygon fill="#A58B71" points="180,504 180,507 216,528 216,525 	"/>
	<polygon fill="#DDD1C2" points="156,462 216,497 216,511 156,476 	"/>
	<polygon fill="#D1E8B2" points="48,399 108,434 108,518 48,483 	"/>
	<polygon fill="#DDD1C2" points="264,525 324,560 324,584 264,549 	"/>
	<polygon fill="#C69C6D" points="264.001,599.481 324.001,634.481 324,644 264,609 	"/>
	<polygon fill="#C69C6D" points="176.16,548.241 216,571.48 216,581 168,553 	"/>
	<polygon fill="#7672A2" points="156,308 216,343 216,427 156,392 	"/>
	<polygon fill="#DDD1C2" points="156,308 216,343 216,415 156,380 	"/>
	<polygon fill="#7672A2" points="264,371 324,406 324,490 264,455 	"/>
	<polygon fill="#DDD1C2" points="264,371 324,406 324,485 264,450 	"/>
	<polygon fill="#7672A2" points="48,245 108,280 108,364 48,329 	"/>
	<polygon fill="#DDD1C2" points="48,245 108,280 108,360 48,325 	"/>
	<g>
		<polygon fill="#8C6239" points="108,476 108,518 72,497 		"/>
		<polygon fill="#998675" points="93.999,448.064 108,441.064 108,491.064 94,498.064 		"/>
		<g>
			<polygon fill="#736357" points="94.999,446.064 95,496.064 108,489.564 108,439.564 			"/>
		</g>
		<polygon fill="#AD9E91" points="81.999,431.064 94,438.064 94,498.064 81.999,491.063 		"/>
		<g>
			<polygon fill="#29ABE2" points="93.4,483.344 93.4,465.898 108,471.598 108,489.044 105.4,490.344 			"/>
			<polygon fill="#CCCCCC" points="95.999,464.598 108,471.598 105.4,472.898 93.399,465.897 			"/>
		</g>
		<g>
			<polygon fill="#C1272D" points="90.8,484.644 90.8,469.197 105.4,474.898 105.4,490.344 102.8,491.644 			"/>
			<polygon fill="#CCCCCC" points="93.399,467.898 105.4,474.898 102.8,476.197 90.799,469.197 			"/>
		</g>
		<g>
			<polygon fill="#009245" points="88.2,485.943 88.2,468.498 102.8,474.197 102.8,491.644 100.2,492.943 			"/>
			<polygon fill="#CCCCCC" points="90.799,467.197 102.8,474.197 100.2,475.498 88.199,468.497 			"/>
		</g>
		<g>
			<polygon fill="#8CC63F" points="85.6,487.243 85.6,472.797 100.2,478.498 100.2,492.943 97.6,494.243 			"/>
			<polygon fill="#CCCCCC" points="88.199,471.498 100.2,478.498 97.6,479.797 85.599,472.797 			"/>
		</g>
		<g>
			<polygon fill="#93278F" points="83,488.543 83,473.098 97.6,478.797 97.6,494.243 95,495.543 			"/>
			<polygon fill="#CCCCCC" points="85.599,471.797 97.6,478.797 95,480.098 82.999,473.097 			"/>
		</g>
		<g>
			<polygon fill="#736357" points="94.999,469.064 95,475.064 108,468.564 108,462.564 			"/>
		</g>
		<g>
			<polygon fill="#3E593E" points="93.4,461.344 93.4,443.898 108,449.598 108,467.044 105.4,468.344 			"/>
			<polygon fill="#CCCCCC" points="95.999,442.598 108,449.598 105.4,450.898 93.399,443.897 			"/>
		</g>
		<g>
			<polygon fill="#F58B66" points="90.228,462.31 90.228,447.863 104.828,453.564 104.828,468.01 102.228,469.31 			"/>
			<polygon fill="#CCCCCC" points="92.827,446.564 104.828,453.564 102.228,454.863 90.227,447.863 			"/>
		</g>
		<g>
			<polygon fill="#ED1E79" points="88.668,463.709 88.668,452.264 103.269,457.963 103.269,469.409 100.668,470.709 			"/>
			<polygon fill="#CCCCCC" points="91.268,450.963 103.269,457.963 100.668,459.264 88.668,452.263 			"/>
		</g>
		<g>
			<polygon fill="#662D91" points="86.068,465.009 86.068,449.562 100.668,455.264 100.668,470.709 98.068,472.009 			"/>
			<polygon fill="#CCCCCC" points="88.667,448.264 100.668,455.264 98.068,456.562 86.068,449.562 			"/>
		</g>
		<g>
			<polygon fill="#00A99D" points="83,466.543 83,451.098 97.6,456.797 97.6,472.243 95,473.543 			"/>
			<polygon fill="#CCCCCC" points="85.599,449.797 97.6,456.797 95,458.098 82.999,451.097 			"/>
		</g>
		<g>
			<polygon fill="#998675" points="94.999,474.064 95,476.064 108,469.564 108,467.564 			"/>
		</g>
		<g>
			<polygon fill="#736357" points="94.999,449.064 95,455.064 108,448.564 108,442.564 			"/>
		</g>
		<g>
			<polygon fill="#998675" points="94.999,454.064 95,456.064 108,449.564 108,447.564 			"/>
		</g>
		<g>
			<polygon fill="#0071BC" points="83,446.064 83,430.618 97.6,436.318 97.6,451.764 95,453.064 			"/>
			<polygon fill="#CCCCCC" points="85.599,429.318 97.6,436.318 95,437.618 82.999,430.617 			"/>
		</g>
		<polygon fill="#998675" points="92.196,442.398 95,442.398 95,496.064 92.196,495.064 		"/>
		<polygon fill="#AD9E91" points="82.529,490.291 94,496.852 94,441.283 82.529,441.283 		"/>
	</g>
	<polygon fill="#DDD1C2" points="48,399 108,434 108,458 48,423 	"/>
	<g>
		<g>
			<polygon fill="#CCCCCC" points="216,595 216.001,581 156.001,546 144,553 			"/>
			<polygon fill="#B3B3B3" points="144,455 156.001,462 156.001,546 144,553 			"/>
		</g>
		<g>
			<polygon opacity="0.25" fill="#CCFFFF" points="195.859,485.249 149.859,553.249 155.859,556.749 201.859,488.749 			"/>
			<polygon opacity="0.25" fill="#CCFFFF" points="207.86,492.249 161.86,560.249 163.734,561.343 209.734,493.343 			"/>
		</g>
	</g>
	<g>
		<g>
			<polygon fill="#CCCCCC" points="108,532 108.001,518 48.001,483 36,490 			"/>
			<polygon fill="#B3B3B3" points="36,392 48.001,399 48.001,483 36,490 			"/>
		</g>
		<g>
			<polygon opacity="0.25" fill="#CCFFFF" points="87.859,422.249 41.859,490.249 47.859,493.749 93.859,425.749 			"/>
			<polygon opacity="0.25" fill="#CCFFFF" points="99.86,429.249 53.86,497.249 55.734,498.343 101.734,430.343 			"/>
		</g>
	</g>
	<polygon fill="#CCCCCC" points="300,14 636,210 612,224 300,42 	"/>
	<polygon fill="#B3B3B3" points="24,175 300.001,14 300.001,42 48,189 	"/>
	<g>
		<g>
			<polygon fill="#CCCCCC" points="324,504 324.001,490 264.001,455 252,462 			"/>
			<polygon fill="#B3B3B3" points="252,364 264.001,371 264.001,455 252,462 			"/>
		</g>
		<g>
			<polygon opacity="0.25" fill="#CCFFFF" points="303.859,394.249 257.859,462.249 263.859,465.749 309.859,397.749 			"/>
			<polygon opacity="0.25" fill="#CCFFFF" points="315.86,401.249 269.86,469.249 271.734,470.343 317.734,402.343 			"/>
		</g>
	</g>
	<g>
		<g>
			<polygon fill="#CCCCCC" points="216,441 216.001,427 156.001,392 144,399 			"/>
			<polygon fill="#B3B3B3" points="144,301 156.001,308 156.001,392 144,399 			"/>
		</g>
		<g>
			<polygon opacity="0.25" fill="#CCFFFF" points="195.859,331.249 149.859,399.249 155.859,402.749 201.859,334.749 			"/>
			<polygon opacity="0.25" fill="#CCFFFF" points="207.86,338.249 161.86,406.249 163.734,407.343 209.734,339.343 			"/>
		</g>
	</g>
	<g>
		<g>
			<polygon fill="#CCCCCC" points="108,378 108.001,364 48.001,329 36,336 			"/>
			<polygon fill="#B3B3B3" points="36,238 48.001,245 48.001,329 36,336 			"/>
		</g>
		<g>
			<polygon opacity="0.25" fill="#CCFFFF" points="87.859,268.249 41.859,336.249 47.859,339.749 93.859,271.749 			"/>
			<polygon opacity="0.25" fill="#CCFFFF" points="99.86,275.249 53.86,343.249 55.734,344.343 101.734,276.343 			"/>
		</g>
	</g>
	<polygon fill="#817368" points="324,770 300,784 324.001,798 	"/>
	<polygon fill="#CCCCCC" points="42,654.5 36,658 84,686 84.001,679 	"/>
	<polygon fill="#B3B3B3" points="42,654.5 36,658 36,560 42,563.5 	"/>
	<polygon fill="#B2BDB2" points="48.001,567 48,621.083 84.002,600.082 84.001,588 	"/>
	<polygon fill="#736357" points="84,631.188 84,627.188 46.036,604.943 46.036,609.177 	"/>
	<g>
		<polygon opacity="0.25" fill="#CCFFFF" points="50.744,652.601 84,604.084 84.002,591.85 48.003,644.35 48.001,651 		"/>
		<polygon opacity="0.25" fill="#CCFFFF" points="81.452,586.513 48.001,635.295 48,639.083 83.326,587.605 		"/>
	</g>
	<g>
		<path fill="#999999" d="M364,167v42c0,7.733,10.742,14,24,14s24-6.267,24-14v-42H364z"/>
		<path fill="#666666" d="M412,167c0,7.733-10.742,14-24,14s-24-6.267-24-14c0-7.734,10.742-14,24-14S412,159.266,412,167z"/>
	</g>
	<g>
		<polygon fill="#999999" points="487,77 571,126 475,182 391,133 		"/>
		<polygon fill="#E6E6E6" points="475,294 391,245 391,133 475,182 		"/>
		<polygon fill="#CCCCCC" points="571,238 475,294 475,182 571,126 		"/>
		<polygon fill="#808080" points="391,259 439,287 439,269.5 406,250.25 		"/>
		<polygon fill="#B3B3B3" points="406,250.25 406,169.75 403,168 403,252 403,252 406,250.25 		"/>
		<polygon fill="#9E005D" points="439,189 406,169.75 406,250.25 439,269.5 		"/>
		<circle fill="#A67C52" cx="434.5" cy="230.5" r="2.5"/>
	</g>
	<g>
		<g>
			<polygon fill="#CCCCCC" points="324,658 324.001,644 264.001,609 252,616 			"/>
			<polygon fill="#B3B3B3" points="252,518 264.001,525 264.001,609 252,616 			"/>
		</g>
		<g>
			<polygon opacity="0.25" fill="#CCFFFF" points="303.859,548.249 257.859,616.249 263.859,619.749 309.859,551.749 			"/>
			<polygon opacity="0.25" fill="#CCFFFF" points="315.86,555.249 269.86,623.249 271.734,624.343 317.734,556.343 			"/>
		</g>
	</g>
	<rect x="216" y="493.476" fill="#E6E6E6" width="8.278" height="105.45"/>
	<g>
		<polygon fill="#C69C6D" points="218,646 255.999,624.064 255.999,674.064 218,696.064 		"/>
		<g>
			<polygon fill="#A67C52" points="218.999,647.064 219,694.064 254.999,673.064 254.999,626.064 			"/>
		</g>
		<g>
			<path fill="#66CBC4" d="M244.336,668.727v5.25c0,0.967,1.343,1.75,3,1.75s3-0.783,3-1.75v-5.25H244.336z"/>
			<ellipse fill="#2E3192" cx="247.336" cy="668.727" rx="3" ry="1.75"/>
		</g>
		<g>
			<path fill="#66CBC4" d="M239.798,671.374v5.25c0,0.967,1.343,1.75,3,1.75s3-0.783,3-1.75v-5.25H239.798z"/>
			<ellipse fill="#2E3192" cx="242.798" cy="671.374" rx="3" ry="1.75"/>
		</g>
		<g>
			<path fill="#999999" d="M244.336,662.727v5.25c0,0.967,1.343,1.75,3,1.75s3-0.783,3-1.75v-5.25H244.336z"/>
			<ellipse fill="#2E3192" cx="247.336" cy="662.727" rx="3" ry="1.75"/>
		</g>
		<g>
			<path fill="#66CBC4" d="M239.798,665.374v5.25c0,0.967,1.343,1.75,3,1.75s3-0.783,3-1.75v-5.25H239.798z"/>
			<ellipse fill="#2E3192" cx="242.798" cy="665.374" rx="3" ry="1.75"/>
		</g>
		<g>
			<path fill="#66CBC4" d="M231.302,671.988v5.25c0,0.967,1.343,1.75,3,1.75s3-0.783,3-1.75v-5.25H231.302z"/>
			<ellipse fill="#2E3192" cx="234.302" cy="671.988" rx="3" ry="1.75"/>
		</g>
		<g>
			<path fill="#66CBC4" d="M231.302,665.988v5.25c0,0.967,1.343,1.75,3,1.75s3-0.783,3-1.75v-5.25H231.302z"/>
			<ellipse fill="#2E3192" cx="234.302" cy="665.988" rx="3" ry="1.75"/>
		</g>
		<g>
			<path fill="#66CBC4" d="M235.302,673.988v5.25c0,0.967,1.343,1.75,3,1.75s3-0.783,3-1.75v-5.25H235.302z"/>
			<ellipse fill="#2E3192" cx="238.302" cy="673.988" rx="3" ry="1.75"/>
		</g>
		<g>
			<path fill="#66CBC4" d="M235.302,667.988v5.25c0,0.967,1.343,1.75,3,1.75s3-0.783,3-1.75v-5.25H235.302z"/>
			<ellipse fill="#2E3192" cx="238.302" cy="667.988" rx="3" ry="1.75"/>
		</g>
		<g>
			<path fill="#66AAD7" d="M230.765,676.643v5.25c0,0.967,1.343,1.75,3,1.75s3-0.783,3-1.75v-5.25H230.765z"/>
			<ellipse fill="#93278F" cx="233.765" cy="676.643" rx="3" ry="1.75"/>
		</g>
		<g>
			<path fill="#66AAD7" d="M226.286,679.25v5.25c0,0.967,1.343,1.75,3,1.75s3-0.783,3-1.75v-5.25H226.286z"/>
			<ellipse fill="#93278F" cx="229.286" cy="679.25" rx="3" ry="1.75"/>
		</g>
		<g>
			<path fill="#66AAD7" d="M221.748,681.904v5.25c0,0.967,1.343,1.75,3,1.75s3-0.783,3-1.75v-5.25H221.748z"/>
			<ellipse fill="#93278F" cx="224.748" cy="681.904" rx="3" ry="1.75"/>
		</g>
		<g>
			<path fill="#66AAD7" d="M221.748,675.904v5.25c0,0.967,1.343,1.75,3,1.75s3-0.783,3-1.75v-5.25H221.748z"/>
			<ellipse fill="#93278F" cx="224.748" cy="675.904" rx="3" ry="1.75"/>
		</g>
		<g>
			<path fill="#66AAD7" d="M217.151,684.494v5.25c0,0.967,1.343,1.75,3,1.75s3-0.783,3-1.75v-5.25H217.151z"/>
			<ellipse fill="#93278F" cx="220.151" cy="684.494" rx="3" ry="1.75"/>
		</g>
		<g>
			<path fill="#66AAD7" d="M217.151,678.494v5.25c0,0.967,1.343,1.75,3,1.75s3-0.783,3-1.75v-5.25H217.151z"/>
			<ellipse fill="#93278F" cx="220.151" cy="678.494" rx="3" ry="1.75"/>
		</g>
		<g>
			<polygon fill="#C69C6D" points="218.999,678.064 219,680.064 254.999,659.064 254.999,657.064 			"/>
		</g>
		<g>
			<polygon fill="#A67C52" points="218.999,669.064 219,679.064 254.999,658.064 254.999,648.064 			"/>
		</g>
		<g>
			<g>
				<polygon fill="#A9D46F" points="234,657.5 234,668.5 240,665 240,654 				"/>
			</g>
			<g>
				<polygon fill="#BADD8C" points="227.999,654 234,657.5 240,654 233.999,650.5 				"/>
			</g>
			<g>
				<polygon fill="#8CC63F" points="233.999,657.5 234,668.5 227.999,665 227.999,654 				"/>
			</g>
		</g>
		<g>
			<g>
				<polygon fill="#A9D46F" points="227,661.5 227,672.5 233,669 233,658 				"/>
			</g>
			<g>
				<polygon fill="#BADD8C" points="220.999,658 227,661.5 233,658 226.999,654.5 				"/>
			</g>
			<g>
				<polygon fill="#8CC63F" points="226.999,661.5 227,672.5 220.999,669 220.999,658 				"/>
			</g>
		</g>
		<g>
			<g>
				<polygon fill="#A9D46F" points="220,665.5 220,676.5 226,673 226,662 				"/>
			</g>
			<g>
				<polygon fill="#BADD8C" points="213.999,662 220,665.5 226,662 219.999,658.5 				"/>
			</g>
			<g>
				<polygon fill="#8CC63F" points="219.999,665.5 220,676.5 213.999,673 213.999,662 				"/>
			</g>
		</g>
		<g>
			<polygon fill="#C69C6D" points="218.999,661.064 219,663.064 254.999,642.064 254.999,640.064 			"/>
		</g>
		<g>
			<polygon fill="#A67C52" points="218.999,652.064 219,662.064 254.999,641.064 254.999,631.064 			"/>
		</g>
		<g>
			<g>
				<polygon fill="#4094CD" points="220,648.927 220,659.928 226,656.428 226,645.428 				"/>
			</g>
			<g>
				<polygon fill="#66AAD7" points="213.999,645.428 220,648.928 226,645.428 219.999,641.928 				"/>
			</g>
			<g>
				<polygon fill="#0071BC" points="219.999,648.927 220,659.928 213.999,656.428 213.999,645.428 				"/>
			</g>
		</g>
		<rect x="216.191" y="647.572" fill="#C69C6D" width="2.808" height="45.371"/>
		<polygon fill="#A67C52" points="216.825,631.378 204.824,638.378 204.824,688.378 216.825,681.377 		"/>
		<polygon fill="#D1B08A" points="205.999,639.064 218,646.064 218,696.064 205.999,689.063 		"/>
		<polygon fill="#D1B08A" points="192.823,631.378 204.824,638.378 204.824,688.378 192.824,681.377 		"/>
		<polygon fill="#E6E6E6" points="281.969,689.481 185.824,633.396 254.167,620.334 263.5,625.5 		"/>
	</g>
	<g>
		<polygon opacity="0.25" fill="#CCFFFF" points="264,679 218,747 224,750.5 270,682.5 		"/>
		<polygon opacity="0.25" fill="#CCFFFF" points="276.001,686 230.001,754 231.875,755.094 277.875,687.094 		"/>
		<polygon opacity="0.25" fill="#CCFFFF" points="216.001,651 170.001,719 176.001,722.5 222.001,654.5 		"/>
		<polygon opacity="0.25" fill="#CCFFFF" points="192.001,637 146.001,705 147.875,706.094 193.875,638.094 		"/>
	</g>
	<g>
		<path fill="#CCCCCC" stroke="#CCCCCC" stroke-width="2" stroke-linecap="round" stroke-linejoin="round" d="M160.499,599.713
			c0.24-2.074,0.739-4.074,1.498-6.002c0.759-1.926,1.63-3.535,2.612-4.828c0.982-1.291,2.048-2.206,3.197-2.742
			c1.149-0.537,2.213-0.522,3.193,0.043c0.801,0.463,1.349,1.176,1.643,2.139c0.295,0.965,0.377,2.013,0.247,3.146
			c-0.139,1.21-0.454,2.237-0.943,3.081c-0.488,0.845-0.981,1.123-1.479,0.836c-0.332-0.191-0.567-0.715-0.708-1.57
			c0.361-0.191,0.787-0.696,1.277-1.517c0.489-0.819,0.778-1.604,0.865-2.353c0.119-1.033-0.179-1.756-0.894-2.169
			c-0.964-0.556-2.08-0.19-3.348,1.098c-1.268,1.287-2.398,3.089-3.39,5.406c-0.993,2.315-1.621,4.62-1.886,6.909
			c-0.224,1.941-0.148,3.633,0.227,5.073s0.939,2.378,1.691,2.812c1.017,0.587,2.012,0.104,2.987-1.452
			c0.975-1.556,1.656-3.457,2.042-5.704c-0.623-0.595-1.316-1.113-2.083-1.556c-0.237-0.138-0.675-0.366-1.313-0.688
			c0.397-1.37,1.011-1.816,1.843-1.336c0.448,0.26,1.081,0.885,1.896,1.871c0.815,0.989,1.334,1.595,1.559,1.818
			c-0.924,2.668-1.519,4.459-1.786,5.376s-0.458,1.884-0.576,2.897c-0.038,0.331-0.087,0.844-0.146,1.54
			c-0.059,0.694-0.11,1.229-0.153,1.604c-0.88-0.695-1.223-1.883-1.029-3.559c0.033-0.287,0.065-0.504,0.096-0.65
			c-1.318,1.545-2.65,1.93-3.996,1.152c-1.168-0.674-2.058-1.982-2.67-3.924C160.361,604.522,160.204,602.273,160.499,599.713z"/>
		<path fill="#CCCCCC" stroke="#CCCCCC" stroke-width="2" stroke-linecap="round" stroke-linejoin="round" d="M170.852,609.293
			c0.168-1.456,0.583-2.734,1.247-3.834c0.664-1.102,1.287-1.482,1.87-1.146c0.158,0.092,0.353,0.303,0.583,0.63
			c0.196-0.981,0.507-1.708,0.931-2.179s0.949-0.523,1.577-0.162c0.559,0.324,0.943,0.814,1.15,1.471
			c0.207,0.657,0.265,1.389,0.171,2.195c-0.177,1.529-0.859,3.145-2.048,4.846c0.147,0.227,0.329,0.402,0.546,0.527
			c0.371,0.215,0.791,0.239,1.262,0.074c0.471-0.166,0.868-0.605,1.19-1.318l0.308,0.64c-0.399,0.892-0.866,1.474-1.399,1.751
			c-0.533,0.275-1.053,0.268-1.56-0.025c-0.308-0.178-0.632-0.468-0.973-0.87c-1.342,1.573-2.565,2.04-3.666,1.405
			c-0.556-0.322-0.919-0.849-1.088-1.58C170.783,610.983,170.75,610.176,170.852,609.293z M172.451,610.114
			c-0.117,1.013,0.05,1.647,0.5,1.907c0.467,0.27,1.178-0.145,2.136-1.243c-0.602-1.528-0.798-3.378-0.589-5.547
			c-0.277,0.075-0.66,0.671-1.148,1.786C172.86,608.135,172.561,609.167,172.451,610.114z M175.524,606.426
			c-0.059,0.511-0.073,1.123-0.041,1.839c0.031,0.716,0.114,1.301,0.247,1.756c0.989-1.392,1.567-2.817,1.736-4.281
			c0.113-0.975-0.019-1.571-0.393-1.787c-0.281-0.162-0.585-0.007-0.911,0.468C175.837,604.894,175.625,605.562,175.524,606.426z"/>
		<path fill="#CCCCCC" stroke="#CCCCCC" stroke-width="2" stroke-linecap="round" stroke-linejoin="round" d="M178.503,613.285
			c0.145-1.258,0.542-2.682,1.192-4.272c0.65-1.589,1.14-2.289,1.471-2.098c0.278,0.16,0.555,0.626,0.833,1.399
			c-0.357,0.523-0.758,1.34-1.204,2.446c-0.445,1.107-0.721,2.126-0.829,3.052c-0.153,1.324-0.03,2.101,0.366,2.329
			c0.344,0.198,0.831-0.103,1.46-0.903c0.629-0.803,1.184-1.664,1.665-2.588c0.48-0.922,0.929-1.84,1.345-2.753
			c0.703,0.642,1.024,1.227,0.963,1.756c-0.005,0.044-0.15,0.402-0.435,1.072c-0.285,0.672-0.58,1.46-0.887,2.365
			c-0.307,0.905-0.496,1.667-0.567,2.284c-0.087,0.751,0.042,1.225,0.386,1.424l0.02,0.012c0.437,0.252,1.033,0.072,1.789-0.539
			c0.755-0.61,1.454-1.566,2.099-2.865l0.252,0.569c-0.657,1.528-1.451,2.663-2.384,3.407c-0.934,0.744-1.771,0.902-2.512,0.474
			c-0.251-0.146-0.457-0.353-0.616-0.622c-0.16-0.268-0.273-0.539-0.34-0.812c-0.067-0.274-0.106-0.614-0.115-1.02
			c-0.01-0.406-0.003-0.743,0.021-1.012c0.024-0.269,0.06-0.612,0.108-1.032c-0.377,0.583-0.699,1.039-0.963,1.368
			c-0.264,0.33-0.585,0.604-0.963,0.82s-0.719,0.238-1.024,0.062c-0.437-0.252-0.761-0.805-0.974-1.656
			C178.448,615.102,178.396,614.211,178.503,613.285z"/>
		<path fill="#CCCCCC" stroke="#CCCCCC" stroke-width="2" stroke-linecap="round" stroke-linejoin="round" d="M187.484,616.458
			c0.818-1.458,1.585-3.145,2.301-5.062c-0.099-0.291-0.126-0.625-0.083-1c0.066-0.574,0.227-1.059,0.483-1.451
			c0.256-0.394,0.477-0.537,0.663-0.43c0.15,0.087,0.259,0.291,0.327,0.611c0.067,0.322,0.091,0.57,0.07,0.747
			c-0.01,0.089-0.084,0.275-0.223,0.56c-0.139,0.285-0.211,0.449-0.216,0.494c-0.01,0.206,0.084,0.513,0.282,0.921
			c0.197,0.407,0.415,0.822,0.654,1.242c0.239,0.421,0.44,0.954,0.602,1.602c0.163,0.647,0.208,1.291,0.134,1.931
			c-0.082,0.706-0.369,1.574-0.862,2.608c-0.494,1.032-0.761,1.727-0.802,2.079c-0.059,0.508,0.081,0.857,0.418,1.053
			c0.583,0.337,1.294,0.165,2.136-0.515c0.841-0.68,1.468-1.464,1.882-2.355l0.408,0.87c-0.589,1.309-1.38,2.323-2.374,3.043
			c-0.994,0.721-1.918,0.834-2.771,0.342c-0.484-0.279-0.851-0.726-1.101-1.338c-0.251-0.612-0.333-1.285-0.248-2.019
			c0.074-0.64,0.376-1.547,0.907-2.724c0.531-1.176,0.826-2.017,0.884-2.525c0.097-0.838-0.149-1.732-0.738-2.686
			c-0.736,1.835-1.585,3.546-2.544,5.133L187.484,616.458z"/>
		<path fill="#CCCCCC" stroke="#CCCCCC" stroke-width="2" stroke-linecap="round" stroke-linejoin="round" d="M193.548,624.59
			c1.379-4.838,2.114-7.408,2.203-7.707c0.067-0.219,0.234-0.35,0.501-0.395c0.266-0.045,0.498-0.012,0.697,0.104
			c0.199,0.114,0.35,0.302,0.455,0.562c0.104,0.26,0.138,0.545,0.102,0.857c-0.042,0.361-0.228,1.119-0.559,2.275
			c1.881-2.602,3.372-3.586,4.471-2.951c0.834,0.482,1.141,1.674,0.921,3.577c-0.075,0.649-0.291,1.483-0.648,2.496
			c1.195-1.771,2.29-2.369,3.285-1.794c0.474,0.273,0.792,0.717,0.953,1.328c0.162,0.611,0.201,1.279,0.117,2.002
			c-0.07,0.611-0.283,1.449-0.639,2.514s-0.553,1.76-0.59,2.086c-0.069,0.59,0.058,0.978,0.379,1.164
			c0.834,0.48,1.924-0.707,3.271-3.562l0.258,0.882c-0.574,1.42-1.23,2.548-1.969,3.383c-0.739,0.834-1.495,1.028-2.266,0.582
			c-0.495-0.285-0.849-0.748-1.062-1.386c-0.212-0.639-0.275-1.331-0.189-2.077c0.058-0.503,0.237-1.203,0.539-2.101
			c0.301-0.896,0.473-1.531,0.516-1.902c0.076-0.655-0.039-1.071-0.344-1.246c-0.291-0.168-0.669-0.013-1.134,0.465
			s-1.113,1.328-1.946,2.55c-0.218,0.295-0.493,0.748-0.825,1.36c-0.333,0.613-0.541,0.989-0.627,1.128
			c-0.239-0.139-0.488-0.365-0.749-0.68c-0.26-0.314-0.375-0.605-0.344-0.869c0.018-0.152,0.357-1.074,1.018-2.764
			c0.661-1.688,1.037-2.926,1.128-3.716c0.08-0.692-0.019-1.118-0.297-1.278c-0.543-0.313-1.403,0.255-2.58,1.705
			c-1.177,1.451-2.13,3.13-2.859,5.039c-0.231-0.133-0.491-0.4-0.781-0.801C193.667,625.02,193.531,624.742,193.548,624.59z"/>
		<path fill="#CCCCCC" stroke="#CCCCCC" stroke-width="2" stroke-linecap="round" stroke-linejoin="round" d="M207.266,629.786
			c0.231-2,1.028-3.739,2.392-5.215c1.362-1.477,2.64-1.871,3.831-1.184c0.981,0.566,1.387,1.577,1.219,3.034
			c-0.184,1.588-0.867,2.699-2.051,3.334c-1.183,0.636-2.428,0.693-3.734,0.174c-0.052,0.206-0.095,0.452-0.128,0.738
			c-0.025,0.221-0.039,0.437-0.042,0.646c-0.003,0.209,0.019,0.511,0.066,0.902c0.047,0.393,0.175,0.76,0.384,1.104
			c0.208,0.345,0.486,0.616,0.832,0.815c0.807,0.467,1.694,0.396,2.662-0.211c0.967-0.607,1.802-1.577,2.507-2.912l0.336,0.76
			c-0.758,1.67-1.7,2.823-2.825,3.461c-1.126,0.638-2.219,0.651-3.28,0.039c-0.829-0.479-1.432-1.224-1.806-2.234
			C207.253,632.031,207.132,630.945,207.266,629.786z M209.284,628.832c0.79,0.291,1.678,0.122,2.667-0.508
			c0.988-0.631,1.549-1.529,1.685-2.699c0.048-0.418-0.041-0.693-0.266-0.824c-0.586-0.338-1.299-0.066-2.138,0.813
			C210.391,626.494,209.742,627.567,209.284,628.832z"/>
		<path fill="#CCCCCC" stroke="#CCCCCC" stroke-width="2" stroke-linecap="round" stroke-linejoin="round" d="M214.168,634.393
			c0.199-1.726,0.854-4.037,1.965-6.936c-0.332-0.301-0.553-0.524-0.663-0.674l0.125-1.084c0.311,0.249,0.622,0.488,0.935,0.716
			c0.883-2.149,1.769-3.921,2.657-5.314c0.888-1.394,1.544-1.968,1.968-1.724c0.146,0.084,0.264,0.246,0.356,0.488
			c0.092,0.242,0.122,0.506,0.088,0.793c-0.046,0.396-0.24,0.915-0.582,1.553c-0.342,0.637-0.82,1.474-1.434,2.508
			s-1.113,1.935-1.498,2.701c1.522,0.879,2.743,1.5,3.661,1.865l-0.134,1.159c-1.601-0.688-2.944-1.348-4.029-1.974
			c-1.004,2.336-1.606,4.37-1.806,6.104c-0.105,0.912-0.093,1.605,0.035,2.083c0.128,0.477,0.378,0.823,0.748,1.036
			c0.662,0.383,1.399,0.27,2.21-0.341c0.812-0.61,1.576-1.633,2.292-3.067l0.239,0.493c-0.781,1.75-1.676,3.025-2.687,3.827
			c-1.01,0.801-1.979,0.934-2.906,0.398c-0.608-0.352-1.052-0.921-1.328-1.706C214.107,636.512,214.035,635.543,214.168,634.393z"/>
		<path fill="#CCCCCC" stroke="#CCCCCC" stroke-width="2" stroke-linecap="round" stroke-linejoin="round" d="M226.204,637.647
			c0.239-2.073,0.738-4.074,1.498-6.001s1.629-3.536,2.612-4.828s2.048-2.207,3.198-2.743c1.149-0.537,2.213-0.522,3.193,0.043
			c0.8,0.462,1.348,1.176,1.643,2.14c0.295,0.964,0.377,2.012,0.246,3.145c-0.139,1.211-0.454,2.237-0.942,3.082
			c-0.489,0.844-0.981,1.122-1.479,0.836c-0.332-0.191-0.568-0.715-0.708-1.571c0.361-0.19,0.786-0.695,1.276-1.517
			c0.49-0.82,0.779-1.604,0.865-2.352c0.119-1.033-0.179-1.758-0.893-2.17c-0.964-0.557-2.08-0.19-3.348,1.098
			c-1.268,1.287-2.398,3.09-3.391,5.406s-1.621,4.62-1.885,6.909c-0.224,1.942-0.149,3.633,0.227,5.073s0.94,2.378,1.691,2.812
			c1.017,0.586,2.012,0.102,2.987-1.453s1.656-3.457,2.043-5.704c-0.622-0.595-1.316-1.113-2.083-1.555
			c-0.237-0.138-0.676-0.366-1.313-0.688c0.397-1.371,1.012-1.816,1.843-1.336c0.449,0.259,1.082,0.883,1.896,1.871
			c0.815,0.988,1.334,1.594,1.559,1.817c-0.924,2.667-1.519,4.46-1.786,5.376c-0.266,0.917-0.458,1.883-0.575,2.898
			c-0.039,0.33-0.087,0.844-0.146,1.539c-0.06,0.695-0.111,1.23-0.154,1.605c-0.88-0.697-1.223-1.883-1.029-3.56
			c0.033-0.286,0.065-0.503,0.097-0.65c-1.318,1.546-2.65,1.93-3.996,1.152c-1.169-0.675-2.059-1.983-2.67-3.924
			C226.066,642.457,225.908,640.208,226.204,637.647z"/>
		<path fill="#CCCCCC" stroke="#CCCCCC" stroke-width="2" stroke-linecap="round" stroke-linejoin="round" d="M236.828,644.947
			c0.817-1.459,1.584-3.145,2.3-5.062c-0.099-0.292-0.126-0.625-0.083-1c0.066-0.574,0.227-1.058,0.483-1.451
			c0.257-0.393,0.477-0.537,0.663-0.43c0.15,0.087,0.259,0.291,0.327,0.612s0.091,0.57,0.07,0.747
			c-0.01,0.088-0.085,0.274-0.223,0.559c-0.139,0.285-0.21,0.449-0.216,0.494c-0.009,0.205,0.084,0.513,0.282,0.921
			c0.198,0.408,0.416,0.822,0.655,1.243c0.239,0.42,0.439,0.954,0.603,1.602c0.163,0.646,0.207,1.29,0.133,1.93
			c-0.082,0.707-0.369,1.574-0.862,2.608c-0.494,1.033-0.761,1.726-0.801,2.079c-0.059,0.508,0.08,0.858,0.418,1.053
			c0.583,0.336,1.294,0.165,2.135-0.515c0.841-0.679,1.468-1.464,1.881-2.354l0.408,0.87c-0.589,1.308-1.38,2.323-2.374,3.042
			c-0.994,0.721-1.918,0.834-2.771,0.342c-0.484-0.279-0.851-0.726-1.102-1.338c-0.25-0.612-0.333-1.285-0.248-2.019
			c0.074-0.64,0.376-1.548,0.908-2.724c0.531-1.176,0.826-2.018,0.884-2.525c0.097-0.838-0.149-1.732-0.738-2.686
			c-0.736,1.834-1.584,3.546-2.544,5.133L236.828,644.947z"/>
		<path fill="#CCCCCC" stroke="#CCCCCC" stroke-width="2" stroke-linecap="round" stroke-linejoin="round" d="M243.546,651.264
			c0.168-1.457,0.583-2.734,1.247-3.835c0.664-1.101,1.287-1.482,1.87-1.146c0.158,0.091,0.353,0.302,0.583,0.629
			c0.197-0.98,0.508-1.707,0.932-2.178c0.423-0.471,0.949-0.524,1.577-0.162c0.559,0.323,0.942,0.814,1.15,1.471
			s0.265,1.389,0.172,2.194c-0.177,1.53-0.859,3.145-2.048,4.847c0.147,0.227,0.329,0.402,0.546,0.527
			c0.37,0.215,0.791,0.238,1.262,0.073c0.471-0.165,0.868-0.604,1.19-1.317l0.307,0.639c-0.399,0.892-0.866,1.475-1.398,1.751
			c-0.533,0.276-1.053,0.269-1.56-0.024c-0.309-0.178-0.633-0.469-0.973-0.871c-1.343,1.573-2.565,2.041-3.667,1.405
			c-0.556-0.321-0.918-0.849-1.088-1.581C243.478,652.953,243.444,652.146,243.546,651.264z M245.146,652.084
			c-0.117,1.013,0.049,1.646,0.5,1.907c0.467,0.27,1.178-0.145,2.135-1.243c-0.602-1.527-0.798-3.377-0.589-5.547
			c-0.277,0.074-0.66,0.671-1.148,1.788C245.554,650.105,245.255,651.137,245.146,652.084z M248.219,648.397
			c-0.059,0.509-0.073,1.122-0.041,1.838s0.114,1.3,0.247,1.756c0.989-1.392,1.568-2.817,1.737-4.28
			c0.112-0.976-0.019-1.572-0.394-1.788c-0.281-0.162-0.584-0.007-0.911,0.467C248.531,646.863,248.319,647.532,248.219,648.397z"/>
		<path fill="#CCCCCC" stroke="#CCCCCC" stroke-width="2" stroke-linecap="round" stroke-linejoin="round" d="M251.106,655.131
			c0.249-2.162,0.942-3.88,2.078-5.154c1.135-1.273,2.246-1.598,3.332-0.971c0.51,0.294,0.862,0.733,1.06,1.318
			c0.197,0.584,0.258,1.207,0.182,1.869c-0.077,0.662-0.238,1.223-0.483,1.681c-0.245,0.458-0.499,0.612-0.76,0.462
			c-0.251-0.146-0.433-0.474-0.543-0.984c0.48-0.24,0.787-0.946,0.922-2.115c0.043-0.375-0.061-0.636-0.312-0.781
			c-0.649-0.374-1.429,0.117-2.341,1.473c-0.913,1.357-1.455,2.785-1.628,4.285c-0.191,1.654,0.177,2.749,1.104,3.283l0.02,0.013
			c0.781,0.451,1.642,0.365,2.582-0.257c0.94-0.622,1.722-1.682,2.348-3.181l0.328,0.825c-0.708,1.732-1.635,2.974-2.781,3.725
			c-1.146,0.751-2.229,0.832-3.248,0.243c-0.715-0.413-1.246-1.113-1.59-2.101C251.029,657.775,250.939,656.566,251.106,655.131z"/>
		<path fill="#CCCCCC" stroke="#CCCCCC" stroke-width="2" stroke-linecap="round" stroke-linejoin="round" d="M257.502,658.789
			c0.231-2,1.029-3.738,2.392-5.214s2.64-1.87,3.831-1.183c0.981,0.566,1.387,1.577,1.218,3.033
			c-0.183,1.589-0.867,2.701-2.049,3.335c-1.184,0.635-2.428,0.692-3.734,0.174c-0.052,0.205-0.095,0.451-0.128,0.737
			c-0.025,0.221-0.04,0.436-0.042,0.646c-0.003,0.21,0.019,0.512,0.066,0.903s0.175,0.759,0.384,1.104
			c0.208,0.344,0.486,0.615,0.832,0.815c0.808,0.466,1.695,0.396,2.662-0.212c0.966-0.606,1.802-1.576,2.507-2.912l0.336,0.76
			c-0.757,1.67-1.699,2.823-2.825,3.461c-1.125,0.639-2.219,0.651-3.279,0.039c-0.83-0.479-1.432-1.223-1.807-2.233
			C257.49,661.035,257.369,659.949,257.502,658.789z M259.521,657.837c0.79,0.29,1.679,0.12,2.667-0.509s1.55-1.529,1.685-2.698
			c0.048-0.419-0.041-0.694-0.267-0.825c-0.585-0.338-1.298-0.066-2.137,0.812C260.627,655.499,259.979,656.572,259.521,657.837z"/>
		<path fill="#CCCCCC" stroke="#CCCCCC" stroke-width="2" stroke-linecap="round" stroke-linejoin="round" d="M264.806,661.1
			c0.817-1.457,1.584-3.146,2.3-5.062c-0.099-0.292-0.126-0.625-0.083-1.001c0.066-0.574,0.227-1.057,0.484-1.451
			c0.255-0.393,0.477-0.536,0.662-0.429c0.15,0.087,0.259,0.291,0.327,0.611c0.067,0.321,0.091,0.571,0.07,0.747
			c-0.011,0.089-0.085,0.275-0.224,0.559c-0.139,0.285-0.211,0.449-0.216,0.494c-0.01,0.206,0.084,0.513,0.281,0.921
			c0.197,0.409,0.416,0.823,0.655,1.243s0.439,0.954,0.603,1.602c0.163,0.646,0.208,1.291,0.133,1.931
			c-0.082,0.706-0.369,1.574-0.862,2.607c-0.494,1.034-0.76,1.728-0.801,2.079c-0.059,0.508,0.08,0.858,0.418,1.055
			c0.582,0.336,1.294,0.164,2.135-0.516s1.468-1.465,1.882-2.355l0.408,0.871c-0.589,1.308-1.38,2.322-2.374,3.042
			c-0.994,0.72-1.918,0.835-2.772,0.341c-0.483-0.279-0.851-0.725-1.101-1.338c-0.25-0.611-0.333-1.285-0.249-2.018
			c0.074-0.639,0.376-1.548,0.908-2.725c0.531-1.176,0.826-2.016,0.884-2.524c0.097-0.839-0.149-1.733-0.738-2.686
			c-0.737,1.834-1.584,3.545-2.544,5.133L264.806,661.1z"/>
		<path fill="#CCCCCC" stroke="#CCCCCC" stroke-width="2" stroke-linecap="round" stroke-linejoin="round" d="M270.31,676.461
			c0.061-0.528,0.214-0.99,0.458-1.389c0.245-0.399,0.493-0.713,0.747-0.939c0.253-0.23,0.626-0.43,1.121-0.602
			s0.872-0.276,1.131-0.314l1.179-0.268c0.333-0.816,0.849-2.352,1.545-4.609c-1.294,1.818-2.383,2.473-3.267,1.961
			c-0.442-0.254-0.812-0.703-1.109-1.346c-0.297-0.642-0.391-1.438-0.281-2.387c0.138-1.19,0.538-2.56,1.202-4.106
			c0.664-1.546,1.156-2.228,1.478-2.042c0.131,0.076,0.316,0.307,0.554,0.691c0.237,0.383,0.367,0.723,0.39,1.019
			c-0.318,0.429-0.702,1.23-1.155,2.404c-0.453,1.175-0.723,2.148-0.812,2.92c-0.094,0.816,0.043,1.331,0.413,1.545l0.02,0.011
			c0.739,0.428,1.764-0.404,3.076-2.495c0.018-0.036,0.077-0.267,0.175-0.693c0.098-0.425,0.191-0.776,0.28-1.056
			c0.089-0.278,0.243-0.513,0.462-0.704s0.46-0.21,0.725-0.059c0.053,0.03,0.259,0.196,0.619,0.499
			c-0.078,0.543-0.372,1.656-0.882,3.338c-0.511,1.682-1.066,3.29-1.667,4.826c1.625-0.168,2.902-1.419,3.834-3.753l0.284,0.658
			c-0.82,2.469-2.327,3.868-4.519,4.199c-1.95,4.526-3.58,6.412-4.891,5.655c-0.373-0.215-0.672-0.584-0.896-1.107
			S270.227,677.176,270.31,676.461z M271.084,676.908c-0.071,0.615,0.021,0.996,0.277,1.144c0.279,0.161,0.698-0.095,1.258-0.769
			c0.56-0.672,1.154-1.707,1.783-3.102C272.345,674.658,271.239,675.566,271.084,676.908z"/>
	</g>
	<g>
		<path fill="#CCCCCC" stroke="#CCCCCC" stroke-width="2" stroke-linecap="round" stroke-linejoin="round" d="M161.499,599.713
			c0.24-2.074,0.739-4.074,1.498-6.002c0.759-1.926,1.63-3.535,2.612-4.828c0.982-1.291,2.048-2.206,3.197-2.742
			c1.149-0.537,2.213-0.522,3.193,0.043c0.801,0.463,1.349,1.176,1.643,2.139c0.295,0.965,0.377,2.013,0.247,3.146
			c-0.139,1.21-0.454,2.237-0.943,3.081c-0.488,0.845-0.981,1.123-1.479,0.836c-0.332-0.191-0.567-0.715-0.708-1.57
			c0.361-0.191,0.787-0.696,1.277-1.517c0.489-0.819,0.778-1.604,0.865-2.353c0.119-1.033-0.179-1.756-0.894-2.169
			c-0.964-0.556-2.08-0.19-3.348,1.098c-1.268,1.287-2.398,3.089-3.39,5.406c-0.993,2.315-1.621,4.62-1.886,6.909
			c-0.224,1.941-0.148,3.633,0.227,5.073s0.939,2.378,1.691,2.812c1.017,0.587,2.012,0.104,2.987-1.452
			c0.975-1.556,1.656-3.457,2.042-5.704c-0.623-0.595-1.316-1.113-2.083-1.556c-0.237-0.138-0.675-0.366-1.313-0.688
			c0.397-1.37,1.011-1.816,1.843-1.336c0.448,0.26,1.081,0.885,1.896,1.871c0.815,0.989,1.334,1.595,1.559,1.818
			c-0.924,2.668-1.519,4.459-1.786,5.376s-0.458,1.884-0.576,2.897c-0.038,0.331-0.087,0.844-0.146,1.54
			c-0.059,0.694-0.11,1.229-0.153,1.604c-0.88-0.695-1.223-1.883-1.029-3.559c0.033-0.287,0.065-0.504,0.096-0.65
			c-1.318,1.545-2.65,1.93-3.996,1.152c-1.168-0.674-2.058-1.982-2.67-3.924C161.361,604.522,161.204,602.273,161.499,599.713z"/>
		<path fill="#CCCCCC" stroke="#CCCCCC" stroke-width="2" stroke-linecap="round" stroke-linejoin="round" d="M171.852,609.293
			c0.168-1.456,0.583-2.734,1.247-3.834c0.664-1.102,1.287-1.482,1.87-1.146c0.158,0.092,0.353,0.303,0.583,0.63
			c0.196-0.981,0.507-1.708,0.931-2.179s0.949-0.523,1.577-0.162c0.559,0.324,0.943,0.814,1.15,1.471
			c0.207,0.657,0.265,1.389,0.171,2.195c-0.177,1.529-0.859,3.145-2.048,4.846c0.147,0.227,0.329,0.402,0.546,0.527
			c0.371,0.215,0.791,0.239,1.262,0.074c0.471-0.166,0.868-0.605,1.19-1.318l0.308,0.64c-0.399,0.892-0.866,1.474-1.399,1.751
			c-0.533,0.275-1.053,0.268-1.56-0.025c-0.308-0.178-0.632-0.468-0.973-0.87c-1.342,1.573-2.565,2.04-3.666,1.405
			c-0.556-0.322-0.919-0.849-1.088-1.58C171.783,610.983,171.75,610.176,171.852,609.293z M173.451,610.114
			c-0.117,1.013,0.05,1.647,0.5,1.907c0.467,0.27,1.178-0.145,2.136-1.243c-0.602-1.528-0.798-3.378-0.589-5.547
			c-0.277,0.075-0.66,0.671-1.148,1.786C173.86,608.135,173.561,609.167,173.451,610.114z M176.524,606.426
			c-0.059,0.511-0.073,1.123-0.041,1.839c0.031,0.716,0.114,1.301,0.247,1.756c0.989-1.392,1.567-2.817,1.736-4.281
			c0.113-0.975-0.019-1.571-0.393-1.787c-0.281-0.162-0.585-0.007-0.911,0.468C176.837,604.894,176.625,605.562,176.524,606.426z"/>
		<path fill="#CCCCCC" stroke="#CCCCCC" stroke-width="2" stroke-linecap="round" stroke-linejoin="round" d="M179.503,613.285
			c0.145-1.258,0.542-2.682,1.192-4.272c0.65-1.589,1.14-2.289,1.471-2.098c0.278,0.16,0.555,0.626,0.833,1.399
			c-0.357,0.523-0.758,1.34-1.204,2.446c-0.445,1.107-0.721,2.126-0.829,3.052c-0.153,1.324-0.03,2.101,0.366,2.329
			c0.344,0.198,0.831-0.103,1.46-0.903c0.629-0.803,1.184-1.664,1.665-2.588c0.48-0.922,0.929-1.84,1.345-2.753
			c0.703,0.642,1.024,1.227,0.963,1.756c-0.005,0.044-0.15,0.402-0.435,1.072c-0.285,0.672-0.58,1.46-0.887,2.365
			c-0.307,0.905-0.496,1.667-0.567,2.284c-0.087,0.751,0.042,1.225,0.386,1.424l0.02,0.012c0.437,0.252,1.033,0.072,1.789-0.539
			c0.755-0.61,1.454-1.566,2.099-2.865l0.252,0.569c-0.657,1.528-1.451,2.663-2.384,3.407c-0.934,0.744-1.771,0.902-2.512,0.474
			c-0.251-0.146-0.457-0.353-0.616-0.622c-0.16-0.268-0.273-0.539-0.34-0.812c-0.067-0.274-0.106-0.614-0.115-1.02
			c-0.01-0.406-0.003-0.743,0.021-1.012c0.024-0.269,0.06-0.612,0.108-1.032c-0.377,0.583-0.699,1.039-0.963,1.368
			c-0.264,0.33-0.585,0.604-0.963,0.82s-0.719,0.238-1.024,0.062c-0.437-0.252-0.761-0.805-0.974-1.656
			C179.448,615.102,179.396,614.211,179.503,613.285z"/>
		<path fill="#CCCCCC" stroke="#CCCCCC" stroke-width="2" stroke-linecap="round" stroke-linejoin="round" d="M188.484,616.458
			c0.818-1.458,1.585-3.145,2.301-5.062c-0.099-0.291-0.126-0.625-0.083-1c0.066-0.574,0.227-1.059,0.483-1.451
			c0.256-0.394,0.477-0.537,0.663-0.43c0.15,0.087,0.259,0.291,0.327,0.611c0.067,0.322,0.091,0.57,0.07,0.747
			c-0.01,0.089-0.084,0.275-0.223,0.56c-0.139,0.285-0.211,0.449-0.216,0.494c-0.01,0.206,0.084,0.513,0.282,0.921
			c0.197,0.407,0.415,0.822,0.654,1.242c0.239,0.421,0.44,0.954,0.602,1.602c0.163,0.647,0.208,1.291,0.134,1.931
			c-0.082,0.706-0.369,1.574-0.862,2.608c-0.494,1.032-0.761,1.727-0.802,2.079c-0.059,0.508,0.081,0.857,0.418,1.053
			c0.583,0.337,1.294,0.165,2.136-0.515c0.841-0.68,1.468-1.464,1.882-2.355l0.408,0.87c-0.589,1.309-1.38,2.323-2.374,3.043
			c-0.994,0.721-1.918,0.834-2.771,0.342c-0.484-0.279-0.851-0.726-1.101-1.338c-0.251-0.612-0.333-1.285-0.248-2.019
			c0.074-0.64,0.376-1.547,0.907-2.724c0.531-1.176,0.826-2.017,0.884-2.525c0.097-0.838-0.149-1.732-0.738-2.686
			c-0.736,1.835-1.585,3.546-2.544,5.133L188.484,616.458z"/>
		<path fill="#CCCCCC" stroke="#CCCCCC" stroke-width="2" stroke-linecap="round" stroke-linejoin="round" d="M194.548,624.59
			c1.379-4.838,2.114-7.408,2.203-7.707c0.067-0.219,0.234-0.35,0.501-0.395c0.266-0.045,0.498-0.012,0.697,0.104
			c0.199,0.114,0.35,0.302,0.455,0.562c0.104,0.26,0.138,0.545,0.102,0.857c-0.042,0.361-0.228,1.119-0.559,2.275
			c1.881-2.602,3.372-3.586,4.471-2.951c0.834,0.482,1.141,1.674,0.921,3.577c-0.075,0.649-0.291,1.483-0.648,2.496
			c1.195-1.771,2.29-2.369,3.285-1.794c0.474,0.273,0.792,0.717,0.953,1.328c0.162,0.611,0.201,1.279,0.117,2.002
			c-0.07,0.611-0.283,1.449-0.639,2.514s-0.553,1.76-0.59,2.086c-0.069,0.59,0.058,0.978,0.379,1.164
			c0.834,0.48,1.924-0.707,3.271-3.562l0.258,0.882c-0.574,1.42-1.23,2.548-1.969,3.383c-0.739,0.834-1.495,1.028-2.266,0.582
			c-0.495-0.285-0.849-0.748-1.062-1.386c-0.212-0.639-0.275-1.331-0.189-2.077c0.058-0.503,0.237-1.203,0.539-2.101
			c0.301-0.896,0.473-1.531,0.516-1.902c0.076-0.655-0.039-1.071-0.344-1.246c-0.291-0.168-0.669-0.013-1.134,0.465
			s-1.113,1.328-1.946,2.55c-0.218,0.295-0.493,0.748-0.825,1.36c-0.333,0.613-0.541,0.989-0.627,1.128
			c-0.239-0.139-0.488-0.365-0.749-0.68c-0.26-0.314-0.375-0.605-0.344-0.869c0.018-0.152,0.357-1.074,1.018-2.764
			c0.661-1.688,1.037-2.926,1.128-3.716c0.08-0.692-0.019-1.118-0.297-1.278c-0.543-0.313-1.403,0.255-2.58,1.705
			c-1.177,1.451-2.13,3.13-2.859,5.039c-0.231-0.133-0.491-0.4-0.781-0.801C194.667,625.02,194.531,624.742,194.548,624.59z"/>
		<path fill="#CCCCCC" stroke="#CCCCCC" stroke-width="2" stroke-linecap="round" stroke-linejoin="round" d="M208.266,629.786
			c0.231-2,1.028-3.739,2.392-5.215c1.362-1.477,2.64-1.871,3.831-1.184c0.981,0.566,1.387,1.577,1.219,3.034
			c-0.184,1.588-0.867,2.699-2.051,3.334c-1.183,0.636-2.428,0.693-3.734,0.174c-0.052,0.206-0.095,0.452-0.128,0.738
			c-0.025,0.221-0.039,0.437-0.042,0.646c-0.003,0.209,0.019,0.511,0.066,0.902c0.047,0.393,0.175,0.76,0.384,1.104
			c0.208,0.345,0.486,0.616,0.832,0.815c0.807,0.467,1.694,0.396,2.662-0.211c0.967-0.607,1.802-1.577,2.507-2.912l0.336,0.76
			c-0.758,1.67-1.7,2.823-2.825,3.461c-1.126,0.638-2.219,0.651-3.28,0.039c-0.829-0.479-1.432-1.224-1.806-2.234
			C208.253,632.031,208.132,630.945,208.266,629.786z M210.284,628.832c0.79,0.291,1.678,0.122,2.667-0.508
			c0.988-0.631,1.549-1.529,1.685-2.699c0.048-0.418-0.041-0.693-0.266-0.824c-0.586-0.338-1.299-0.066-2.138,0.813
			C211.391,626.494,210.742,627.567,210.284,628.832z"/>
		<path fill="#CCCCCC" stroke="#CCCCCC" stroke-width="2" stroke-linecap="round" stroke-linejoin="round" d="M215.168,634.393
			c0.199-1.726,0.854-4.037,1.965-6.936c-0.332-0.301-0.553-0.524-0.663-0.674l0.125-1.084c0.311,0.249,0.622,0.488,0.935,0.716
			c0.883-2.149,1.769-3.921,2.657-5.314c0.888-1.394,1.544-1.968,1.968-1.724c0.146,0.084,0.264,0.246,0.356,0.488
			c0.092,0.242,0.122,0.506,0.088,0.793c-0.046,0.396-0.24,0.915-0.582,1.553c-0.342,0.637-0.82,1.474-1.434,2.508
			s-1.113,1.935-1.498,2.701c1.522,0.879,2.743,1.5,3.661,1.865l-0.134,1.159c-1.601-0.688-2.944-1.348-4.029-1.974
			c-1.004,2.336-1.606,4.37-1.806,6.104c-0.105,0.912-0.093,1.605,0.035,2.083c0.128,0.477,0.378,0.823,0.748,1.036
			c0.662,0.383,1.399,0.27,2.21-0.341c0.812-0.61,1.576-1.633,2.292-3.067l0.239,0.493c-0.781,1.75-1.676,3.025-2.687,3.827
			c-1.01,0.801-1.979,0.934-2.906,0.398c-0.608-0.352-1.052-0.921-1.328-1.706C215.107,636.512,215.035,635.543,215.168,634.393z"/>
		<path fill="#CCCCCC" stroke="#CCCCCC" stroke-width="2" stroke-linecap="round" stroke-linejoin="round" d="M227.204,637.647
			c0.239-2.073,0.738-4.074,1.498-6.001s1.629-3.536,2.612-4.828s2.048-2.207,3.198-2.743c1.149-0.537,2.213-0.522,3.193,0.043
			c0.8,0.462,1.348,1.176,1.643,2.14c0.295,0.964,0.377,2.012,0.246,3.145c-0.139,1.211-0.454,2.237-0.942,3.082
			c-0.489,0.844-0.981,1.122-1.479,0.836c-0.332-0.191-0.568-0.715-0.708-1.571c0.361-0.19,0.786-0.695,1.276-1.517
			c0.49-0.82,0.779-1.604,0.865-2.352c0.119-1.033-0.179-1.758-0.893-2.17c-0.964-0.557-2.08-0.19-3.348,1.098
			c-1.268,1.287-2.398,3.09-3.391,5.406s-1.621,4.62-1.885,6.909c-0.224,1.942-0.149,3.633,0.227,5.073s0.94,2.378,1.691,2.812
			c1.017,0.586,2.012,0.102,2.987-1.453s1.656-3.457,2.043-5.704c-0.622-0.595-1.316-1.113-2.083-1.555
			c-0.237-0.138-0.676-0.366-1.313-0.688c0.397-1.371,1.012-1.816,1.843-1.336c0.449,0.259,1.082,0.883,1.896,1.871
			c0.815,0.988,1.334,1.594,1.559,1.817c-0.924,2.667-1.519,4.46-1.786,5.376c-0.266,0.917-0.458,1.883-0.575,2.898
			c-0.039,0.33-0.087,0.844-0.146,1.539c-0.06,0.695-0.111,1.23-0.154,1.605c-0.88-0.697-1.223-1.883-1.029-3.56
			c0.033-0.286,0.065-0.503,0.097-0.65c-1.318,1.546-2.65,1.93-3.996,1.152c-1.169-0.675-2.059-1.983-2.67-3.924
			C227.066,642.457,226.908,640.208,227.204,637.647z"/>
		<path fill="#CCCCCC" stroke="#CCCCCC" stroke-width="2" stroke-linecap="round" stroke-linejoin="round" d="M237.828,644.947
			c0.817-1.459,1.584-3.145,2.3-5.062c-0.099-0.292-0.126-0.625-0.083-1c0.066-0.574,0.227-1.058,0.483-1.451
			c0.257-0.393,0.477-0.537,0.663-0.43c0.15,0.087,0.259,0.291,0.327,0.612s0.091,0.57,0.07,0.747
			c-0.01,0.088-0.085,0.274-0.223,0.559c-0.139,0.285-0.21,0.449-0.216,0.494c-0.009,0.205,0.084,0.513,0.282,0.921
			c0.198,0.408,0.416,0.822,0.655,1.243c0.239,0.42,0.439,0.954,0.603,1.602c0.163,0.646,0.207,1.29,0.133,1.93
			c-0.082,0.707-0.369,1.574-0.862,2.608c-0.494,1.033-0.761,1.726-0.801,2.079c-0.059,0.508,0.08,0.858,0.418,1.053
			c0.583,0.336,1.294,0.165,2.135-0.515c0.841-0.679,1.468-1.464,1.881-2.354l0.408,0.87c-0.589,1.308-1.38,2.323-2.374,3.042
			c-0.994,0.721-1.918,0.834-2.771,0.342c-0.484-0.279-0.851-0.726-1.102-1.338c-0.25-0.612-0.333-1.285-0.248-2.019
			c0.074-0.64,0.376-1.548,0.908-2.724c0.531-1.176,0.826-2.018,0.884-2.525c0.097-0.838-0.149-1.732-0.738-2.686
			c-0.736,1.834-1.584,3.546-2.544,5.133L237.828,644.947z"/>
		<path fill="#CCCCCC" stroke="#CCCCCC" stroke-width="2" stroke-linecap="round" stroke-linejoin="round" d="M244.546,651.264
			c0.168-1.457,0.583-2.734,1.247-3.835c0.664-1.101,1.287-1.482,1.87-1.146c0.158,0.091,0.353,0.302,0.583,0.629
			c0.197-0.98,0.508-1.707,0.932-2.178c0.423-0.471,0.949-0.524,1.577-0.162c0.559,0.323,0.942,0.814,1.15,1.471
			s0.265,1.389,0.172,2.194c-0.177,1.53-0.859,3.145-2.048,4.847c0.147,0.227,0.329,0.402,0.546,0.527
			c0.37,0.215,0.791,0.238,1.262,0.073c0.471-0.165,0.868-0.604,1.19-1.317l0.307,0.639c-0.399,0.892-0.866,1.475-1.398,1.751
			c-0.533,0.276-1.053,0.269-1.56-0.024c-0.309-0.178-0.633-0.469-0.973-0.871c-1.343,1.573-2.565,2.041-3.667,1.405
			c-0.556-0.321-0.918-0.849-1.088-1.581C244.478,652.953,244.444,652.146,244.546,651.264z M246.146,652.084
			c-0.117,1.013,0.049,1.646,0.5,1.907c0.467,0.27,1.178-0.145,2.135-1.243c-0.602-1.527-0.798-3.377-0.589-5.547
			c-0.277,0.074-0.66,0.671-1.148,1.788C246.554,650.105,246.255,651.137,246.146,652.084z M249.219,648.397
			c-0.059,0.509-0.073,1.122-0.041,1.838s0.114,1.3,0.247,1.756c0.989-1.392,1.568-2.817,1.737-4.28
			c0.112-0.976-0.019-1.572-0.394-1.788c-0.281-0.162-0.584-0.007-0.911,0.467C249.531,646.863,249.319,647.532,249.219,648.397z"/>
		<path fill="#CCCCCC" stroke="#CCCCCC" stroke-width="2" stroke-linecap="round" stroke-linejoin="round" d="M252.106,655.131
			c0.249-2.162,0.942-3.88,2.078-5.154c1.135-1.273,2.246-1.598,3.332-0.971c0.51,0.294,0.862,0.733,1.06,1.318
			c0.197,0.584,0.258,1.207,0.182,1.869c-0.077,0.662-0.238,1.223-0.483,1.681c-0.245,0.458-0.499,0.612-0.76,0.462
			c-0.251-0.146-0.433-0.474-0.543-0.984c0.48-0.24,0.787-0.946,0.922-2.115c0.043-0.375-0.061-0.636-0.312-0.781
			c-0.649-0.374-1.429,0.117-2.341,1.473c-0.913,1.357-1.455,2.785-1.628,4.285c-0.191,1.654,0.177,2.749,1.104,3.283l0.02,0.013
			c0.781,0.451,1.642,0.365,2.582-0.257c0.94-0.622,1.722-1.682,2.348-3.181l0.328,0.825c-0.708,1.732-1.635,2.974-2.781,3.725
			c-1.146,0.751-2.229,0.832-3.248,0.243c-0.715-0.413-1.246-1.113-1.59-2.101C252.029,657.775,251.939,656.566,252.106,655.131z"/>
		<path fill="#CCCCCC" stroke="#CCCCCC" stroke-width="2" stroke-linecap="round" stroke-linejoin="round" d="M258.502,658.789
			c0.231-2,1.029-3.738,2.392-5.214s2.64-1.87,3.831-1.183c0.981,0.566,1.387,1.577,1.218,3.033
			c-0.183,1.589-0.867,2.701-2.049,3.335c-1.184,0.635-2.428,0.692-3.734,0.174c-0.052,0.205-0.095,0.451-0.128,0.737
			c-0.025,0.221-0.04,0.436-0.042,0.646c-0.003,0.21,0.019,0.512,0.066,0.903s0.175,0.759,0.384,1.104
			c0.208,0.344,0.486,0.615,0.832,0.815c0.808,0.466,1.695,0.396,2.662-0.212c0.966-0.606,1.802-1.576,2.507-2.912l0.336,0.76
			c-0.757,1.67-1.699,2.823-2.825,3.461c-1.125,0.639-2.219,0.651-3.279,0.039c-0.83-0.479-1.432-1.223-1.807-2.233
			C258.49,661.035,258.369,659.949,258.502,658.789z M260.521,657.837c0.79,0.29,1.679,0.12,2.667-0.509s1.55-1.529,1.685-2.698
			c0.048-0.419-0.041-0.694-0.267-0.825c-0.585-0.338-1.298-0.066-2.137,0.812C261.627,655.499,260.979,656.572,260.521,657.837z"/>
		<path fill="#CCCCCC" stroke="#CCCCCC" stroke-width="2" stroke-linecap="round" stroke-linejoin="round" d="M265.806,661.1
			c0.817-1.457,1.584-3.146,2.3-5.062c-0.099-0.292-0.126-0.625-0.083-1.001c0.066-0.574,0.227-1.057,0.484-1.451
			c0.255-0.393,0.477-0.536,0.662-0.429c0.15,0.087,0.259,0.291,0.327,0.611c0.067,0.321,0.091,0.571,0.07,0.747
			c-0.011,0.089-0.085,0.275-0.224,0.559c-0.139,0.285-0.211,0.449-0.216,0.494c-0.01,0.206,0.084,0.513,0.281,0.921
			c0.197,0.409,0.416,0.823,0.655,1.243s0.439,0.954,0.603,1.602c0.163,0.646,0.208,1.291,0.133,1.931
			c-0.082,0.706-0.369,1.574-0.862,2.607c-0.494,1.034-0.76,1.728-0.801,2.079c-0.059,0.508,0.08,0.858,0.418,1.055
			c0.582,0.336,1.294,0.164,2.135-0.516s1.468-1.465,1.882-2.355l0.408,0.871c-0.589,1.308-1.38,2.322-2.374,3.042
			c-0.994,0.72-1.918,0.835-2.772,0.341c-0.483-0.279-0.851-0.725-1.101-1.338c-0.25-0.611-0.333-1.285-0.249-2.018
			c0.074-0.639,0.376-1.548,0.908-2.725c0.531-1.176,0.826-2.016,0.884-2.524c0.097-0.839-0.149-1.733-0.738-2.686
			c-0.737,1.834-1.584,3.545-2.544,5.133L265.806,661.1z"/>
		<path fill="#CCCCCC" stroke="#CCCCCC" stroke-width="2" stroke-linecap="round" stroke-linejoin="round" d="M271.31,676.461
			c0.061-0.528,0.214-0.99,0.458-1.389c0.245-0.399,0.493-0.713,0.747-0.939c0.253-0.23,0.626-0.43,1.121-0.602
			s0.872-0.276,1.131-0.314l1.179-0.268c0.333-0.816,0.849-2.352,1.545-4.609c-1.294,1.818-2.383,2.473-3.267,1.961
			c-0.442-0.254-0.812-0.703-1.109-1.346c-0.297-0.642-0.391-1.438-0.281-2.387c0.138-1.19,0.538-2.56,1.202-4.106
			c0.664-1.546,1.156-2.228,1.478-2.042c0.131,0.076,0.316,0.307,0.554,0.691c0.237,0.383,0.367,0.723,0.39,1.019
			c-0.318,0.429-0.702,1.23-1.155,2.404c-0.453,1.175-0.723,2.148-0.812,2.92c-0.094,0.816,0.043,1.331,0.413,1.545l0.02,0.011
			c0.739,0.428,1.764-0.404,3.076-2.495c0.018-0.036,0.077-0.267,0.175-0.693c0.098-0.425,0.191-0.776,0.28-1.056
			c0.089-0.278,0.243-0.513,0.462-0.704s0.46-0.21,0.725-0.059c0.053,0.03,0.259,0.196,0.619,0.499
			c-0.078,0.543-0.372,1.656-0.882,3.338c-0.511,1.682-1.066,3.29-1.667,4.826c1.625-0.168,2.902-1.419,3.834-3.753l0.284,0.658
			c-0.82,2.469-2.327,3.868-4.519,4.199c-1.95,4.526-3.58,6.412-4.891,5.655c-0.373-0.215-0.672-0.584-0.896-1.107
			S271.227,677.176,271.31,676.461z M272.084,676.908c-0.071,0.615,0.021,0.996,0.277,1.144c0.279,0.161,0.698-0.095,1.258-0.769
			c0.56-0.672,1.154-1.707,1.783-3.102C273.345,674.658,272.239,675.566,272.084,676.908z"/>
	</g>
	<g>
		<path fill="#CCCCCC" stroke="#CCCCCC" stroke-width="2" stroke-linecap="round" stroke-linejoin="round" d="M162.499,599.713
			c0.24-2.074,0.739-4.074,1.498-6.002c0.759-1.926,1.63-3.535,2.612-4.828c0.982-1.291,2.048-2.206,3.197-2.742
			c1.149-0.537,2.213-0.522,3.193,0.043c0.801,0.463,1.349,1.176,1.643,2.139c0.295,0.965,0.377,2.013,0.247,3.146
			c-0.139,1.21-0.454,2.237-0.943,3.081c-0.488,0.845-0.981,1.123-1.479,0.836c-0.332-0.191-0.567-0.715-0.708-1.57
			c0.361-0.191,0.787-0.696,1.277-1.517c0.489-0.819,0.778-1.604,0.865-2.353c0.119-1.033-0.179-1.756-0.894-2.169
			c-0.964-0.556-2.08-0.19-3.348,1.098c-1.268,1.287-2.398,3.089-3.39,5.406c-0.993,2.315-1.621,4.62-1.886,6.909
			c-0.224,1.941-0.148,3.633,0.227,5.073s0.939,2.378,1.691,2.812c1.017,0.587,2.012,0.104,2.987-1.452
			c0.975-1.556,1.656-3.457,2.042-5.704c-0.623-0.595-1.316-1.113-2.083-1.556c-0.237-0.138-0.675-0.366-1.313-0.688
			c0.397-1.37,1.011-1.816,1.843-1.336c0.448,0.26,1.081,0.885,1.896,1.871c0.815,0.989,1.334,1.595,1.559,1.818
			c-0.924,2.668-1.519,4.459-1.786,5.376s-0.458,1.884-0.576,2.897c-0.038,0.331-0.087,0.844-0.146,1.54
			c-0.059,0.694-0.11,1.229-0.153,1.604c-0.88-0.695-1.223-1.883-1.029-3.559c0.033-0.287,0.065-0.504,0.096-0.65
			c-1.318,1.545-2.65,1.93-3.996,1.152c-1.168-0.674-2.058-1.982-2.67-3.924C162.361,604.522,162.204,602.273,162.499,599.713z"/>
		<path fill="#CCCCCC" stroke="#CCCCCC" stroke-width="2" stroke-linecap="round" stroke-linejoin="round" d="M172.852,609.293
			c0.168-1.456,0.583-2.734,1.247-3.834c0.664-1.102,1.287-1.482,1.87-1.146c0.158,0.092,0.353,0.303,0.583,0.63
			c0.196-0.981,0.507-1.708,0.931-2.179s0.949-0.523,1.577-0.162c0.559,0.324,0.943,0.814,1.15,1.471
			c0.207,0.657,0.265,1.389,0.171,2.195c-0.177,1.529-0.859,3.145-2.048,4.846c0.147,0.227,0.329,0.402,0.546,0.527
			c0.371,0.215,0.791,0.239,1.262,0.074c0.471-0.166,0.868-0.605,1.19-1.318l0.308,0.64c-0.399,0.892-0.866,1.474-1.399,1.751
			c-0.533,0.275-1.053,0.268-1.56-0.025c-0.308-0.178-0.632-0.468-0.973-0.87c-1.342,1.573-2.565,2.04-3.666,1.405
			c-0.556-0.322-0.919-0.849-1.088-1.58C172.783,610.983,172.75,610.176,172.852,609.293z M174.451,610.114
			c-0.117,1.013,0.05,1.647,0.5,1.907c0.467,0.27,1.178-0.145,2.136-1.243c-0.602-1.528-0.798-3.378-0.589-5.547
			c-0.277,0.075-0.66,0.671-1.148,1.786C174.86,608.135,174.561,609.167,174.451,610.114z M177.524,606.426
			c-0.059,0.511-0.073,1.123-0.041,1.839c0.031,0.716,0.114,1.301,0.247,1.756c0.989-1.392,1.567-2.817,1.736-4.281
			c0.113-0.975-0.019-1.571-0.393-1.787c-0.281-0.162-0.585-0.007-0.911,0.468C177.837,604.894,177.625,605.562,177.524,606.426z"/>
		<path fill="#CCCCCC" stroke="#CCCCCC" stroke-width="2" stroke-linecap="round" stroke-linejoin="round" d="M180.503,613.285
			c0.145-1.258,0.542-2.682,1.192-4.272c0.65-1.589,1.14-2.289,1.471-2.098c0.278,0.16,0.555,0.626,0.833,1.399
			c-0.357,0.523-0.758,1.34-1.204,2.446c-0.445,1.107-0.721,2.126-0.829,3.052c-0.153,1.324-0.03,2.101,0.366,2.329
			c0.344,0.198,0.831-0.103,1.46-0.903c0.629-0.803,1.184-1.664,1.665-2.588c0.48-0.922,0.929-1.84,1.345-2.753
			c0.703,0.642,1.024,1.227,0.963,1.756c-0.005,0.044-0.15,0.402-0.435,1.072c-0.285,0.672-0.58,1.46-0.887,2.365
			c-0.307,0.905-0.496,1.667-0.567,2.284c-0.087,0.751,0.042,1.225,0.386,1.424l0.02,0.012c0.437,0.252,1.033,0.072,1.789-0.539
			c0.755-0.61,1.454-1.566,2.099-2.865l0.252,0.569c-0.657,1.528-1.451,2.663-2.384,3.407c-0.934,0.744-1.771,0.902-2.512,0.474
			c-0.251-0.146-0.457-0.353-0.616-0.622c-0.16-0.268-0.273-0.539-0.34-0.812c-0.067-0.274-0.106-0.614-0.115-1.02
			c-0.01-0.406-0.003-0.743,0.021-1.012c0.024-0.269,0.06-0.612,0.108-1.032c-0.377,0.583-0.699,1.039-0.963,1.368
			c-0.264,0.33-0.585,0.604-0.963,0.82s-0.719,0.238-1.024,0.062c-0.437-0.252-0.761-0.805-0.974-1.656
			C180.448,615.102,180.396,614.211,180.503,613.285z"/>
		<path fill="#CCCCCC" stroke="#CCCCCC" stroke-width="2" stroke-linecap="round" stroke-linejoin="round" d="M189.484,616.458
			c0.818-1.458,1.585-3.145,2.301-5.062c-0.099-0.291-0.126-0.625-0.083-1c0.066-0.574,0.227-1.059,0.483-1.451
			c0.256-0.394,0.477-0.537,0.663-0.43c0.15,0.087,0.259,0.291,0.327,0.611c0.067,0.322,0.091,0.57,0.07,0.747
			c-0.01,0.089-0.084,0.275-0.223,0.56c-0.139,0.285-0.211,0.449-0.216,0.494c-0.01,0.206,0.084,0.513,0.282,0.921
			c0.197,0.407,0.415,0.822,0.654,1.242c0.239,0.421,0.44,0.954,0.602,1.602c0.163,0.647,0.208,1.291,0.134,1.931
			c-0.082,0.706-0.369,1.574-0.862,2.608c-0.494,1.032-0.761,1.727-0.802,2.079c-0.059,0.508,0.081,0.857,0.418,1.053
			c0.583,0.337,1.294,0.165,2.136-0.515c0.841-0.68,1.468-1.464,1.882-2.355l0.408,0.87c-0.589,1.309-1.38,2.323-2.374,3.043
			c-0.994,0.721-1.918,0.834-2.771,0.342c-0.484-0.279-0.851-0.726-1.101-1.338c-0.251-0.612-0.333-1.285-0.248-2.019
			c0.074-0.64,0.376-1.547,0.907-2.724c0.531-1.176,0.826-2.017,0.884-2.525c0.097-0.838-0.149-1.732-0.738-2.686
			c-0.736,1.835-1.585,3.546-2.544,5.133L189.484,616.458z"/>
		<path fill="#CCCCCC" stroke="#CCCCCC" stroke-width="2" stroke-linecap="round" stroke-linejoin="round" d="M195.548,624.59
			c1.379-4.838,2.114-7.408,2.203-7.707c0.067-0.219,0.234-0.35,0.501-0.395c0.266-0.045,0.498-0.012,0.697,0.104
			c0.199,0.114,0.35,0.302,0.455,0.562c0.104,0.26,0.138,0.545,0.102,0.857c-0.042,0.361-0.228,1.119-0.559,2.275
			c1.881-2.602,3.372-3.586,4.471-2.951c0.834,0.482,1.141,1.674,0.921,3.577c-0.075,0.649-0.291,1.483-0.648,2.496
			c1.195-1.771,2.29-2.369,3.285-1.794c0.474,0.273,0.792,0.717,0.953,1.328c0.162,0.611,0.201,1.279,0.117,2.002
			c-0.07,0.611-0.283,1.449-0.639,2.514s-0.553,1.76-0.59,2.086c-0.069,0.59,0.058,0.978,0.379,1.164
			c0.834,0.48,1.924-0.707,3.271-3.562l0.258,0.882c-0.574,1.42-1.23,2.548-1.969,3.383c-0.739,0.834-1.495,1.028-2.266,0.582
			c-0.495-0.285-0.849-0.748-1.062-1.386c-0.212-0.639-0.275-1.331-0.189-2.077c0.058-0.503,0.237-1.203,0.539-2.101
			c0.301-0.896,0.473-1.531,0.516-1.902c0.076-0.655-0.039-1.071-0.344-1.246c-0.291-0.168-0.669-0.013-1.134,0.465
			s-1.113,1.328-1.946,2.55c-0.218,0.295-0.493,0.748-0.825,1.36c-0.333,0.613-0.541,0.989-0.627,1.128
			c-0.239-0.139-0.488-0.365-0.749-0.68c-0.26-0.314-0.375-0.605-0.344-0.869c0.018-0.152,0.357-1.074,1.018-2.764
			c0.661-1.688,1.037-2.926,1.128-3.716c0.08-0.692-0.019-1.118-0.297-1.278c-0.543-0.313-1.403,0.255-2.58,1.705
			c-1.177,1.451-2.13,3.13-2.859,5.039c-0.231-0.133-0.491-0.4-0.781-0.801C195.667,625.02,195.531,624.742,195.548,624.59z"/>
		<path fill="#CCCCCC" stroke="#CCCCCC" stroke-width="2" stroke-linecap="round" stroke-linejoin="round" d="M209.266,629.786
			c0.231-2,1.028-3.739,2.392-5.215c1.362-1.477,2.64-1.871,3.831-1.184c0.981,0.566,1.387,1.577,1.219,3.034
			c-0.184,1.588-0.867,2.699-2.051,3.334c-1.183,0.636-2.428,0.693-3.734,0.174c-0.052,0.206-0.095,0.452-0.128,0.738
			c-0.025,0.221-0.039,0.437-0.042,0.646c-0.003,0.209,0.019,0.511,0.066,0.902c0.047,0.393,0.175,0.76,0.384,1.104
			c0.208,0.345,0.486,0.616,0.832,0.815c0.807,0.467,1.694,0.396,2.662-0.211c0.967-0.607,1.802-1.577,2.507-2.912l0.336,0.76
			c-0.758,1.67-1.7,2.823-2.825,3.461c-1.126,0.638-2.219,0.651-3.28,0.039c-0.829-0.479-1.432-1.224-1.806-2.234
			C209.253,632.031,209.132,630.945,209.266,629.786z M211.284,628.832c0.79,0.291,1.678,0.122,2.667-0.508
			c0.988-0.631,1.549-1.529,1.685-2.699c0.048-0.418-0.041-0.693-0.266-0.824c-0.586-0.338-1.299-0.066-2.138,0.813
			C212.391,626.494,211.742,627.567,211.284,628.832z"/>
		<path fill="#CCCCCC" stroke="#CCCCCC" stroke-width="2" stroke-linecap="round" stroke-linejoin="round" d="M216.168,634.393
			c0.199-1.726,0.854-4.037,1.965-6.936c-0.332-0.301-0.553-0.524-0.663-0.674l0.125-1.084c0.311,0.249,0.622,0.488,0.935,0.716
			c0.883-2.149,1.769-3.921,2.657-5.314c0.888-1.394,1.544-1.968,1.968-1.724c0.146,0.084,0.264,0.246,0.356,0.488
			c0.092,0.242,0.122,0.506,0.088,0.793c-0.046,0.396-0.24,0.915-0.582,1.553c-0.342,0.637-0.82,1.474-1.434,2.508
			s-1.113,1.935-1.498,2.701c1.522,0.879,2.743,1.5,3.661,1.865l-0.134,1.159c-1.601-0.688-2.944-1.348-4.029-1.974
			c-1.004,2.336-1.606,4.37-1.806,6.104c-0.105,0.912-0.093,1.605,0.035,2.083c0.128,0.477,0.378,0.823,0.748,1.036
			c0.662,0.383,1.399,0.27,2.21-0.341c0.812-0.61,1.576-1.633,2.292-3.067l0.239,0.493c-0.781,1.75-1.676,3.025-2.687,3.827
			c-1.01,0.801-1.979,0.934-2.906,0.398c-0.608-0.352-1.052-0.921-1.328-1.706C216.107,636.512,216.035,635.543,216.168,634.393z"/>
		<path fill="#CCCCCC" stroke="#CCCCCC" stroke-width="2" stroke-linecap="round" stroke-linejoin="round" d="M228.204,637.647
			c0.239-2.073,0.738-4.074,1.498-6.001s1.629-3.536,2.612-4.828s2.048-2.207,3.198-2.743c1.149-0.537,2.213-0.522,3.193,0.043
			c0.8,0.462,1.348,1.176,1.643,2.14c0.295,0.964,0.377,2.012,0.246,3.145c-0.139,1.211-0.454,2.237-0.942,3.082
			c-0.489,0.844-0.981,1.122-1.479,0.836c-0.332-0.191-0.568-0.715-0.708-1.571c0.361-0.19,0.786-0.695,1.276-1.517
			c0.49-0.82,0.779-1.604,0.865-2.352c0.119-1.033-0.179-1.758-0.893-2.17c-0.964-0.557-2.08-0.19-3.348,1.098
			c-1.268,1.287-2.398,3.09-3.391,5.406s-1.621,4.62-1.885,6.909c-0.224,1.942-0.149,3.633,0.227,5.073s0.94,2.378,1.691,2.812
			c1.017,0.586,2.012,0.102,2.987-1.453s1.656-3.457,2.043-5.704c-0.622-0.595-1.316-1.113-2.083-1.555
			c-0.237-0.138-0.676-0.366-1.313-0.688c0.397-1.371,1.012-1.816,1.843-1.336c0.449,0.259,1.082,0.883,1.896,1.871
			c0.815,0.988,1.334,1.594,1.559,1.817c-0.924,2.667-1.519,4.46-1.786,5.376c-0.266,0.917-0.458,1.883-0.575,2.898
			c-0.039,0.33-0.087,0.844-0.146,1.539c-0.06,0.695-0.111,1.23-0.154,1.605c-0.88-0.697-1.223-1.883-1.029-3.56
			c0.033-0.286,0.065-0.503,0.097-0.65c-1.318,1.546-2.65,1.93-3.996,1.152c-1.169-0.675-2.059-1.983-2.67-3.924
			C228.066,642.457,227.908,640.208,228.204,637.647z"/>
		<path fill="#CCCCCC" stroke="#CCCCCC" stroke-width="2" stroke-linecap="round" stroke-linejoin="round" d="M238.828,644.947
			c0.817-1.459,1.584-3.145,2.3-5.062c-0.099-0.292-0.126-0.625-0.083-1c0.066-0.574,0.227-1.058,0.483-1.451
			c0.257-0.393,0.477-0.537,0.663-0.43c0.15,0.087,0.259,0.291,0.327,0.612s0.091,0.57,0.07,0.747
			c-0.01,0.088-0.085,0.274-0.223,0.559c-0.139,0.285-0.21,0.449-0.216,0.494c-0.009,0.205,0.084,0.513,0.282,0.921
			c0.198,0.408,0.416,0.822,0.655,1.243c0.239,0.42,0.439,0.954,0.603,1.602c0.163,0.646,0.207,1.29,0.133,1.93
			c-0.082,0.707-0.369,1.574-0.862,2.608c-0.494,1.033-0.761,1.726-0.801,2.079c-0.059,0.508,0.08,0.858,0.418,1.053
			c0.583,0.336,1.294,0.165,2.135-0.515c0.841-0.679,1.468-1.464,1.881-2.354l0.408,0.87c-0.589,1.308-1.38,2.323-2.374,3.042
			c-0.994,0.721-1.918,0.834-2.771,0.342c-0.484-0.279-0.851-0.726-1.102-1.338c-0.25-0.612-0.333-1.285-0.248-2.019
			c0.074-0.64,0.376-1.548,0.908-2.724c0.531-1.176,0.826-2.018,0.884-2.525c0.097-0.838-0.149-1.732-0.738-2.686
			c-0.736,1.834-1.584,3.546-2.544,5.133L238.828,644.947z"/>
		<path fill="#CCCCCC" stroke="#CCCCCC" stroke-width="2" stroke-linecap="round" stroke-linejoin="round" d="M245.546,651.264
			c0.168-1.457,0.583-2.734,1.247-3.835c0.664-1.101,1.287-1.482,1.87-1.146c0.158,0.091,0.353,0.302,0.583,0.629
			c0.197-0.98,0.508-1.707,0.932-2.178c0.423-0.471,0.949-0.524,1.577-0.162c0.559,0.323,0.942,0.814,1.15,1.471
			s0.265,1.389,0.172,2.194c-0.177,1.53-0.859,3.145-2.048,4.847c0.147,0.227,0.329,0.402,0.546,0.527
			c0.37,0.215,0.791,0.238,1.262,0.073c0.471-0.165,0.868-0.604,1.19-1.317l0.307,0.639c-0.399,0.892-0.866,1.475-1.398,1.751
			c-0.533,0.276-1.053,0.269-1.56-0.024c-0.309-0.178-0.633-0.469-0.973-0.871c-1.343,1.573-2.565,2.041-3.667,1.405
			c-0.556-0.321-0.918-0.849-1.088-1.581C245.478,652.953,245.444,652.146,245.546,651.264z M247.146,652.084
			c-0.117,1.013,0.049,1.646,0.5,1.907c0.467,0.27,1.178-0.145,2.135-1.243c-0.602-1.527-0.798-3.377-0.589-5.547
			c-0.277,0.074-0.66,0.671-1.148,1.788C247.554,650.105,247.255,651.137,247.146,652.084z M250.219,648.397
			c-0.059,0.509-0.073,1.122-0.041,1.838s0.114,1.3,0.247,1.756c0.989-1.392,1.568-2.817,1.737-4.28
			c0.112-0.976-0.019-1.572-0.394-1.788c-0.281-0.162-0.584-0.007-0.911,0.467C250.531,646.863,250.319,647.532,250.219,648.397z"/>
		<path fill="#CCCCCC" stroke="#CCCCCC" stroke-width="2" stroke-linecap="round" stroke-linejoin="round" d="M253.106,655.131
			c0.249-2.162,0.942-3.88,2.078-5.154c1.135-1.273,2.246-1.598,3.332-0.971c0.51,0.294,0.862,0.733,1.06,1.318
			c0.197,0.584,0.258,1.207,0.182,1.869c-0.077,0.662-0.238,1.223-0.483,1.681c-0.245,0.458-0.499,0.612-0.76,0.462
			c-0.251-0.146-0.433-0.474-0.543-0.984c0.48-0.24,0.787-0.946,0.922-2.115c0.043-0.375-0.061-0.636-0.312-0.781
			c-0.649-0.374-1.429,0.117-2.341,1.473c-0.913,1.357-1.455,2.785-1.628,4.285c-0.191,1.654,0.177,2.749,1.104,3.283l0.02,0.013
			c0.781,0.451,1.642,0.365,2.582-0.257c0.94-0.622,1.722-1.682,2.348-3.181l0.328,0.825c-0.708,1.732-1.635,2.974-2.781,3.725
			c-1.146,0.751-2.229,0.832-3.248,0.243c-0.715-0.413-1.246-1.113-1.59-2.101C253.029,657.775,252.939,656.566,253.106,655.131z"/>
		<path fill="#CCCCCC" stroke="#CCCCCC" stroke-width="2" stroke-linecap="round" stroke-linejoin="round" d="M259.502,658.789
			c0.231-2,1.029-3.738,2.392-5.214s2.64-1.87,3.831-1.183c0.981,0.566,1.387,1.577,1.218,3.033
			c-0.183,1.589-0.867,2.701-2.049,3.335c-1.184,0.635-2.428,0.692-3.734,0.174c-0.052,0.205-0.095,0.451-0.128,0.737
			c-0.025,0.221-0.04,0.436-0.042,0.646c-0.003,0.21,0.019,0.512,0.066,0.903s0.175,0.759,0.384,1.104
			c0.208,0.344,0.486,0.615,0.832,0.815c0.808,0.466,1.695,0.396,2.662-0.212c0.966-0.606,1.802-1.576,2.507-2.912l0.336,0.76
			c-0.757,1.67-1.699,2.823-2.825,3.461c-1.125,0.639-2.219,0.651-3.279,0.039c-0.83-0.479-1.432-1.223-1.807-2.233
			C259.49,661.035,259.369,659.949,259.502,658.789z M261.521,657.837c0.79,0.29,1.679,0.12,2.667-0.509s1.55-1.529,1.685-2.698
			c0.048-0.419-0.041-0.694-0.267-0.825c-0.585-0.338-1.298-0.066-2.137,0.812C262.627,655.499,261.979,656.572,261.521,657.837z"/>
		<path fill="#CCCCCC" stroke="#CCCCCC" stroke-width="2" stroke-linecap="round" stroke-linejoin="round" d="M266.806,661.1
			c0.817-1.457,1.584-3.146,2.3-5.062c-0.099-0.292-0.126-0.625-0.083-1.001c0.066-0.574,0.227-1.057,0.484-1.451
			c0.255-0.393,0.477-0.536,0.662-0.429c0.15,0.087,0.259,0.291,0.327,0.611c0.067,0.321,0.091,0.571,0.07,0.747
			c-0.011,0.089-0.085,0.275-0.224,0.559c-0.139,0.285-0.211,0.449-0.216,0.494c-0.01,0.206,0.084,0.513,0.281,0.921
			c0.197,0.409,0.416,0.823,0.655,1.243s0.439,0.954,0.603,1.602c0.163,0.646,0.208,1.291,0.133,1.931
			c-0.082,0.706-0.369,1.574-0.862,2.607c-0.494,1.034-0.76,1.728-0.801,2.079c-0.059,0.508,0.08,0.858,0.418,1.055
			c0.582,0.336,1.294,0.164,2.135-0.516s1.468-1.465,1.882-2.355l0.408,0.871c-0.589,1.308-1.38,2.322-2.374,3.042
			c-0.994,0.72-1.918,0.835-2.772,0.341c-0.483-0.279-0.851-0.725-1.101-1.338c-0.25-0.611-0.333-1.285-0.249-2.018
			c0.074-0.639,0.376-1.548,0.908-2.725c0.531-1.176,0.826-2.016,0.884-2.524c0.097-0.839-0.149-1.733-0.738-2.686
			c-0.737,1.834-1.584,3.545-2.544,5.133L266.806,661.1z"/>
		<path fill="#CCCCCC" stroke="#CCCCCC" stroke-width="2" stroke-linecap="round" stroke-linejoin="round" d="M272.31,676.461
			c0.061-0.528,0.214-0.99,0.458-1.389c0.245-0.399,0.493-0.713,0.747-0.939c0.253-0.23,0.626-0.43,1.121-0.602
			s0.872-0.276,1.131-0.314l1.179-0.268c0.333-0.816,0.849-2.352,1.545-4.609c-1.294,1.818-2.383,2.473-3.267,1.961
			c-0.442-0.254-0.812-0.703-1.109-1.346c-0.297-0.642-0.391-1.438-0.281-2.387c0.138-1.19,0.538-2.56,1.202-4.106
			c0.664-1.546,1.156-2.228,1.478-2.042c0.131,0.076,0.316,0.307,0.554,0.691c0.237,0.383,0.367,0.723,0.39,1.019
			c-0.318,0.429-0.702,1.23-1.155,2.404c-0.453,1.175-0.723,2.148-0.812,2.92c-0.094,0.816,0.043,1.331,0.413,1.545l0.02,0.011
			c0.739,0.428,1.764-0.404,3.076-2.495c0.018-0.036,0.077-0.267,0.175-0.693c0.098-0.425,0.191-0.776,0.28-1.056
			c0.089-0.278,0.243-0.513,0.462-0.704s0.46-0.21,0.725-0.059c0.053,0.03,0.259,0.196,0.619,0.499
			c-0.078,0.543-0.372,1.656-0.882,3.338c-0.511,1.682-1.066,3.29-1.667,4.826c1.625-0.168,2.902-1.419,3.834-3.753l0.284,0.658
			c-0.82,2.469-2.327,3.868-4.519,4.199c-1.95,4.526-3.58,6.412-4.891,5.655c-0.373-0.215-0.672-0.584-0.896-1.107
			S272.227,677.176,272.31,676.461z M273.084,676.908c-0.071,0.615,0.021,0.996,0.277,1.144c0.279,0.161,0.698-0.095,1.258-0.769
			c0.56-0.672,1.154-1.707,1.783-3.102C274.345,674.658,273.239,675.566,273.084,676.908z"/>
	</g>
	<g>
		<path fill="#ED1E79" d="M159.499,600.713c0.24-2.074,0.739-4.074,1.498-6.002c0.759-1.926,1.63-3.535,2.612-4.828
			c0.982-1.291,2.048-2.206,3.197-2.742c1.149-0.537,2.213-0.522,3.193,0.043c0.801,0.463,1.349,1.176,1.643,2.139
			c0.295,0.965,0.377,2.013,0.247,3.146c-0.139,1.21-0.454,2.237-0.943,3.081c-0.488,0.845-0.981,1.123-1.479,0.836
			c-0.332-0.191-0.567-0.715-0.708-1.57c0.361-0.191,0.787-0.696,1.277-1.517c0.489-0.819,0.778-1.604,0.865-2.353
			c0.119-1.033-0.179-1.756-0.894-2.169c-0.964-0.556-2.08-0.19-3.348,1.098c-1.268,1.287-2.398,3.089-3.39,5.406
			c-0.993,2.315-1.621,4.62-1.886,6.909c-0.224,1.941-0.148,3.633,0.227,5.073s0.939,2.378,1.691,2.812
			c1.017,0.587,2.012,0.104,2.987-1.452c0.975-1.556,1.656-3.457,2.042-5.704c-0.623-0.595-1.316-1.113-2.083-1.556
			c-0.237-0.138-0.675-0.366-1.313-0.688c0.397-1.37,1.011-1.816,1.843-1.336c0.448,0.26,1.081,0.885,1.896,1.871
			c0.815,0.989,1.334,1.595,1.559,1.818c-0.924,2.668-1.519,4.459-1.786,5.376s-0.458,1.884-0.576,2.897
			c-0.038,0.331-0.087,0.844-0.146,1.54c-0.059,0.694-0.11,1.229-0.153,1.604c-0.88-0.695-1.223-1.883-1.029-3.559
			c0.033-0.287,0.065-0.504,0.096-0.65c-1.318,1.545-2.65,1.93-3.996,1.152c-1.168-0.674-2.058-1.982-2.67-3.924
			C159.361,605.522,159.204,603.273,159.499,600.713z"/>
		<path fill="#ED1E79" d="M169.852,610.293c0.168-1.456,0.583-2.734,1.247-3.834c0.664-1.102,1.287-1.482,1.87-1.146
			c0.158,0.092,0.353,0.303,0.583,0.63c0.196-0.981,0.507-1.708,0.931-2.179s0.949-0.523,1.577-0.162
			c0.559,0.324,0.943,0.814,1.15,1.471c0.207,0.657,0.265,1.389,0.171,2.195c-0.177,1.529-0.859,3.145-2.048,4.846
			c0.147,0.227,0.329,0.402,0.546,0.527c0.371,0.215,0.791,0.239,1.262,0.074c0.471-0.166,0.868-0.605,1.19-1.318l0.308,0.64
			c-0.399,0.892-0.866,1.474-1.399,1.751c-0.533,0.275-1.053,0.268-1.56-0.025c-0.308-0.178-0.632-0.468-0.973-0.87
			c-1.342,1.573-2.565,2.04-3.666,1.405c-0.556-0.322-0.919-0.849-1.088-1.58C169.783,611.983,169.75,611.176,169.852,610.293z
			 M171.451,611.114c-0.117,1.013,0.05,1.647,0.5,1.907c0.467,0.27,1.178-0.145,2.136-1.243c-0.602-1.528-0.798-3.378-0.589-5.547
			c-0.277,0.075-0.66,0.671-1.148,1.786C171.86,609.135,171.561,610.167,171.451,611.114z M174.524,607.426
			c-0.059,0.511-0.073,1.123-0.041,1.839c0.031,0.716,0.114,1.301,0.247,1.756c0.989-1.392,1.567-2.817,1.736-4.281
			c0.113-0.975-0.019-1.571-0.393-1.787c-0.281-0.162-0.585-0.007-0.911,0.468C174.837,605.894,174.625,606.562,174.524,607.426z"/>
		<path fill="#ED1E79" d="M177.503,614.285c0.145-1.258,0.542-2.682,1.192-4.272c0.65-1.589,1.14-2.289,1.471-2.098
			c0.278,0.16,0.555,0.626,0.833,1.399c-0.357,0.523-0.758,1.34-1.204,2.446c-0.445,1.107-0.721,2.126-0.829,3.052
			c-0.153,1.324-0.03,2.101,0.366,2.329c0.344,0.198,0.831-0.103,1.46-0.903c0.629-0.803,1.184-1.664,1.665-2.588
			c0.48-0.922,0.929-1.84,1.345-2.753c0.703,0.642,1.024,1.227,0.963,1.756c-0.005,0.044-0.15,0.402-0.435,1.072
			c-0.285,0.672-0.58,1.46-0.887,2.365c-0.307,0.905-0.496,1.667-0.567,2.284c-0.087,0.751,0.042,1.225,0.386,1.424l0.02,0.012
			c0.437,0.252,1.033,0.072,1.789-0.539c0.755-0.61,1.454-1.566,2.099-2.865l0.252,0.569c-0.657,1.528-1.451,2.663-2.384,3.407
			c-0.934,0.744-1.771,0.902-2.512,0.474c-0.251-0.146-0.457-0.353-0.616-0.622c-0.16-0.268-0.273-0.539-0.34-0.812
			c-0.067-0.274-0.106-0.614-0.115-1.02c-0.01-0.406-0.003-0.743,0.021-1.012c0.024-0.269,0.06-0.612,0.108-1.032
			c-0.377,0.583-0.699,1.039-0.963,1.368c-0.264,0.33-0.585,0.604-0.963,0.82s-0.719,0.238-1.024,0.062
			c-0.437-0.252-0.761-0.805-0.974-1.656C177.448,616.102,177.396,615.211,177.503,614.285z"/>
		<path fill="#ED1E79" d="M186.484,617.458c0.818-1.458,1.585-3.145,2.301-5.062c-0.099-0.291-0.126-0.625-0.083-1
			c0.066-0.574,0.227-1.059,0.483-1.451c0.256-0.394,0.477-0.537,0.663-0.43c0.15,0.087,0.259,0.291,0.327,0.611
			c0.067,0.322,0.091,0.57,0.07,0.747c-0.01,0.089-0.084,0.275-0.223,0.56c-0.139,0.285-0.211,0.449-0.216,0.494
			c-0.01,0.206,0.084,0.513,0.282,0.921c0.197,0.407,0.415,0.822,0.654,1.242c0.239,0.421,0.44,0.954,0.602,1.602
			c0.163,0.647,0.208,1.291,0.134,1.931c-0.082,0.706-0.369,1.574-0.862,2.608c-0.494,1.032-0.761,1.727-0.802,2.079
			c-0.059,0.508,0.081,0.857,0.418,1.053c0.583,0.337,1.294,0.165,2.136-0.515c0.841-0.68,1.468-1.464,1.882-2.355l0.408,0.87
			c-0.589,1.309-1.38,2.323-2.374,3.043c-0.994,0.721-1.918,0.834-2.771,0.342c-0.484-0.279-0.851-0.726-1.101-1.338
			c-0.251-0.612-0.333-1.285-0.248-2.019c0.074-0.64,0.376-1.547,0.907-2.724c0.531-1.176,0.826-2.017,0.884-2.525
			c0.097-0.838-0.149-1.732-0.738-2.686c-0.736,1.835-1.585,3.546-2.544,5.133L186.484,617.458z"/>
		<path fill="#ED1E79" d="M192.548,625.59c1.379-4.838,2.114-7.408,2.203-7.707c0.067-0.219,0.234-0.35,0.501-0.395
			c0.266-0.045,0.498-0.012,0.697,0.104c0.199,0.114,0.35,0.302,0.455,0.562c0.104,0.26,0.138,0.545,0.102,0.857
			c-0.042,0.361-0.228,1.119-0.559,2.275c1.881-2.602,3.372-3.586,4.471-2.951c0.834,0.482,1.141,1.674,0.921,3.577
			c-0.075,0.649-0.291,1.483-0.648,2.496c1.195-1.771,2.29-2.369,3.285-1.794c0.474,0.273,0.792,0.717,0.953,1.328
			c0.162,0.611,0.201,1.279,0.117,2.002c-0.07,0.611-0.283,1.449-0.639,2.514s-0.553,1.76-0.59,2.086
			c-0.069,0.59,0.058,0.978,0.379,1.164c0.834,0.48,1.924-0.707,3.271-3.562l0.258,0.882c-0.574,1.42-1.23,2.548-1.969,3.383
			c-0.739,0.834-1.495,1.028-2.266,0.582c-0.495-0.285-0.849-0.748-1.062-1.386c-0.212-0.639-0.275-1.331-0.189-2.077
			c0.058-0.503,0.237-1.203,0.539-2.101c0.301-0.896,0.473-1.531,0.516-1.902c0.076-0.655-0.039-1.071-0.344-1.246
			c-0.291-0.168-0.669-0.013-1.134,0.465s-1.113,1.328-1.946,2.55c-0.218,0.295-0.493,0.748-0.825,1.36
			c-0.333,0.613-0.541,0.989-0.627,1.128c-0.239-0.139-0.488-0.365-0.749-0.68c-0.26-0.314-0.375-0.605-0.344-0.869
			c0.018-0.152,0.357-1.074,1.018-2.764c0.661-1.688,1.037-2.926,1.128-3.716c0.08-0.692-0.019-1.118-0.297-1.278
			c-0.543-0.313-1.403,0.255-2.58,1.705c-1.177,1.451-2.13,3.13-2.859,5.039c-0.231-0.133-0.491-0.4-0.781-0.801
			C192.667,626.02,192.531,625.742,192.548,625.59z"/>
		<path fill="#ED1E79" d="M206.266,630.786c0.231-2,1.028-3.739,2.392-5.215c1.362-1.477,2.64-1.871,3.831-1.184
			c0.981,0.566,1.387,1.577,1.219,3.034c-0.184,1.588-0.867,2.699-2.051,3.334c-1.183,0.636-2.428,0.693-3.734,0.174
			c-0.052,0.206-0.095,0.452-0.128,0.738c-0.025,0.221-0.039,0.437-0.042,0.646c-0.003,0.209,0.019,0.511,0.066,0.902
			c0.047,0.393,0.175,0.76,0.384,1.104c0.208,0.345,0.486,0.616,0.832,0.815c0.807,0.467,1.694,0.396,2.662-0.211
			c0.967-0.607,1.802-1.577,2.507-2.912l0.336,0.76c-0.758,1.67-1.7,2.823-2.825,3.461c-1.126,0.638-2.219,0.651-3.28,0.039
			c-0.829-0.479-1.432-1.224-1.806-2.234C206.253,633.031,206.132,631.945,206.266,630.786z M208.284,629.832
			c0.79,0.291,1.678,0.122,2.667-0.508c0.988-0.631,1.549-1.529,1.685-2.699c0.048-0.418-0.041-0.693-0.266-0.824
			c-0.586-0.338-1.299-0.066-2.138,0.813C209.391,627.494,208.742,628.567,208.284,629.832z"/>
		<path fill="#ED1E79" d="M213.168,635.393c0.199-1.726,0.854-4.037,1.965-6.936c-0.332-0.301-0.553-0.524-0.663-0.674l0.125-1.084
			c0.311,0.249,0.622,0.488,0.935,0.716c0.883-2.149,1.769-3.921,2.657-5.314c0.888-1.394,1.544-1.968,1.968-1.724
			c0.146,0.084,0.264,0.246,0.356,0.488c0.092,0.242,0.122,0.506,0.088,0.793c-0.046,0.396-0.24,0.915-0.582,1.553
			c-0.342,0.637-0.82,1.474-1.434,2.508s-1.113,1.935-1.498,2.701c1.522,0.879,2.743,1.5,3.661,1.865l-0.134,1.159
			c-1.601-0.688-2.944-1.348-4.029-1.974c-1.004,2.336-1.606,4.37-1.806,6.104c-0.105,0.912-0.093,1.605,0.035,2.083
			c0.128,0.477,0.378,0.823,0.748,1.036c0.662,0.383,1.399,0.27,2.21-0.341c0.812-0.61,1.576-1.633,2.292-3.067l0.239,0.493
			c-0.781,1.75-1.676,3.025-2.687,3.827c-1.01,0.801-1.979,0.934-2.906,0.398c-0.608-0.352-1.052-0.921-1.328-1.706
			C213.107,637.512,213.035,636.543,213.168,635.393z"/>
		<path fill="#ED1E79" d="M225.204,638.647c0.239-2.073,0.738-4.074,1.498-6.001s1.629-3.536,2.612-4.828s2.048-2.207,3.198-2.743
			c1.149-0.537,2.213-0.522,3.193,0.043c0.8,0.462,1.348,1.176,1.643,2.14c0.295,0.964,0.377,2.012,0.246,3.145
			c-0.139,1.211-0.454,2.237-0.942,3.082c-0.489,0.844-0.981,1.122-1.479,0.836c-0.332-0.191-0.568-0.715-0.708-1.571
			c0.361-0.19,0.786-0.695,1.276-1.517c0.49-0.82,0.779-1.604,0.865-2.352c0.119-1.033-0.179-1.758-0.893-2.17
			c-0.964-0.557-2.08-0.19-3.348,1.098c-1.268,1.287-2.398,3.09-3.391,5.406s-1.621,4.62-1.885,6.909
			c-0.224,1.942-0.149,3.633,0.227,5.073s0.94,2.378,1.691,2.812c1.017,0.586,2.012,0.102,2.987-1.453s1.656-3.457,2.043-5.704
			c-0.622-0.595-1.316-1.113-2.083-1.555c-0.237-0.138-0.676-0.366-1.313-0.688c0.397-1.371,1.012-1.816,1.843-1.336
			c0.449,0.259,1.082,0.883,1.896,1.871c0.815,0.988,1.334,1.594,1.559,1.817c-0.924,2.667-1.519,4.46-1.786,5.376
			c-0.266,0.917-0.458,1.883-0.575,2.898c-0.039,0.33-0.087,0.844-0.146,1.539c-0.06,0.695-0.111,1.23-0.154,1.605
			c-0.88-0.697-1.223-1.883-1.029-3.56c0.033-0.286,0.065-0.503,0.097-0.65c-1.318,1.546-2.65,1.93-3.996,1.152
			c-1.169-0.675-2.059-1.983-2.67-3.924C225.066,643.457,224.908,641.208,225.204,638.647z"/>
		<path fill="#ED1E79" d="M235.828,645.947c0.817-1.459,1.584-3.145,2.3-5.062c-0.099-0.292-0.126-0.625-0.083-1
			c0.066-0.574,0.227-1.058,0.483-1.451c0.257-0.393,0.477-0.537,0.663-0.43c0.15,0.087,0.259,0.291,0.327,0.612
			s0.091,0.57,0.07,0.747c-0.01,0.088-0.085,0.274-0.223,0.559c-0.139,0.285-0.21,0.449-0.216,0.494
			c-0.009,0.205,0.084,0.513,0.282,0.921c0.198,0.408,0.416,0.822,0.655,1.243c0.239,0.42,0.439,0.954,0.603,1.602
			c0.163,0.646,0.207,1.29,0.133,1.93c-0.082,0.707-0.369,1.574-0.862,2.608c-0.494,1.033-0.761,1.726-0.801,2.079
			c-0.059,0.508,0.08,0.858,0.418,1.053c0.583,0.336,1.294,0.165,2.135-0.515c0.841-0.679,1.468-1.464,1.881-2.354l0.408,0.87
			c-0.589,1.308-1.38,2.323-2.374,3.042c-0.994,0.721-1.918,0.834-2.771,0.342c-0.484-0.279-0.851-0.726-1.102-1.338
			c-0.25-0.612-0.333-1.285-0.248-2.019c0.074-0.64,0.376-1.548,0.908-2.724c0.531-1.176,0.826-2.018,0.884-2.525
			c0.097-0.838-0.149-1.732-0.738-2.686c-0.736,1.834-1.584,3.546-2.544,5.133L235.828,645.947z"/>
		<path fill="#ED1E79" d="M242.546,652.264c0.168-1.457,0.583-2.734,1.247-3.835c0.664-1.101,1.287-1.482,1.87-1.146
			c0.158,0.091,0.353,0.302,0.583,0.629c0.197-0.98,0.508-1.707,0.932-2.178c0.423-0.471,0.949-0.524,1.577-0.162
			c0.559,0.323,0.942,0.814,1.15,1.471s0.265,1.389,0.172,2.194c-0.177,1.53-0.859,3.145-2.048,4.847
			c0.147,0.227,0.329,0.402,0.546,0.527c0.37,0.215,0.791,0.238,1.262,0.073c0.471-0.165,0.868-0.604,1.19-1.317l0.307,0.639
			c-0.399,0.892-0.866,1.475-1.398,1.751c-0.533,0.276-1.053,0.269-1.56-0.024c-0.309-0.178-0.633-0.469-0.973-0.871
			c-1.343,1.573-2.565,2.041-3.667,1.405c-0.556-0.321-0.918-0.849-1.088-1.581C242.478,653.953,242.444,653.146,242.546,652.264z
			 M244.146,653.084c-0.117,1.013,0.049,1.646,0.5,1.907c0.467,0.27,1.178-0.145,2.135-1.243c-0.602-1.527-0.798-3.377-0.589-5.547
			c-0.277,0.074-0.66,0.671-1.148,1.788C244.554,651.105,244.255,652.137,244.146,653.084z M247.219,649.397
			c-0.059,0.509-0.073,1.122-0.041,1.838s0.114,1.3,0.247,1.756c0.989-1.392,1.568-2.817,1.737-4.28
			c0.112-0.976-0.019-1.572-0.394-1.788c-0.281-0.162-0.584-0.007-0.911,0.467C247.531,647.863,247.319,648.532,247.219,649.397z"/>
		<path fill="#ED1E79" d="M250.106,656.131c0.249-2.162,0.942-3.88,2.078-5.154c1.135-1.273,2.246-1.598,3.332-0.971
			c0.51,0.294,0.862,0.733,1.06,1.318c0.197,0.584,0.258,1.207,0.182,1.869c-0.077,0.662-0.238,1.223-0.483,1.681
			c-0.245,0.458-0.499,0.612-0.76,0.462c-0.251-0.146-0.433-0.474-0.543-0.984c0.48-0.24,0.787-0.946,0.922-2.115
			c0.043-0.375-0.061-0.636-0.312-0.781c-0.649-0.374-1.429,0.117-2.341,1.473c-0.913,1.357-1.455,2.785-1.628,4.285
			c-0.191,1.654,0.177,2.749,1.104,3.283l0.02,0.013c0.781,0.451,1.642,0.365,2.582-0.257c0.94-0.622,1.722-1.682,2.348-3.181
			l0.328,0.825c-0.708,1.732-1.635,2.974-2.781,3.725c-1.146,0.751-2.229,0.832-3.248,0.243c-0.715-0.413-1.246-1.113-1.59-2.101
			C250.029,658.775,249.939,657.566,250.106,656.131z"/>
		<path fill="#ED1E79" d="M256.502,659.789c0.231-2,1.029-3.738,2.392-5.214s2.64-1.87,3.831-1.183
			c0.981,0.566,1.387,1.577,1.218,3.033c-0.183,1.589-0.867,2.701-2.049,3.335c-1.184,0.635-2.428,0.692-3.734,0.174
			c-0.052,0.205-0.095,0.451-0.128,0.737c-0.025,0.221-0.04,0.436-0.042,0.646c-0.003,0.21,0.019,0.512,0.066,0.903
			s0.175,0.759,0.384,1.104c0.208,0.344,0.486,0.615,0.832,0.815c0.808,0.466,1.695,0.396,2.662-0.212
			c0.966-0.606,1.802-1.576,2.507-2.912l0.336,0.76c-0.757,1.67-1.699,2.823-2.825,3.461c-1.125,0.639-2.219,0.651-3.279,0.039
			c-0.83-0.479-1.432-1.223-1.807-2.233C256.49,662.035,256.369,660.949,256.502,659.789z M258.521,658.837
			c0.79,0.29,1.679,0.12,2.667-0.509s1.55-1.529,1.685-2.698c0.048-0.419-0.041-0.694-0.267-0.825
			c-0.585-0.338-1.298-0.066-2.137,0.812C259.627,656.499,258.979,657.572,258.521,658.837z"/>
		<path fill="#ED1E79" d="M263.806,662.1c0.817-1.457,1.584-3.146,2.3-5.062c-0.099-0.292-0.126-0.625-0.083-1.001
			c0.066-0.574,0.227-1.057,0.484-1.451c0.255-0.393,0.477-0.536,0.662-0.429c0.15,0.087,0.259,0.291,0.327,0.611
			c0.067,0.321,0.091,0.571,0.07,0.747c-0.011,0.089-0.085,0.275-0.224,0.559c-0.139,0.285-0.211,0.449-0.216,0.494
			c-0.01,0.206,0.084,0.513,0.281,0.921c0.197,0.409,0.416,0.823,0.655,1.243s0.439,0.954,0.603,1.602
			c0.163,0.646,0.208,1.291,0.133,1.931c-0.082,0.706-0.369,1.574-0.862,2.607c-0.494,1.034-0.76,1.728-0.801,2.079
			c-0.059,0.508,0.08,0.858,0.418,1.055c0.582,0.336,1.294,0.164,2.135-0.516s1.468-1.465,1.882-2.355l0.408,0.871
			c-0.589,1.308-1.38,2.322-2.374,3.042c-0.994,0.72-1.918,0.835-2.772,0.341c-0.483-0.279-0.851-0.725-1.101-1.338
			c-0.25-0.611-0.333-1.285-0.249-2.018c0.074-0.639,0.376-1.548,0.908-2.725c0.531-1.176,0.826-2.016,0.884-2.524
			c0.097-0.839-0.149-1.733-0.738-2.686c-0.737,1.834-1.584,3.545-2.544,5.133L263.806,662.1z"/>
		<path fill="#ED1E79" d="M269.31,677.461c0.061-0.528,0.214-0.99,0.458-1.389c0.245-0.399,0.493-0.713,0.747-0.939
			c0.253-0.23,0.626-0.43,1.121-0.602s0.872-0.276,1.131-0.314l1.179-0.268c0.333-0.816,0.849-2.352,1.545-4.609
			c-1.294,1.818-2.383,2.473-3.267,1.961c-0.442-0.254-0.812-0.703-1.109-1.346c-0.297-0.642-0.391-1.438-0.281-2.387
			c0.138-1.19,0.538-2.56,1.202-4.106c0.664-1.546,1.156-2.228,1.478-2.042c0.131,0.076,0.316,0.307,0.554,0.691
			c0.237,0.383,0.367,0.723,0.39,1.019c-0.318,0.429-0.702,1.23-1.155,2.404c-0.453,1.175-0.723,2.148-0.812,2.92
			c-0.094,0.816,0.043,1.331,0.413,1.545l0.02,0.011c0.739,0.428,1.764-0.404,3.076-2.495c0.018-0.036,0.077-0.267,0.175-0.693
			c0.098-0.425,0.191-0.776,0.28-1.056c0.089-0.278,0.243-0.513,0.462-0.704s0.46-0.21,0.725-0.059
			c0.053,0.03,0.259,0.196,0.619,0.499c-0.078,0.543-0.372,1.656-0.882,3.338c-0.511,1.682-1.066,3.29-1.667,4.826
			c1.625-0.168,2.902-1.419,3.834-3.753l0.284,0.658c-0.82,2.469-2.327,3.868-4.519,4.199c-1.95,4.526-3.58,6.412-4.891,5.655
			c-0.373-0.215-0.672-0.584-0.896-1.107S269.227,678.176,269.31,677.461z M270.084,677.908c-0.071,0.615,0.021,0.996,0.277,1.144
			c0.279,0.161,0.698-0.095,1.258-0.769c0.56-0.672,1.154-1.707,1.783-3.102C271.345,675.658,270.239,676.566,270.084,677.908z"/>
	</g>
	<g>
		<g>
			<g>
				<path fill="#F261A1" d="M31.001,535.656c-14.593,8.426-23.947,21.946-26.32,35.695h0.004L31.001,556V535.656z"/>
			</g>
			<polygon fill="#F261A1" points="64.682,606.352 91.001,570.656 31.001,535.656 4.682,571.352 			"/>
		</g>
		<g>
			<path fill="#ED1E79" d="M91.001,570.656c-14.593,8.426-23.947,21.946-26.32,35.695h0.004L91.001,591V570.656z"/>
		</g>
	</g>
</g>
</svg>
