<?xml version="1.0" encoding="utf-8"?>
<!-- Generator: Adobe Illustrator 13.0.0, SVG Export Plug-In . SVG Version: 6.00 Build 14948)  -->
<!DOCTYPE svg PUBLIC "-//W3C//DTD SVG 1.1//EN" "http://www.w3.org/Graphics/SVG/1.1/DTD/svg11.dtd">
<svg version="1.1" id="Layer_1" xmlns="http://www.w3.org/2000/svg" xmlns:xlink="http://www.w3.org/1999/xlink" x="0px" y="0px"
	 width="660px" height="847px" viewBox="0 0 660 847" enable-background="new 0 0 660 847" xml:space="preserve">
<g>
	<polygon fill="#CCCCCC" points="360,847 660,672 660,210 0,175 	"/>
	<polygon fill="#E6E6E6" points="360,847 0,637 0,175 360,385 	"/>
	<polygon fill="#F2F2F2" points="360,385 0,175 300,0 660,210 	"/>
	<g>
		<polygon fill="#CCCCCC" points="324,812 324.001,798 144.001,693 132,700 		"/>
		<polygon fill="#B3B3B3" points="132,602 144.001,609 144.001,693 132,700 		"/>
	</g>
	<g>
		<polygon fill="#736357" points="84,686 84.001,672 48.001,651 36,658 		"/>
		<polygon fill="#736357" points="36,560 48.001,567 48.001,651 36,658 		"/>
	</g>
	<polygon fill="#B8AA9E" points="144,609 324.001,714 324.001,798 144,693 	"/>
	<g>
		<polygon fill="#AD9E91" points="151,691 145.791,694.043 157.791,701.043 163,698 		"/>
		<polygon fill="#AD9E91" points="175,705 169.791,708.043 181.791,715.043 187,712 		"/>
		<polyline fill="#AD9E91" points="151,691 163,684 151,677 		"/>
		<polygon fill="#AD9E91" points="175,691 163,698 175,705 187,698 		"/>
		<polygon fill="#AD9E91" points="199,719 193.791,722.043 205.791,729.043 211,726 		"/>
		<polygon fill="#AD9E91" points="199,705 187,712 199,719 211,712 		"/>
		<polygon fill="#AD9E91" points="223,733 217.791,736.043 229.791,743.043 235,740 		"/>
		<polygon fill="#AD9E91" points="223,719 211,726 223,733 235,726 		"/>
		<polygon fill="#AD9E91" points="247,747 241.791,750.043 253.791,757.043 259,754 		"/>
		<polygon fill="#AD9E91" points="247,733 235,740 247,747 259,740 		"/>
		<polygon fill="#AD9E91" points="199,691 187,698 199,705 211,698 		"/>
		<polygon fill="#AD9E91" points="223,691 211,698 223,705 235,698 		"/>
		<polygon fill="#AD9E91" points="223,705 211,712 223,719 235,712 		"/>
		<polygon fill="#AD9E91" points="247,705 235,712 247,719 259,712 		"/>
		<polygon fill="#AD9E91" points="247,719 235,726 247,733 259,726 		"/>
		<polygon fill="#AD9E91" points="247,691 235,698 247,705 259,698 		"/>
		<polygon fill="#AD9E91" points="271,691 259,698 271,705 283,698 		"/>
		<polygon fill="#AD9E91" points="175,677 163,684 175,691 187,684 		"/>
		<polygon fill="#AD9E91" points="199,677 187,684 199,691 211,684 		"/>
		<polygon fill="#AD9E91" points="223,677 211,684 223,691 235,684 		"/>
		<polygon fill="#AD9E91" points="247,677 235,684 247,691 259,684 		"/>
		<polygon fill="#AD9E91" points="265.785,680.041 259,684 271,691 277.785,687.041 		"/>
		<polyline fill="#AD9E91" points="151,677 163,670 151,663 		"/>
		<polygon fill="#AD9E91" points="175,663 163,670 175,677 187,670 		"/>
		<polygon fill="#AD9E91" points="199,663 187,670 199,677 211,670 		"/>
		<polygon fill="#AD9E91" points="223,663 211,670 223,677 235,670 		"/>
		<polygon fill="#AD9E91" points="241.785,666.041 235,670 247,677 253.785,673.041 		"/>
		<polyline fill="#AD9E91" points="151,663 163,656 151,649 		"/>
		<polygon fill="#AD9E91" points="175,649 163,656 175,663 187,656 		"/>
		<polygon fill="#AD9E91" points="199,649 187,656 199,663 211,656 		"/>
		<polygon fill="#AD9E91" points="217.785,652.041 211,656 223,663 229.785,659.041 		"/>
		<polyline fill="#AD9E91" points="151,649 163,642 151,635 		"/>
		<polygon fill="#AD9E91" points="175,635 163,642 175,649 187,642 		"/>
		<polygon fill="#AD9E91" points="193.785,638.041 187,642 199,649 205.785,645.041 		"/>
		<polygon fill="#AD9E91" points="143.998,630.916 151,635 163,628 151,621 144.001,625.083 		"/>
		<polygon fill="#AD9E91" points="143.998,644.916 151,649 163,642 151,635 144.001,639.083 		"/>
		<polygon fill="#AD9E91" points="143.998,658.916 151,663 163,656 151,649 144.001,653.083 		"/>
		<polygon fill="#AD9E91" points="143.998,672.916 151,677 163,670 151,663 144.001,667.083 		"/>
		<polygon fill="#AD9E91" points="143.998,686.916 151,691 163,684 151,677 144.001,681.083 		"/>
		<polygon fill="#AD9E91" points="169.785,624.041 163,628 175,635 181.785,631.041 		"/>
		<polygon fill="#AD9E91" points="143.994,616.913 151,621 157.785,617.041 145.785,610.041 143.994,611.086 		"/>
	</g>
	<g>
		<polygon fill="#B8AA9E" points="48.001,567 84.001,588 84.001,672 48.001,651 		"/>
		<g>
			<polygon fill="#AD9E91" points="55,649 49.791,652.043 61.791,659.043 67,656 			"/>
			<polygon fill="#AD9E91" points="48.003,644.918 55,649 67,642 55,635 48,639.083 			"/>
			<polygon fill="#AD9E91" points="48.003,630.918 55,635 67,628 55,621 48,625.083 			"/>
			<polygon fill="#AD9E91" points="48.003,616.918 55,621 67,614 55,607 48,611.083 			"/>
			<polygon fill="#AD9E91" points="84,651.916 79,649 67,656 79,663 84,660.084 			"/>
			<polygon fill="#AD9E91" points="84,637.916 79,635 67,642 79,649 84,646.084 			"/>
			<polygon fill="#AD9E91" points="84,623.916 79,621 67,628 79,635 84,632.084 			"/>
			<polygon fill="#AD9E91" points="84,609.916 79,607 67,614 79,621 84,618.084 			"/>
			<polygon fill="#AD9E91" points="84,595.916 79,593 67,600 79,607 84,604.084 			"/>
		</g>
	</g>
	<g>
		<polygon fill="#AF8963" points="252,714 252,756 300,784 318.952,764.952 299.355,724.161 		"/>
		<polygon fill="#A67C52" points="300,784 324,770 324,728 300,742 		"/>
		<polygon fill="#B89675" points="288,693 252,714 300,742 324,728 324,714 		"/>
	</g>
	<g>
		<polygon opacity="0.25" fill="#CCFFFF" points="264,679 218,747 224,750.5 270,682.5 		"/>
		<polygon opacity="0.25" fill="#CCFFFF" points="276.001,686 230.001,754 231.875,755.094 277.875,687.094 		"/>
		<polygon opacity="0.25" fill="#CCFFFF" points="216.001,651 170.001,719 176.001,722.5 222.001,654.5 		"/>
		<polygon opacity="0.25" fill="#CCFFFF" points="192.001,637 146.001,705 147.875,706.094 193.875,638.094 		"/>
	</g>
	<g>
		<g>
			<polygon fill="#CCCCCC" points="324,658 324.001,644 264.001,609 252,616 			"/>
			<polygon fill="#B3B3B3" points="252,518 264.001,525 264.001,609 252,616 			"/>
		</g>
		<g>
			<polygon opacity="0.25" fill="#CCFFFF" points="303.859,548.249 257.859,616.249 263.859,619.749 309.859,551.749 			"/>
			<polygon opacity="0.25" fill="#CCFFFF" points="315.86,555.249 269.86,623.249 271.734,624.343 317.734,556.343 			"/>
		</g>
	</g>
	<g>
		<g>
			<polygon fill="#CCCCCC" points="216,595 216.001,581 156.001,546 144,553 			"/>
			<polygon fill="#B3B3B3" points="144,455 156.001,462 156.001,546 144,553 			"/>
		</g>
		<g>
			<polygon opacity="0.25" fill="#CCFFFF" points="195.859,485.249 149.859,553.249 155.859,556.749 201.859,488.749 			"/>
			<polygon opacity="0.25" fill="#CCFFFF" points="207.86,492.249 161.86,560.249 163.734,561.343 209.734,493.343 			"/>
		</g>
	</g>
	<g>
		<g>
			<polygon fill="#CCCCCC" points="108,532 108.001,518 48.001,483 36,490 			"/>
			<polygon fill="#B3B3B3" points="36,392 48.001,399 48.001,483 36,490 			"/>
		</g>
		<g>
			<polygon opacity="0.25" fill="#CCFFFF" points="87.859,422.249 41.859,490.249 47.859,493.749 93.859,425.749 			"/>
			<polygon opacity="0.25" fill="#CCFFFF" points="99.86,429.249 53.86,497.249 55.734,498.343 101.734,430.343 			"/>
		</g>
	</g>
	<g>
		<g>
			<polygon fill="#CCCCCC" points="324,504 324.001,490 264.001,455 252,462 			"/>
			<polygon fill="#B3B3B3" points="252,364 264.001,371 264.001,455 252,462 			"/>
		</g>
		<g>
			<polygon opacity="0.25" fill="#CCFFFF" points="303.859,394.249 257.859,462.249 263.859,465.749 309.859,397.749 			"/>
			<polygon opacity="0.25" fill="#CCFFFF" points="315.86,401.249 269.86,469.249 271.734,470.343 317.734,402.343 			"/>
		</g>
	</g>
	<g>
		<g>
			<polygon fill="#CCCCCC" points="216,441 216.001,427 156.001,392 144,399 			"/>
			<polygon fill="#B3B3B3" points="144,301 156.001,308 156.001,392 144,399 			"/>
		</g>
		<g>
			<polygon opacity="0.25" fill="#CCFFFF" points="195.859,331.249 149.859,399.249 155.859,402.749 201.859,334.749 			"/>
			<polygon opacity="0.25" fill="#CCFFFF" points="207.86,338.249 161.86,406.249 163.734,407.343 209.734,339.343 			"/>
		</g>
	</g>
	<g>
		<g>
			<polygon fill="#CCCCCC" points="108,378 108.001,364 48.001,329 36,336 			"/>
			<polygon fill="#B3B3B3" points="36,238 48.001,245 48.001,329 36,336 			"/>
		</g>
		<g>
			<polygon opacity="0.25" fill="#CCFFFF" points="87.859,268.249 41.859,336.249 47.859,339.749 93.859,271.749 			"/>
			<polygon opacity="0.25" fill="#CCFFFF" points="99.86,275.249 53.86,343.249 55.734,344.343 101.734,276.343 			"/>
		</g>
	</g>
	<polygon fill="#817368" points="324,770 300,784 324.001,798 	"/>
	<polygon fill="#CCCCCC" points="42,654.5 36,658 84,686 84.001,679 	"/>
	<polygon fill="#B3B3B3" points="42,654.5 36,658 36,560 42,563.5 	"/>
	<polygon fill="#B2BDB2" points="48.001,567 48,621.083 84.002,600.082 84.001,588 	"/>
	<polygon fill="#736357" points="84,631.188 84,627.188 46.036,604.943 46.036,609.177 	"/>
	<g>
		<polygon opacity="0.25" fill="#CCFFFF" points="50.744,652.601 84,604.084 84.002,591.85 48.003,644.35 48.001,651 		"/>
		<polygon opacity="0.25" fill="#CCFFFF" points="81.452,586.513 48.001,635.295 48,639.083 83.326,587.605 		"/>
	</g>
</g>
</svg>
