<?xml version="1.0" encoding="utf-8"?>
<!-- Generator: Adobe Illustrator 13.0.0, SVG Export Plug-In . SVG Version: 6.00 Build 14948)  -->
<!DOCTYPE svg PUBLIC "-//W3C//DTD SVG 1.1//EN" "http://www.w3.org/Graphics/SVG/1.1/DTD/svg11.dtd">
<svg version="1.1" id="Layer_1" xmlns="http://www.w3.org/2000/svg" xmlns:xlink="http://www.w3.org/1999/xlink" x="0px" y="0px"
	 width="67.999px" height="83px" viewBox="0 0 67.999 83" enable-background="new 0 0 67.999 83" xml:space="preserve">
<path opacity="0.2" fill="#4D4D4D" d="M64.21,12.679c-3.389-4.601-8.006-7.545-13.124-9.593C45.941,1.068,40.156,0.008,34.002,0
	C25.791,0.027,18.246,1.851,11.99,5.462c-3.118,1.827-5.957,4.141-8.2,7.217C1.558,15.721-0.016,19.714,0,24
	c0,1.628,0.226,3.194,0.604,4.643l5.42,34.786c0.195,3.446,1.524,6.621,3.294,9.027c2.936,3.975,6.789,6.384,10.95,8.053
	C24.455,82.151,29.088,82.992,34,83c6.553-0.029,12.597-1.461,17.768-4.438c2.574-1.512,4.974-3.448,6.913-6.106
	c1.772-2.406,3.102-5.581,3.296-9.027l5.423-34.797c0.378-1.446,0.602-3.009,0.6-4.632C68.016,19.714,66.443,15.721,64.21,12.679z"
	/>
<path fill="#4D4D4D" d="M60.163,15.615c-2.606-3.558-6.435-6.098-10.909-7.875C44.766,5.974,39.564,5.003,34.001,5
	C26.583,5.014,19.81,6.709,14.51,9.781c-2.645,1.547-4.943,3.459-6.672,5.833C6.116,17.973,4.993,20.89,5.001,24
	c-0.002,1.256,0.185,2.468,0.501,3.602l5.504,35.316c0.089,2.469,1.016,4.768,2.361,6.604c2.149,2.93,5.218,4.935,8.734,6.337
	c3.531,1.388,7.578,2.139,11.899,2.142c5.76-0.015,11.033-1.317,15.247-3.756c2.102-1.231,3.96-2.766,5.385-4.723
	c1.346-1.836,2.271-4.135,2.361-6.604L62.5,27.592C62.815,26.46,63,25.251,63,24C63.008,20.89,61.885,17.973,60.163,15.615z"/>
<path fill="#FFFFFF" d="M51.728,12.803C47.098,10.109,40.867,8.504,34,8.5c-6.864,0.004-13.098,1.61-17.727,4.304
	C11.672,15.48,8.517,19.383,8.5,24c0,0.978,0.154,1.928,0.424,2.835l5.577,35.785c0.07,3.594,2.539,6.579,6.015,8.599
	C24.06,73.281,28.793,74.495,34,74.5c5.207-0.006,9.94-1.22,13.483-3.281c3.477-2.02,5.945-5.005,6.016-8.599l5.576-35.784
	C59.348,25.929,59.5,24.978,59.5,24C59.483,19.383,56.328,15.48,51.728,12.803z"/>
</svg>
