<?xml version="1.0" encoding="utf-8"?>
<!-- Generator: Adobe Illustrator 13.0.0, SVG Export Plug-In . SVG Version: 6.00 Build 14948)  -->
<!DOCTYPE svg PUBLIC "-//W3C//DTD SVG 1.1//EN" "http://www.w3.org/Graphics/SVG/1.1/DTD/svg11.dtd">
<svg version="1.1" id="Layer_1" xmlns="http://www.w3.org/2000/svg" xmlns:xlink="http://www.w3.org/1999/xlink" x="0px" y="0px"
	 width="29px" height="214px" viewBox="0 0 29 214" enable-background="new 0 0 29 214" xml:space="preserve">
<g>
	<g>
		<g>
			<g>
				<g>
					<path fill="#666666" d="M12,207.625v3.75c0,1.45,2.014,2.625,4.5,2.625c2.486,0,4.5-1.175,4.5-2.625v-3.75H12z"/>
					<ellipse fill="#999999" cx="16.5" cy="207.625" rx="4.5" ry="2.625"/>
				</g>
			</g>
		</g>
		<g>
			<g>
				<g>
					<path fill="#808080" d="M14,3.457v203.086c0,0.805,1.119,1.457,2.5,1.457s2.5-0.652,2.5-1.457V3.457H14z"/>
					<ellipse fill="#999999" cx="16.5" cy="3.457" rx="2.5" ry="1.461"/>
				</g>
			</g>
		</g>
	</g>
	<g>
		<path fill="#F2F2F2" d="M27.691,14.2L3.965,0.359C3.555,0.12,3.096,0,2.636,0C2.183,0,1.73,0.117,1.323,0.35
			C0.504,0.82,0,1.692,0,2.636v36.909c0,0.938,0.498,1.805,1.308,2.277l23.727,13.841c0.41,0.239,0.869,0.359,1.328,0.359
			c0.453,0,0.906-0.116,1.313-0.35C28.495,55.203,29,54.331,29,53.386V16.477C29,15.54,28.502,14.672,27.691,14.2z"/>
		<path fill="#ED1C24" d="M27.022,16.477c0-0.234-0.124-0.451-0.327-0.569L2.969,2.067c-0.103-0.06-0.217-0.09-0.333-0.09
			c-0.113,0-0.227,0.029-0.328,0.087C2.104,2.182,1.978,2.4,1.978,2.636v36.909c0,0.234,0.124,0.452,0.327,0.569l23.727,13.841
			c0.104,0.06,0.217,0.09,0.332,0.09c0.113,0,0.227-0.029,0.328-0.087c0.205-0.118,0.331-0.336,0.331-0.572V16.477z M26.363,53.386
			L2.636,39.545V2.636l23.727,13.841V53.386z"/>
	</g>
	<g>
		<path fill="#4D4D4D" d="M11.176,37.792v-0.152c0-1.501-0.862-2.732-1.857-3.794c0.843,0.125,1.704-0.082,1.704-1.602v-0.084
			c0-2.195-1.857-4.165-3.849-5.408l-1.79-1.12v11.817l1.873,1.169C9.555,40.053,11.176,39.885,11.176,37.792z M7.443,28.825
			l0.035,0.022c0.912,0.569,1.519,1.387,1.519,2.417v0.034c0,1.029-0.607,1.173-1.519,0.604l-0.035-0.021V28.825z M7.443,33.669
			l0.051,0.033c0.945,0.59,1.621,1.569,1.621,2.548v0.084c0,0.98-0.675,1.114-1.621,0.523l-0.051-0.032V33.669z"/>
		<path fill="#4D4D4D" d="M14.943,43.571c1.688,1.056,2.936,0.722,2.936-1.759v-8.374l-2.043-1.275v8.574
			c0,1.064-0.371,1.254-0.893,0.928c-0.523-0.327-0.895-0.981-0.895-2.043v-8.577l-2.042-1.276v8.374
			C12.006,40.623,13.254,42.515,14.943,43.571z"/>
		<path fill="#4D4D4D" d="M21.766,44.747v0.035c0,0.726-0.505,0.695-1.097,0.327c-0.556-0.348-1.132-0.943-1.856-1.82v2.144
			c0.591,0.658,1.282,1.292,2.094,1.798c1.619,1.013,2.919,0.593,2.919-1.264v-0.033c0-1.351-0.353-2.298-1.974-5.185
			c-0.98-1.743-1.149-2.051-1.149-2.609v-0.033c0-0.641,0.491-0.707,1.063-0.35c0.541,0.338,0.93,0.751,1.57,1.522v-2.143
			c-0.506-0.57-0.995-0.995-1.822-1.512c-1.638-1.022-2.87-0.594-2.87,1.297v0.033c0,1.435,0.574,2.554,1.976,5.015
			C21.597,43.695,21.766,44.207,21.766,44.747z"/>
	</g>
	<g>
		<path fill="#4D4D4D" d="M20.343,18.976c-0.173-0.976-0.729-1.652-1.569-2.493c-0.819-0.827-2.791-2.398-4.248-3.269
			c-1.461-0.848-3.433-1.601-4.258-1.743c-0.833-0.143-1.389-0.123-1.56,0.649L8.08,16.572v6.65l1.081,0.636v1.037
			c-0.004,1.272,1.856,2.369,1.857,1.094v-1.038l3.434,2.023l0.008,0.005l3.574,2.105v1.037c-0.002,1.274,1.858,2.37,1.856,1.094
			v-1.037l1.081,0.636v-6.65L20.343,18.976z M11.871,12.869l2.588,1.525l2.72,1.602c0.518,0.304,0.518,1.088,0,0.784l-2.729-1.607
			l-2.58-1.52C11.35,13.344,11.35,12.561,11.871,12.869z M10.084,22.319c-0.49-0.291-0.89-0.926-0.889-1.421
			c-0.001-0.49,0.399-0.654,0.889-0.365c0.495,0.292,0.895,0.926,0.898,1.418C10.979,22.445,10.579,22.609,10.084,22.319z
			 M14.459,20.835l-4.732-2.788c-0.462-0.268-0.56-0.657-0.514-0.964l0.488-3.217c0.067-0.382,0.211-0.577,0.767-0.254l3.983,2.347
			l4.131,2.433c0.553,0.33,0.697,0.694,0.768,1.158l0.488,3.791c0.042,0.359-0.055,0.635-0.515,0.36L14.459,20.835z M18.957,27.546
			c-0.49-0.291-0.889-0.926-0.889-1.421c0-0.49,0.398-0.654,0.889-0.365c0.496,0.292,0.896,0.927,0.898,1.417
			C19.854,27.672,19.453,27.836,18.957,27.546z"/>
	</g>
</g>
</svg>
