<?xml version="1.0" encoding="utf-8"?>
<!-- Generator: Adobe Illustrator 13.0.0, SVG Export Plug-In . SVG Version: 6.00 Build 14948)  -->
<!DOCTYPE svg PUBLIC "-//W3C//DTD SVG 1.1//EN" "http://www.w3.org/Graphics/SVG/1.1/DTD/svg11.dtd">
<svg version="1.1" id="Layer_1" xmlns="http://www.w3.org/2000/svg" xmlns:xlink="http://www.w3.org/1999/xlink" x="0px" y="0px"
	 width="726px" height="427px" viewBox="0 0 726 427" enable-background="new 0 0 726 427" xml:space="preserve">
<g>
	<g>
		<polygon fill="none" points="726,423.5 720,427 0,7 6,3.5 		"/>
	</g>
	<g>
		<polygon fill="#FEE7C4" points="606,353.5 612,350 672,385 666,388.5 		"/>
	</g>
	<g>
		<polygon fill="#FEE7C4" points="486,283.5 492,280 552,315 546,318.5 		"/>
	</g>
	<g>
		<polygon fill="#FEE7C4" points="366,213.5 372,210 432,245 426,248.5 		"/>
	</g>
	<g>
		<polygon fill="#FEE7C4" points="246,143.5 252,140 312,175 306,178.5 		"/>
	</g>
	<g>
		<polygon fill="#FEE7C4" points="126,73.5 132,70 192,105 186,108.5 		"/>
	</g>
	<g>
		<polygon fill="#FEE7C4" points="6,3.5 12,0 72,35 66,38.5 		"/>
	</g>
</g>
</svg>
