<?xml version="1.0" encoding="utf-8"?>
<!-- Generator: Adobe Illustrator 13.0.0, SVG Export Plug-In . SVG Version: 6.00 Build 14948)  -->
<!DOCTYPE svg PUBLIC "-//W3C//DTD SVG 1.1//EN" "http://www.w3.org/Graphics/SVG/1.1/DTD/svg11.dtd">
<svg version="1.1" id="Layer_1" xmlns="http://www.w3.org/2000/svg" xmlns:xlink="http://www.w3.org/1999/xlink" x="0px" y="0px"
	 width="307.998px" height="195.005px" viewBox="0 0 307.998 195.005" enable-background="new 0 0 307.998 195.005"
	 xml:space="preserve">
<g opacity="0.2">
	<path fill="#4D4D4D" d="M234.705,40.083c-5.768-10.157-15.044-18.607-26.493-25.354C196.74,7.994,182.988,2.973,167.813,0.167
		c-2.355-0.434-4.766-0.017-6.837,1.186c-68.1,39.537-87.978,51.507-155.999,91c-3.09,1.794-4.976,5.065-4.978,8.637
		c-0.004,3.572,1.873,6.847,4.959,8.649l60.001,34.999c1.559,0.91,3.298,1.365,5.037,1.365c1.733,0,3.466-0.451,5.022-1.354
		c68.1-39.534,87.978-51.509,155.999-91C235.741,50.907,237.392,44.839,234.705,40.083z"/>
	<path fill="#4D4D4D" d="M302.923,120.297l-14.14-8.002c0.206-1.04,0.315-2.107,0.309-3.176c0.004-2.841-0.741-5.557-1.883-7.898
		c-1.734-3.531-4.235-6.369-7.269-9.027c-3.047-2.649-6.699-5.121-11.094-7.595l-0.22-0.124c-11.237-6.308-21.758-9.485-31.49-9.506
		c-6.576-0.009-12.804,1.529-18.081,4.614l-7.295,4.248c-0.828,0.482-1.563,1.082-2.207,1.759c-0.909,0.226-1.798,0.571-2.634,1.059
		l-8.104,4.716c-2.147,1.25-3.727,3.234-4.478,5.55c-2.392-0.49-4.899-0.091-7.036,1.154l-8.101,4.716
		c-0.807,0.469-1.527,1.047-2.158,1.7c-0.878,0.226-1.733,0.566-2.538,1.035l-8.1,4.714c-1.247,0.725-2.298,1.695-3.108,2.83
		c-1.386,0.145-2.747,0.577-3.988,1.301l-8.098,4.714c-2.45,1.425-4.126,3.798-4.717,6.5c-5.39,0.683-10.284,2.396-14.441,4.819
		l-7.085,4.123c-3.089,1.795-4.972,5.074-4.97,8.646c0,3.572,1.887,6.847,4.976,8.644l72,41.836
		c1.559,0.906,3.291,1.359,5.024,1.359c1.732,0,3.466-0.453,5.025-1.359l7.516-4.368c2.886-1.689,5.511-3.757,7.612-6.582
		c1.657-2.2,2.896-5.007,3.335-7.988c2.243,0.362,4.44,0.556,6.592,0.565c0.005,0,0.011,0,0.015,0
		c5.044,0.001,9.927-1.063,14.184-3.529c2.104-1.231,4.179-2.845,5.881-5.213c0.837-1.143,1.534-2.501,2.027-3.958
		c0.868,0.24,1.759,0.366,2.651,0.366c1.737,0,3.474-0.453,5.029-1.357l7.921-4.605c2.309-1.345,3.953-3.538,4.629-6.053
		c2.523,0.661,5.234,0.314,7.557-1.036l7.919-4.608c0.84-0.489,1.583-1.1,2.233-1.789c0.92-0.224,1.815-0.567,2.654-1.054
		l8.243-4.79c3.088-1.795,4.998-5.13,4.977-8.703C307.978,125.37,306.031,122.057,302.923,120.297z"/>
</g>
<g>
	<path fill="#4D4D4D" d="M230.352,42.541c-10.439-18.229-34.183-31.98-63.446-37.457c-1.177-0.218-2.383-0.008-3.418,0.593
		c-68.08,39.524-87.959,51.495-156,91c-1.544,0.896-2.486,2.532-2.488,4.318c-0.002,1.785,0.938,3.423,2.48,4.323l60.001,35
		c0.78,0.455,1.649,0.683,2.518,0.683c0.866,0,1.732-0.226,2.51-0.677c68.08-39.523,87.959-51.496,156-90.999
		C230.87,47.953,231.693,44.919,230.352,42.541z"/>
	<path fill="#4D4D4D" d="M300.46,124.649l-17.75-10.046c0.874-1.648,1.39-3.55,1.381-5.485c-0.021-4.027-2.001-7.605-4.959-10.778
		c-3.002-3.202-7.171-6.246-12.735-9.381l-0.213-0.12c-10.7-6.014-20.444-8.858-29.048-8.869c-5.82-0.004-11.125,1.342-15.562,3.933
		l-7.297,4.247c-0.877,0.511-1.553,1.272-1.979,2.158c-0.982-0.068-1.979,0.145-2.863,0.661l-8.1,4.717
		c-1.388,0.807-2.299,2.224-2.46,3.82c-0.159,1.597,0.451,3.167,1.65,4.234l1.189,1.058l-7.674-2.788
		c-1.395-0.506-2.94-0.367-4.222,0.379l-8.101,4.717c-0.851,0.495-1.511,1.224-1.939,2.073c-0.949-0.047-1.908,0.167-2.76,0.663
		l-8.099,4.713c-1.425,0.828-2.338,2.298-2.468,3.92c-1.475-0.686-3.208-0.617-4.627,0.211l-8.099,4.713
		c-1.543,0.898-2.487,2.546-2.483,4.332c0.001,0.903,0.246,1.768,0.687,2.519c-0.087,0-0.175-0.004-0.261-0.004
		c-6.557,0.002-12.412,1.74-17.097,4.472l-7.087,4.125c-1.544,0.897-2.486,2.536-2.486,4.323c0.002,1.786,0.944,3.423,2.488,4.32
		l72,41.837c0.779,0.453,1.646,0.68,2.512,0.68c0.867,0,1.734-0.227,2.514-0.68l7.516-4.368c2.455-1.433,4.536-3.12,6.104-5.23
		c1.565-2.092,2.553-4.711,2.54-7.413c-0.001-1.394-0.255-2.741-0.695-4.033c4.327,1.327,8.367,1.985,12.104,1.995
		c0.005,0,0.01,0,0.015,0c4.352,0,8.333-0.917,11.674-2.854c1.653-0.967,3.155-2.169,4.32-3.794c1.169-1.605,1.903-3.7,1.886-5.799
		c-0.016-1.194-0.233-2.314-0.582-3.388l4.966,2.839c0.769,0.44,1.624,0.66,2.48,0.66c0.868,0,1.737-0.227,2.515-0.679l7.92-4.606
		c1.543-0.898,2.494-2.556,2.485-4.343c-0.006-1.787-0.97-3.438-2.522-4.322l-9.215-5.256c0.497-0.533,0.873-1.17,1.1-1.866
		l15.351,8.726c1.553,0.884,3.441,0.873,4.986-0.025l7.921-4.608c0.887-0.517,1.57-1.292,1.996-2.194
		c0.127,0.01,0.253,0.024,0.38,0.024c0.87,0,1.74-0.225,2.514-0.675l8.243-4.789c1.545-0.897,2.499-2.566,2.488-4.352
		C302.988,127.184,302.015,125.528,300.46,124.649z"/>
</g>
<g>
	<path fill="#FFFFFF" d="M227.305,44.263c-9.568-16.866-32.476-30.444-61.034-35.736c-0.354-0.066-0.716-0.004-1.026,0.176
		C97.178,48.22,77.3,60.191,9.245,99.702c-0.462,0.27-0.745,0.761-0.747,1.296c0,0.538,0.282,1.027,0.745,1.297l60.001,35
		c0.233,0.137,0.493,0.205,0.754,0.205c0.26,0,0.52-0.067,0.754-0.203c68.066-39.516,87.945-51.488,155.999-91
		C227.462,45.885,227.709,44.98,227.305,44.263z"/>
	<path fill="#FFFFFF" d="M205.774,158.554l-0.748,1.299l0.748-1.301l-0.929-0.534c-7.281-4.21-13.759-5.503-19.47-5.496
		c-1.05,0-2.074,0.042-3.073,0.116c0.002-0.073,0.003-0.146,0.002-0.221c-0.002-3.897-2.649-8.262-10.463-12.742l-0.515-0.299
		c-6.922-3.998-13.637-5.632-19.658-5.63c-5.935,0-11.188,1.575-15.333,3.994l-7.092,4.127c-0.463,0.269-0.744,0.761-0.744,1.297
		s0.283,1.026,0.746,1.297l71.999,41.837c0.233,0.135,0.491,0.203,0.75,0.203c0.261,0,0.521-0.069,0.757-0.205l7.519-4.368
		c4.274-2.471,6.893-5.769,6.9-9.617C217.104,167.414,213.149,162.832,205.774,158.554z M168.214,153.932l-15.094-8.748
		c0.637-0.135,1.313-0.205,2.035-0.205c2.438-0.003,5.416,0.818,8.871,2.821l0.202,0.116c3.701,2.083,4.956,4.051,4.835,4.724
		C169.065,152.972,168.912,153.396,168.214,153.932z M168.396,155.616L168.396,155.616L168.396,155.616L168.396,155.616z
		 M198.477,171.472l-15.864-9.194c0.73-0.152,1.523-0.232,2.369-0.232c2.806-0.002,6.159,0.89,9.514,2.834l0.527,0.302
		c3.427,1.943,4.609,3.863,4.521,4.68C199.541,170.319,199.326,170.848,198.477,171.472z"/>
	<path fill="#FFFFFF" d="M231.534,142.203L180.28,112.86c-0.466-0.267-1.037-0.265-1.499,0.006l-8.1,4.713
		c-0.464,0.271-0.749,0.766-0.746,1.302c0.002,0.536,0.289,1.029,0.754,1.298l52.435,30.091c2.25,1.289,3.807,2.399,4.726,3.263
		c0.462,0.428,0.757,0.794,0.909,1.048c0.094,0.151,0.127,0.245,0.142,0.297c-0.037,0.033-0.102,0.086-0.204,0.146
		c-0.335,0.195-0.86,0.352-1.655,0.354c-1.869,0.017-5.104-0.963-9.575-3.547l-52.377-30.123c-0.466-0.268-1.039-0.266-1.503,0.005
		l-8.098,4.713c-0.464,0.271-0.749,0.765-0.746,1.299c0.002,0.537,0.286,1.029,0.75,1.298l51.073,29.444
		c9.96,5.734,18.582,8.302,25.511,8.309c3.874,0,7.231-0.813,9.934-2.383c2.655-1.514,4.471-3.78,4.462-6.563
		C246.312,152.842,241.499,147.993,231.534,142.203z"/>
	<path fill="#FFFFFF" d="M285.601,135.33l-72.91-41.346c-0.462-0.261-1.036-0.259-1.494,0.008l-8.101,4.716
		c-0.418,0.243-0.689,0.667-0.738,1.147c-0.048,0.479,0.134,0.95,0.495,1.27l14.826,13.196l-24.834-9.022
		c-0.418-0.152-0.882-0.11-1.267,0.113l-8.101,4.717c-0.464,0.27-0.748,0.767-0.744,1.302c0.002,0.534,0.288,1.029,0.755,1.297
		l72.605,41.511c0.229,0.132,0.486,0.198,0.743,0.198c0.26,0,0.521-0.068,0.755-0.204l7.921-4.606
		c0.462-0.27,0.748-0.767,0.744-1.302c-0.002-0.536-0.29-1.033-0.757-1.297l-28.736-16.395l16.953,6.175
		c0.415,0.152,0.879,0.109,1.264-0.112l0.136-0.08c0.415-0.24,0.691-0.666,0.739-1.145c0.048-0.48-0.136-0.954-0.495-1.272
		l-10.936-9.714l31.775,18.062c0.464,0.265,1.032,0.261,1.496-0.007l7.919-4.61c0.464-0.27,0.75-0.769,0.746-1.304
		C286.357,136.09,286.066,135.593,285.601,135.33z"/>
	<path fill="#FFFFFF" d="M298.736,127.694l-21.213-12.006c1.914-1.854,3.071-4.074,3.068-6.569
		c-0.121-5.609-5.26-11.064-15.91-17.111l-0.207-0.115c-10.325-5.806-19.525-8.419-27.338-8.423c-5.294,0-9.951,1.211-13.801,3.457
		l-7.298,4.25c-0.465,0.27-0.749,0.77-0.747,1.305c0.004,0.536,0.295,1.032,0.762,1.297l72.963,41.316
		c0.228,0.13,0.481,0.194,0.736,0.194c0.261,0,0.522-0.068,0.755-0.202l8.244-4.79c0.462-0.27,0.751-0.77,0.747-1.305
		C299.494,128.456,299.203,127.958,298.736,127.694z M240.326,94.673c0.289-0.027,0.593-0.041,0.913-0.041
		c3.166-0.015,7.856,1.421,13.979,4.881l0.204,0.117c2.936,1.653,4.968,3.147,6.193,4.39c1.247,1.247,1.589,2.185,1.571,2.633
		c-0.008,0.253-0.068,0.489-0.298,0.768L240.326,94.673z"/>
</g>
</svg>
