<?xml version="1.0" encoding="utf-8"?>
<!-- Generator: Adobe Illustrator 13.0.0, SVG Export Plug-In . SVG Version: 6.00 Build 14948)  -->
<!DOCTYPE svg PUBLIC "-//W3C//DTD SVG 1.1//EN" "http://www.w3.org/Graphics/SVG/1.1/DTD/svg11.dtd">
<svg version="1.1" id="Layer_1" xmlns="http://www.w3.org/2000/svg" xmlns:xlink="http://www.w3.org/1999/xlink" x="0px" y="0px"
	 width="307.995px" height="195.008px" viewBox="0 0 307.995 195.008" enable-background="new 0 0 307.995 195.008"
	 xml:space="preserve">
<g opacity="0.2">
	<path fill="#4D4D4D" d="M306.707,89.087c-5.769-10.156-15.045-18.606-26.492-25.354c-11.474-6.734-25.226-11.756-40.4-14.563
		c-2.356-0.434-4.766-0.017-6.836,1.186c-68.1,39.537-87.979,51.506-156.001,91c-3.09,1.795-4.975,5.065-4.977,8.639
		c-0.004,3.572,1.875,6.849,4.96,8.647l59.999,35c1.561,0.91,3.3,1.365,5.04,1.365c1.732,0,3.464-0.451,5.02-1.354
		c68.1-39.535,87.979-51.509,156.001-91C307.742,99.911,309.393,93.843,306.707,89.087z"/>
	<path fill="#4D4D4D" d="M96.236,111.149c0.828-0.482,1.562-1.081,2.206-1.759c0.909-0.226,1.797-0.572,2.634-1.059l8.102-4.717
		c2.148-1.25,3.728-3.232,4.479-5.546c2.391,0.49,4.898,0.09,7.036-1.153l8.102-4.715c0.806-0.469,1.525-1.046,2.156-1.699
		c0.878-0.226,1.734-0.567,2.539-1.036l8.101-4.712c1.247-0.725,2.298-1.696,3.108-2.83c1.384-0.145,2.744-0.578,3.985-1.3
		l8.099-4.712c2.451-1.425,4.129-3.8,4.721-6.502c5.387-0.684,10.276-2.396,14.428-4.808l7.097-4.129
		c3.086-1.796,4.974-5.074,4.971-8.645c-0.002-3.574-1.889-6.852-4.977-8.646L111.021,1.358c-3.117-1.811-6.93-1.811-10.047,0
		l-7.516,4.368c-2.882,1.687-5.508,3.753-7.609,6.577c-1.66,2.2-2.9,5.004-3.34,7.987c-2.242-0.363-4.439-0.556-6.59-0.566
		c-5.045-0.002-9.939,1.058-14.21,3.538c-2.084,1.22-4.159,2.832-5.865,5.2c-0.837,1.142-1.537,2.501-2.032,3.961
		c-2.557-0.705-5.324-0.379-7.679,0.99l-7.918,4.606c-2.311,1.344-3.955,3.537-4.631,6.052c-2.523-0.663-5.232-0.317-7.553,1.035
		l-7.92,4.607c-0.84,0.489-1.583,1.099-2.233,1.789c-0.92,0.223-1.816,0.565-2.655,1.052l-8.243,4.789
		c-3.09,1.795-4.999,5.13-4.978,8.705c0.021,3.572,1.966,6.887,5.075,8.646l14.137,8c-0.206,1.038-0.314,2.103-0.308,3.17
		c-0.004,2.841,0.742,5.555,1.884,7.897c1.731,3.531,4.234,6.368,7.266,9.027c3.049,2.648,6.702,5.118,11.096,7.594l0.239,0.134
		c11.22,6.295,21.741,9.47,31.47,9.49c0.021,0,0.043,0,0.065,0c6.554,0,12.75-1.542,18.004-4.603L96.236,111.149z"/>
</g>
<g>
	<path fill="#4D4D4D" d="M302.353,91.546c-10.439-18.231-34.183-31.982-63.445-37.457c-1.179-0.218-2.383-0.011-3.419,0.592
		c-68.08,39.525-87.958,51.495-155.999,90.999c-1.545,0.897-2.489,2.532-2.489,4.318c-0.002,1.785,0.938,3.425,2.481,4.325
		l60,34.999c0.779,0.455,1.649,0.683,2.52,0.683c0.866,0,1.731-0.226,2.509-0.677c68.08-39.524,87.958-51.497,156-91
		C302.87,96.958,303.697,93.924,302.353,91.546z"/>
	<path fill="#4D4D4D" d="M93.722,106.828c0.875-0.51,1.552-1.271,1.979-2.158c0.115,0.009,0.229,0.022,0.344,0.022
		c0.868,0,1.736-0.228,2.518-0.683l8.101-4.716c1.387-0.806,2.3-2.224,2.459-3.821c0.16-1.597-0.453-3.168-1.65-4.234l-1.183-1.053
		l7.668,2.786c1.393,0.506,2.94,0.369,4.222-0.378l8.101-4.714c0.85-0.494,1.511-1.223,1.939-2.073
		c0.081,0.004,0.162,0.016,0.243,0.016c0.869,0,1.738-0.226,2.515-0.678l8.101-4.713c1.42-0.828,2.337-2.294,2.468-3.917
		c1.474,0.684,3.206,0.613,4.625-0.212l8.099-4.711c1.544-0.899,2.49-2.546,2.486-4.331c-0.002-0.903-0.248-1.769-0.688-2.521
		c0.087,0.001,0.175,0.004,0.261,0.004c6.557-0.002,12.409-1.741,17.093-4.464l7.093-4.128c1.543-0.897,2.487-2.536,2.485-4.322
		c0-1.787-0.944-3.425-2.488-4.322L108.511,5.681c-1.56-0.904-3.466-0.906-5.025,0.002l-7.516,4.368
		c-2.453,1.43-4.535,3.115-6.103,5.226c-1.566,2.09-2.556,4.71-2.542,7.413c0.001,1.393,0.254,2.739,0.693,4.029
		c-4.326-1.326-8.365-1.984-12.1-1.996c-4.358,0-8.348,0.916-11.695,2.861c-1.646,0.96-3.146,2.161-4.312,3.786
		c-1.168,1.604-1.904,3.699-1.888,5.799c0.016,1.193,0.232,2.313,0.58,3.385l-4.963-2.837c-1.551-0.887-3.451-0.878-4.994,0.019
		l-7.919,4.607c-1.545,0.897-2.496,2.558-2.488,4.343c0.008,1.786,0.971,3.436,2.523,4.323l9.214,5.255
		c-0.496,0.533-0.871,1.168-1.096,1.863l-15.353-8.725c-1.554-0.882-3.44-0.872-4.985,0.025l-7.919,4.609
		c-0.889,0.516-1.572,1.291-1.998,2.192c-0.995-0.075-2.006,0.136-2.894,0.651L7.49,61.666c-1.545,0.896-2.501,2.565-2.491,4.351
		c0.01,1.786,0.984,3.444,2.538,4.324l17.746,10.042c-0.873,1.647-1.388,3.546-1.379,5.481c0.021,4.028,2,7.602,4.958,10.774
		c3.001,3.203,7.173,6.246,12.737,9.383l0.223,0.124c10.693,6.005,20.436,8.848,29.036,8.86c0.004,0,0.009,0,0.014,0
		c5.816,0,11.114-1.348,15.546-3.927L93.722,106.828z M109.279,21.893l0.067,0.116v0L109.279,21.893L109.279,21.893z"/>
</g>
<g>
	<path fill="#FFFFFF" d="M299.305,93.268c-9.568-16.867-32.476-30.444-61.034-35.738c-0.354-0.065-0.714-0.002-1.025,0.178
		c-68.066,39.519-87.944,51.489-155.998,91.001c-0.464,0.268-0.747,0.759-0.747,1.295c-0.002,0.535,0.281,1.025,0.743,1.297
		l60,34.999c0.234,0.137,0.495,0.204,0.756,0.204c0.26,0,0.52-0.067,0.752-0.202c68.066-39.517,87.946-51.488,156-90.999
		C299.464,94.889,299.709,93.985,299.305,93.268z"/>
	<path fill="#FFFFFF" d="M102.222,36.445l0.75-1.299l0,0l-0.749,1.299l0.928,0.534c7.279,4.209,13.757,5.5,19.469,5.496
		c1.05,0,2.073-0.043,3.071-0.118c-0.002,0.073-0.003,0.147-0.002,0.221c0.002,3.894,2.648,8.257,10.465,12.74l0.514,0.299
		c6.923,3.994,13.637,5.627,19.659,5.625c5.931,0,11.183-1.578,15.332-3.99l7.094-4.126c0.462-0.27,0.744-0.761,0.744-1.297
		c0-0.536-0.282-1.027-0.746-1.297L106.753,8.708c-0.468-0.272-1.04-0.272-1.508,0l-7.517,4.368
		c-4.275,2.468-6.894,5.764-6.904,9.614C90.893,27.582,94.846,32.164,102.222,36.445z M109.279,21.893l0.068,0.116l0,0
		L109.279,21.893L109.279,21.893z M108.452,25.14c0.003-0.463,0.215-0.991,1.066-1.612l15.865,9.192
		c-0.73,0.152-1.523,0.232-2.368,0.232c-2.809,0.002-6.164-0.891-9.513-2.832l-0.528-0.301
		C109.547,27.875,108.363,25.955,108.452,25.14z M138.931,42.355c-0.001-0.335,0.15-0.757,0.849-1.29l15.091,8.743
		c-0.635,0.133-1.31,0.203-2.03,0.204c-2.439,0.002-5.419-0.821-8.872-2.817l-0.204-0.12
		C140.067,44.995,138.812,43.027,138.931,42.355z"/>
	<path fill="#FFFFFF" d="M76.464,52.79l51.252,29.333c0.231,0.132,0.488,0.198,0.745,0.198c0.261,0,0.521-0.068,0.755-0.203
		l8.099-4.713c0.464-0.269,0.748-0.765,0.746-1.301s-0.288-1.03-0.752-1.297L84.873,44.726c-2.251-1.291-3.807-2.399-4.728-3.262
		c-0.46-0.43-0.757-0.795-0.909-1.048c-0.095-0.152-0.128-0.246-0.142-0.297c0.036-0.032,0.098-0.082,0.197-0.138
		c0.343-0.202,0.87-0.358,1.663-0.36c1.869-0.017,5.102,0.96,9.575,3.548l52.377,30.113c0.464,0.267,1.04,0.265,1.502-0.004
		l8.099-4.711c0.462-0.269,0.749-0.762,0.746-1.299c0-0.537-0.286-1.03-0.75-1.297l-51.074-29.436
		c-9.959-5.735-18.583-8.303-25.512-8.309c-3.873,0-7.231,0.812-9.935,2.385c-2.652,1.511-4.471,3.776-4.463,6.562
		C61.684,42.152,66.496,46.999,76.464,52.79z"/>
	<path fill="#FFFFFF" d="M22.397,59.66l72.909,41.334c0.23,0.131,0.484,0.196,0.739,0.196c0.261,0,0.521-0.068,0.756-0.205
		l8.101-4.715c0.416-0.243,0.689-0.667,0.738-1.146c0.047-0.479-0.136-0.95-0.496-1.271L90.319,80.66l24.834,9.022
		c0.417,0.15,0.882,0.109,1.267-0.115l8.099-4.713c0.462-0.27,0.749-0.765,0.747-1.302c-0.002-0.535-0.29-1.03-0.757-1.295
		l-72.604-41.5c-0.465-0.267-1.035-0.263-1.498,0.006l-7.92,4.604c-0.465,0.27-0.749,0.767-0.747,1.304
		c0.002,0.535,0.292,1.03,0.757,1.295l28.741,16.389l-16.955-6.172c-0.419-0.152-0.88-0.113-1.265,0.111l-0.136,0.078
		c-0.415,0.24-0.691,0.668-0.74,1.147C52.095,60,52.28,60.473,52.64,60.792l10.935,9.711L31.798,52.444
		c-0.467-0.264-1.033-0.261-1.495,0.008l-7.92,4.607c-0.462,0.27-0.749,0.769-0.744,1.306C21.641,58.899,21.931,59.397,22.397,59.66
		z"/>
	<path fill="#FFFFFF" d="M91.962,103.802c0.461-0.27,0.748-0.769,0.746-1.306c-0.004-0.535-0.295-1.031-0.762-1.295L18.983,59.896
		c-0.463-0.262-1.034-0.26-1.493,0.008l-8.243,4.788c-0.465,0.27-0.751,0.77-0.748,1.305c0.004,0.536,0.294,1.034,0.762,1.297
		l21.213,12.002c-1.915,1.851-3.075,4.071-3.071,6.565c0.122,5.605,5.259,11.06,15.914,17.107l0.21,0.117
		c10.323,5.803,19.523,8.412,27.333,8.416c0.004,0,0.009,0,0.013,0c5.289,0,9.94-1.215,13.788-3.451L91.962,103.802z
		 M67.665,100.304c-0.288,0.026-0.59,0.04-0.909,0.04c-3.167,0.015-7.86-1.42-13.978-4.879l-0.204-0.113
		c-2.937-1.654-4.969-3.148-6.196-4.39c-1.246-1.248-1.588-2.185-1.569-2.634c0.008-0.255,0.067-0.491,0.296-0.766L67.665,100.304z"
		/>
</g>
</svg>
