<?xml version="1.0" encoding="utf-8"?>
<!-- Generator: Adobe Illustrator 13.0.0, SVG Export Plug-In . SVG Version: 6.00 Build 14948)  -->
<!DOCTYPE svg PUBLIC "-//W3C//DTD SVG 1.1//EN" "http://www.w3.org/Graphics/SVG/1.1/DTD/svg11.dtd">
<svg version="1.1" id="Layer_1" xmlns="http://www.w3.org/2000/svg" xmlns:xlink="http://www.w3.org/1999/xlink" x="0px" y="0px"
	 width="660px" height="847px" viewBox="0 0 660 847" enable-background="new 0 0 660 847" xml:space="preserve">
<g>
	<polygon fill="#CCCCCC" points="360,847 660,672 660,210 0,175 	"/>
	<polygon fill="#E6E6E6" points="360,847 0,637 0,175 360,385 	"/>
	<polygon fill="#F2F2F2" points="360,385 0,175 300,0 660,210 	"/>
	<polygon fill="#808080" points="360,371 24,175 300,14 636,210 	"/>
	<g>
		<polygon fill="#CCCCCC" points="324,812 324.001,798 144.001,693 132,700 		"/>
		<polygon fill="#B3B3B3" points="132,602 144.001,609 144.001,693 132,700 		"/>
	</g>
	<g>
		<polygon fill="#736357" points="84,686 84.001,672 48.001,651 36,658 		"/>
		<polygon fill="#736357" points="36,560 48.001,567 48.001,651 36,658 		"/>
	</g>
	<polygon fill="#B8AA9E" points="144,609 324.001,714 324.001,798 144,693 	"/>
	<g>
		<polygon fill="#AD9E91" points="151,691 145.791,694.043 157.791,701.043 163,698 		"/>
		<polygon fill="#AD9E91" points="175,705 169.791,708.043 181.791,715.043 187,712 		"/>
		<polyline fill="#AD9E91" points="151,691 163,684 151,677 		"/>
		<polygon fill="#AD9E91" points="175,691 163,698 175,705 187,698 		"/>
		<polygon fill="#AD9E91" points="199,719 193.791,722.043 205.791,729.043 211,726 		"/>
		<polygon fill="#AD9E91" points="199,705 187,712 199,719 211,712 		"/>
		<polygon fill="#AD9E91" points="223,733 217.791,736.043 229.791,743.043 235,740 		"/>
		<polygon fill="#AD9E91" points="223,719 211,726 223,733 235,726 		"/>
		<polygon fill="#AD9E91" points="247,747 241.791,750.043 253.791,757.043 259,754 		"/>
		<polygon fill="#AD9E91" points="247,733 235,740 247,747 259,740 		"/>
		<polygon fill="#AD9E91" points="199,691 187,698 199,705 211,698 		"/>
		<polygon fill="#AD9E91" points="223,691 211,698 223,705 235,698 		"/>
		<polygon fill="#AD9E91" points="223,705 211,712 223,719 235,712 		"/>
		<polygon fill="#AD9E91" points="247,705 235,712 247,719 259,712 		"/>
		<polygon fill="#AD9E91" points="247,719 235,726 247,733 259,726 		"/>
		<polygon fill="#AD9E91" points="247,691 235,698 247,705 259,698 		"/>
		<polygon fill="#AD9E91" points="271,691 259,698 271,705 283,698 		"/>
		<polygon fill="#AD9E91" points="175,677 163,684 175,691 187,684 		"/>
		<polygon fill="#AD9E91" points="199,677 187,684 199,691 211,684 		"/>
		<polygon fill="#AD9E91" points="223,677 211,684 223,691 235,684 		"/>
		<polygon fill="#AD9E91" points="247,677 235,684 247,691 259,684 		"/>
		<polygon fill="#AD9E91" points="265.785,680.041 259,684 271,691 277.785,687.041 		"/>
		<polyline fill="#AD9E91" points="151,677 163,670 151,663 		"/>
		<polygon fill="#AD9E91" points="175,663 163,670 175,677 187,670 		"/>
		<polygon fill="#AD9E91" points="199,663 187,670 199,677 211,670 		"/>
		<polygon fill="#AD9E91" points="223,663 211,670 223,677 235,670 		"/>
		<polygon fill="#AD9E91" points="241.785,666.041 235,670 247,677 253.785,673.041 		"/>
		<polyline fill="#AD9E91" points="151,663 163,656 151,649 		"/>
		<polygon fill="#AD9E91" points="175,649 163,656 175,663 187,656 		"/>
		<polygon fill="#AD9E91" points="199,649 187,656 199,663 211,656 		"/>
		<polygon fill="#AD9E91" points="217.785,652.041 211,656 223,663 229.785,659.041 		"/>
		<polyline fill="#AD9E91" points="151,649 163,642 151,635 		"/>
		<polygon fill="#AD9E91" points="175,635 163,642 175,649 187,642 		"/>
		<polygon fill="#AD9E91" points="193.785,638.041 187,642 199,649 205.785,645.041 		"/>
		<polygon fill="#AD9E91" points="143.998,630.916 151,635 163,628 151,621 144.001,625.083 		"/>
		<polygon fill="#AD9E91" points="143.998,644.916 151,649 163,642 151,635 144.001,639.083 		"/>
		<polygon fill="#AD9E91" points="143.998,658.916 151,663 163,656 151,649 144.001,653.083 		"/>
		<polygon fill="#AD9E91" points="143.998,672.916 151,677 163,670 151,663 144.001,667.083 		"/>
		<polygon fill="#AD9E91" points="143.998,686.916 151,691 163,684 151,677 144.001,681.083 		"/>
		<polygon fill="#AD9E91" points="169.785,624.041 163,628 175,635 181.785,631.041 		"/>
		<polygon fill="#AD9E91" points="143.994,616.913 151,621 157.785,617.041 145.785,610.041 143.994,611.086 		"/>
	</g>
	<g>
		<polygon fill="#B8AA9E" points="48.001,567 84.001,588 84.001,672 48.001,651 		"/>
		<g>
			<polygon fill="#AD9E91" points="55,649 49.791,652.043 61.791,659.043 67,656 			"/>
			<polygon fill="#AD9E91" points="48.003,644.918 55,649 67,642 55,635 48,639.083 			"/>
			<polygon fill="#AD9E91" points="48.003,630.918 55,635 67,628 55,621 48,625.083 			"/>
			<polygon fill="#AD9E91" points="48.003,616.918 55,621 67,614 55,607 48,611.083 			"/>
			<polygon fill="#AD9E91" points="84,651.916 79,649 67,656 79,663 84,660.084 			"/>
			<polygon fill="#AD9E91" points="84,637.916 79,635 67,642 79,649 84,646.084 			"/>
			<polygon fill="#AD9E91" points="84,623.916 79,621 67,628 79,635 84,632.084 			"/>
			<polygon fill="#AD9E91" points="84,609.916 79,607 67,614 79,621 84,618.084 			"/>
			<polygon fill="#AD9E91" points="84,595.916 79,593 67,600 79,607 84,604.084 			"/>
		</g>
	</g>
	<g>
		<polygon fill="#AF8963" points="252,714 252,756 300,784 318.952,764.952 299.355,724.161 		"/>
		<polygon fill="#A67C52" points="300,784 324,770 324,728 300,742 		"/>
		<polygon fill="#B89675" points="288,693 252,714 300,742 324,728 324,714 		"/>
	</g>
	<polygon fill="#8C6239" points="156,462 216,497 216,581 156,546 	"/>
	<polygon fill="#8C6239" points="264,525 324,560 324,644 264,609 	"/>
	<g>
		<path fill="#829382" d="M179.954,475.973C168.64,485.426,162,496.923,162,509.328c0,22.549,21.915,42.104,54,51.816V497
			L179.954,475.973z"/>
		<path fill="#829382" d="M264,567.656c20.507-0.234,39.494-4.068,55.19-10.463L264,525V567.656z"/>
	</g>
	<polygon fill="#754C24" points="194,508 194,524.5 188,528 188,511.5 	"/>
	<polygon fill="#917050" points="182,508 182,524.5 188,528 188,511.5 	"/>
	<polygon fill="#917050" points="213.533,526.574 213.533,543.074 219.533,546.574 219.533,530.074 	"/>
	<polygon fill="#835E3A" points="192,497 180,504 216,525 216,511 	"/>
	<polygon fill="#A58B71" points="180,504 180,507 216,528 216,525 	"/>
	<polygon fill="#DDD1C2" points="156,462 216,497 216,511 156,476 	"/>
	<polygon fill="#D1E8B2" points="48,399 108,434 108,518 48,483 	"/>
	<polygon fill="#DDD1C2" points="264,525 324,560 324,584 264,549 	"/>
	<polygon fill="#C69C6D" points="264.001,599.481 324.001,634.481 324,644 264,609 	"/>
	<polygon fill="#C69C6D" points="176.16,548.241 216,571.48 216,581 168,553 	"/>
	<polygon fill="#7672A2" points="156,308 216,343 216,427 156,392 	"/>
	<polygon fill="#DDD1C2" points="156,308 216,343 216,415 156,380 	"/>
	<polygon fill="#7672A2" points="264,371 324,406 324,490 264,455 	"/>
	<polygon fill="#DDD1C2" points="264,371 324,406 324,485 264,450 	"/>
	<polygon fill="#7672A2" points="48,245 108,280 108,364 48,329 	"/>
	<polygon fill="#DDD1C2" points="48,245 108,280 108,360 48,325 	"/>
	<g>
		<polygon fill="#8C6239" points="108,476 108,518 72,497 		"/>
		<polygon fill="#998675" points="93.999,448.064 108,441.064 108,491.064 94,498.064 		"/>
		<g>
			<polygon fill="#736357" points="94.999,446.064 95,496.064 108,489.564 108,439.564 			"/>
		</g>
		<polygon fill="#AD9E91" points="81.999,431.064 94,438.064 94,498.064 81.999,491.062 		"/>
		<g>
			<polygon fill="#29ABE2" points="93.4,483.344 93.4,465.898 108,471.598 108,489.044 105.4,490.344 			"/>
			<polygon fill="#CCCCCC" points="95.999,464.598 108,471.598 105.4,472.898 93.399,465.897 			"/>
		</g>
		<g>
			<polygon fill="#C1272D" points="90.8,484.644 90.8,469.197 105.4,474.898 105.4,490.344 102.8,491.644 			"/>
			<polygon fill="#CCCCCC" points="93.399,467.898 105.4,474.898 102.8,476.197 90.799,469.197 			"/>
		</g>
		<g>
			<polygon fill="#009245" points="88.2,485.943 88.2,468.498 102.8,474.197 102.8,491.644 100.2,492.943 			"/>
			<polygon fill="#CCCCCC" points="90.799,467.197 102.8,474.197 100.2,475.498 88.199,468.497 			"/>
		</g>
		<g>
			<polygon fill="#8CC63F" points="85.6,487.243 85.6,472.797 100.2,478.498 100.2,492.943 97.6,494.243 			"/>
			<polygon fill="#CCCCCC" points="88.199,471.498 100.2,478.498 97.6,479.797 85.599,472.797 			"/>
		</g>
		<g>
			<polygon fill="#93278F" points="83,488.543 83,473.098 97.6,478.797 97.6,494.243 95,495.543 			"/>
			<polygon fill="#CCCCCC" points="85.599,471.797 97.6,478.797 95,480.098 82.999,473.097 			"/>
		</g>
		<g>
			<polygon fill="#736357" points="94.999,469.064 95,475.064 108,468.564 108,462.564 			"/>
		</g>
		<g>
			<polygon fill="#3E593E" points="93.4,461.344 93.4,443.898 108,449.598 108,467.044 105.4,468.344 			"/>
			<polygon fill="#CCCCCC" points="95.999,442.598 108,449.598 105.4,450.898 93.399,443.897 			"/>
		</g>
		<g>
			<polygon fill="#F58B66" points="90.228,462.31 90.228,447.863 104.828,453.564 104.828,468.01 102.228,469.31 			"/>
			<polygon fill="#CCCCCC" points="92.827,446.564 104.828,453.564 102.228,454.863 90.227,447.863 			"/>
		</g>
		<g>
			<polygon fill="#ED1E79" points="88.668,463.709 88.668,452.264 103.269,457.963 103.269,469.409 100.668,470.709 			"/>
			<polygon fill="#CCCCCC" points="91.268,450.963 103.269,457.963 100.668,459.264 88.668,452.263 			"/>
		</g>
		<g>
			<polygon fill="#662D91" points="86.068,465.009 86.068,449.562 100.668,455.264 100.668,470.709 98.068,472.009 			"/>
			<polygon fill="#CCCCCC" points="88.667,448.264 100.668,455.264 98.068,456.562 86.068,449.562 			"/>
		</g>
		<g>
			<polygon fill="#00A99D" points="83,466.543 83,451.098 97.6,456.797 97.6,472.243 95,473.543 			"/>
			<polygon fill="#CCCCCC" points="85.599,449.797 97.6,456.797 95,458.098 82.999,451.097 			"/>
		</g>
		<g>
			<polygon fill="#998675" points="94.999,474.064 95,476.064 108,469.564 108,467.564 			"/>
		</g>
		<g>
			<polygon fill="#736357" points="94.999,449.064 95,455.064 108,448.564 108,442.564 			"/>
		</g>
		<g>
			<polygon fill="#998675" points="94.999,454.064 95,456.064 108,449.564 108,447.564 			"/>
		</g>
		<g>
			<polygon fill="#0071BC" points="83,446.064 83,430.618 97.6,436.318 97.6,451.764 95,453.064 			"/>
			<polygon fill="#CCCCCC" points="85.599,429.318 97.6,436.318 95,437.618 82.999,430.617 			"/>
		</g>
		<polygon fill="#998675" points="92.196,442.398 95,442.398 95,496.064 92.196,495.064 		"/>
		<polygon fill="#AD9E91" points="82.529,490.291 94,496.852 94,441.283 82.529,441.283 		"/>
	</g>
	<polygon fill="#DDD1C2" points="48,399 108,434 108,458 48,423 	"/>
	<g>
		<g>
			<polygon fill="#CCCCCC" points="216,595 216.001,581 156.001,546 144,553 			"/>
			<polygon fill="#B3B3B3" points="144,455 156.001,462 156.001,546 144,553 			"/>
		</g>
		<g>
			<polygon opacity="0.25" fill="#CCFFFF" enable-background="new    " points="195.859,485.249 149.859,553.249 155.859,556.749 
				201.859,488.749 			"/>
			<polygon opacity="0.25" fill="#CCFFFF" enable-background="new    " points="207.86,492.249 161.86,560.249 163.734,561.343 
				209.734,493.343 			"/>
		</g>
	</g>
	<g>
		<g>
			<polygon fill="#CCCCCC" points="108,532 108.001,518 48.001,483 36,490 			"/>
			<polygon fill="#B3B3B3" points="36,392 48.001,399 48.001,483 36,490 			"/>
		</g>
		<g>
			<polygon opacity="0.25" fill="#CCFFFF" enable-background="new    " points="87.859,422.249 41.859,490.249 47.859,493.749 
				93.859,425.749 			"/>
			<polygon opacity="0.25" fill="#CCFFFF" enable-background="new    " points="99.86,429.249 53.86,497.249 55.734,498.343 
				101.734,430.343 			"/>
		</g>
	</g>
	<polygon fill="#CCCCCC" points="300,14 636,210 612,224 300,42 	"/>
	<polygon fill="#B3B3B3" points="24,175 300.001,14 300.001,42 48,189 	"/>
	<g>
		<g>
			<polygon fill="#CCCCCC" points="324,504 324.001,490 264.001,455 252,462 			"/>
			<polygon fill="#B3B3B3" points="252,364 264.001,371 264.001,455 252,462 			"/>
		</g>
		<g>
			<polygon opacity="0.25" fill="#CCFFFF" enable-background="new    " points="303.859,394.249 257.859,462.249 263.859,465.749 
				309.859,397.749 			"/>
			<polygon opacity="0.25" fill="#CCFFFF" enable-background="new    " points="315.86,401.249 269.86,469.249 271.734,470.343 
				317.734,402.343 			"/>
		</g>
	</g>
	<g>
		<g>
			<polygon fill="#CCCCCC" points="216,441 216.001,427 156.001,392 144,399 			"/>
			<polygon fill="#B3B3B3" points="144,301 156.001,308 156.001,392 144,399 			"/>
		</g>
		<g>
			<polygon opacity="0.25" fill="#CCFFFF" enable-background="new    " points="195.859,331.249 149.859,399.249 155.859,402.749 
				201.859,334.749 			"/>
			<polygon opacity="0.25" fill="#CCFFFF" enable-background="new    " points="207.86,338.249 161.86,406.249 163.734,407.343 
				209.734,339.343 			"/>
		</g>
	</g>
	<g>
		<g>
			<polygon fill="#CCCCCC" points="108,378 108.001,364 48.001,329 36,336 			"/>
			<polygon fill="#B3B3B3" points="36,238 48.001,245 48.001,329 36,336 			"/>
		</g>
		<g>
			<polygon opacity="0.25" fill="#CCFFFF" enable-background="new    " points="87.859,268.249 41.859,336.249 47.859,339.749 
				93.859,271.749 			"/>
			<polygon opacity="0.25" fill="#CCFFFF" enable-background="new    " points="99.86,275.249 53.86,343.249 55.734,344.343 
				101.734,276.343 			"/>
		</g>
	</g>
	<polygon fill="#817368" points="324,770 300,784 324.001,798 	"/>
	<polygon fill="#CCCCCC" points="42,654.5 36,658 84,686 84.001,679 	"/>
	<polygon fill="#B3B3B3" points="42,654.5 36,658 36,560 42,563.5 	"/>
	<polygon fill="#B2BDB2" points="48.001,567 48,621.083 84.002,600.082 84.001,588 	"/>
	<polygon fill="#736357" points="84,631.188 84,627.188 46.036,604.943 46.036,609.177 	"/>
	<g>
		<polygon opacity="0.25" fill="#CCFFFF" enable-background="new    " points="50.744,652.601 84,604.084 84.002,591.85 
			48.003,644.35 48.001,651 		"/>
		<polygon opacity="0.25" fill="#CCFFFF" enable-background="new    " points="81.452,586.513 48.001,635.295 48,639.083 
			83.326,587.605 		"/>
	</g>
	<g>
		<path fill="#999999" d="M364,167v42c0,7.733,10.742,14,24,14s24-6.267,24-14v-42H364z"/>
		<path fill="#666666" d="M412,167c0,7.733-10.742,14-24,14s-24-6.267-24-14c0-7.734,10.742-14,24-14S412,159.266,412,167z"/>
	</g>
	<g>
		<polygon fill="#999999" points="487,77 571,126 475,182 391,133 		"/>
		<polygon fill="#E6E6E6" points="475,294 391,245 391,133 475,182 		"/>
		<polygon fill="#CCCCCC" points="571,238 475,294 475,182 571,126 		"/>
		<polygon fill="#808080" points="391,259 439,287 439,269.5 406,250.25 		"/>
		<polygon fill="#B3B3B3" points="406,250.25 406,169.75 403,168 403,252 403,252 		"/>
		<polygon fill="#9E005D" points="439,189 406,169.75 406,250.25 439,269.5 		"/>
		<circle fill="#A67C52" cx="434.5" cy="230.5" r="2.5"/>
	</g>
	<g>
		<g>
			<polygon fill="#CCCCCC" points="324,658 324.001,644 264.001,609 252,616 			"/>
			<polygon fill="#B3B3B3" points="252,518 264.001,525 264.001,609 252,616 			"/>
		</g>
		<g>
			<polygon opacity="0.25" fill="#CCFFFF" enable-background="new    " points="303.859,548.249 257.859,616.249 263.859,619.749 
				309.859,551.749 			"/>
			<polygon opacity="0.25" fill="#CCFFFF" enable-background="new    " points="315.86,555.249 269.86,623.249 271.734,624.343 
				317.734,556.343 			"/>
		</g>
	</g>
	<rect x="216" y="493.476" fill="#E6E6E6" width="8.278" height="105.45"/>
	<g>
		<polygon fill="#C69C6D" points="218,646 255.999,624.064 255.999,674.064 218,696.064 		"/>
		<g>
			<polygon fill="#A67C52" points="218.999,647.064 219,694.064 254.999,673.064 254.999,626.064 			"/>
		</g>
		<g>
			<path fill="#66CBC4" d="M244.336,668.727v5.25c0,0.968,1.343,1.75,3,1.75c1.657,0,3-0.782,3-1.75v-5.25H244.336z"/>
			<ellipse fill="#2E3192" cx="247.336" cy="668.727" rx="3" ry="1.75"/>
		</g>
		<g>
			<path fill="#66CBC4" d="M239.798,671.374v5.25c0,0.967,1.343,1.75,3,1.75c1.657,0,3-0.783,3-1.75v-5.25H239.798z"/>
			<ellipse fill="#2E3192" cx="242.798" cy="671.374" rx="3" ry="1.75"/>
		</g>
		<g>
			<path fill="#999999" d="M244.336,662.727v5.25c0,0.968,1.343,1.75,3,1.75c1.657,0,3-0.782,3-1.75v-5.25H244.336z"/>
			<ellipse fill="#2E3192" cx="247.336" cy="662.727" rx="3" ry="1.75"/>
		</g>
		<g>
			<path fill="#66CBC4" d="M239.798,665.374v5.25c0,0.967,1.343,1.75,3,1.75c1.657,0,3-0.783,3-1.75v-5.25H239.798z"/>
			<ellipse fill="#2E3192" cx="242.798" cy="665.374" rx="3" ry="1.75"/>
		</g>
		<g>
			<path fill="#66CBC4" d="M231.302,671.988v5.25c0,0.967,1.343,1.75,3,1.75c1.657,0,3-0.783,3-1.75v-5.25H231.302z"/>
			<ellipse fill="#2E3192" cx="234.302" cy="671.988" rx="3" ry="1.75"/>
		</g>
		<g>
			<path fill="#66CBC4" d="M231.302,665.988v5.25c0,0.967,1.343,1.75,3,1.75c1.657,0,3-0.783,3-1.75v-5.25H231.302z"/>
			<ellipse fill="#2E3192" cx="234.302" cy="665.988" rx="3" ry="1.75"/>
		</g>
		<g>
			<path fill="#66CBC4" d="M235.302,673.988v5.25c0,0.967,1.343,1.75,3,1.75c1.657,0,3-0.783,3-1.75v-5.25H235.302z"/>
			<ellipse fill="#2E3192" cx="238.302" cy="673.988" rx="3" ry="1.75"/>
		</g>
		<g>
			<path fill="#66CBC4" d="M235.302,667.988v5.25c0,0.967,1.343,1.75,3,1.75c1.657,0,3-0.783,3-1.75v-5.25H235.302z"/>
			<ellipse fill="#2E3192" cx="238.302" cy="667.988" rx="3" ry="1.75"/>
		</g>
		<g>
			<path fill="#66AAD7" d="M230.765,676.643v5.25c0,0.968,1.343,1.75,3,1.75c1.657,0,3-0.782,3-1.75v-5.25H230.765z"/>
			<ellipse fill="#93278F" cx="233.765" cy="676.643" rx="3" ry="1.75"/>
		</g>
		<g>
			<path fill="#66AAD7" d="M226.286,679.25v5.25c0,0.967,1.343,1.75,3,1.75c1.657,0,3-0.783,3-1.75v-5.25H226.286z"/>
			<ellipse fill="#93278F" cx="229.286" cy="679.25" rx="3" ry="1.75"/>
		</g>
		<g>
			<path fill="#66AAD7" d="M221.748,681.904v5.25c0,0.967,1.343,1.75,3,1.75c1.657,0,3-0.783,3-1.75v-5.25H221.748z"/>
			<ellipse fill="#93278F" cx="224.748" cy="681.904" rx="3" ry="1.75"/>
		</g>
		<g>
			<path fill="#66AAD7" d="M221.748,675.904v5.25c0,0.967,1.343,1.75,3,1.75c1.657,0,3-0.783,3-1.75v-5.25H221.748z"/>
			<ellipse fill="#93278F" cx="224.748" cy="675.904" rx="3" ry="1.75"/>
		</g>
		<g>
			<path fill="#66AAD7" d="M217.151,684.494v5.25c0,0.967,1.343,1.75,3,1.75c1.657,0,3-0.783,3-1.75v-5.25H217.151z"/>
			<ellipse fill="#93278F" cx="220.151" cy="684.494" rx="3" ry="1.75"/>
		</g>
		<g>
			<path fill="#66AAD7" d="M217.151,678.494v5.25c0,0.967,1.343,1.75,3,1.75c1.657,0,3-0.783,3-1.75v-5.25H217.151z"/>
			<ellipse fill="#93278F" cx="220.151" cy="678.494" rx="3" ry="1.75"/>
		</g>
		<g>
			<polygon fill="#C69C6D" points="218.999,678.064 219,680.064 254.999,659.064 254.999,657.064 			"/>
		</g>
		<g>
			<polygon fill="#A67C52" points="218.999,669.064 219,679.064 254.999,658.064 254.999,648.064 			"/>
		</g>
		<g>
			<g>
				<polygon fill="#A9D46F" points="234,657.5 234,668.5 240,665 240,654 				"/>
			</g>
			<g>
				<polygon fill="#BADD8C" points="227.999,654 234,657.5 240,654 233.999,650.5 				"/>
			</g>
			<g>
				<polygon fill="#8CC63F" points="233.999,657.5 234,668.5 227.999,665 227.999,654 				"/>
			</g>
		</g>
		<g>
			<g>
				<polygon fill="#A9D46F" points="227,661.5 227,672.5 233,669 233,658 				"/>
			</g>
			<g>
				<polygon fill="#BADD8C" points="220.999,658 227,661.5 233,658 226.999,654.5 				"/>
			</g>
			<g>
				<polygon fill="#8CC63F" points="226.999,661.5 227,672.5 220.999,669 220.999,658 				"/>
			</g>
		</g>
		<g>
			<g>
				<polygon fill="#A9D46F" points="220,665.5 220,676.5 226,673 226,662 				"/>
			</g>
			<g>
				<polygon fill="#BADD8C" points="213.999,662 220,665.5 226,662 219.999,658.5 				"/>
			</g>
			<g>
				<polygon fill="#8CC63F" points="219.999,665.5 220,676.5 213.999,673 213.999,662 				"/>
			</g>
		</g>
		<g>
			<polygon fill="#C69C6D" points="218.999,661.064 219,663.064 254.999,642.064 254.999,640.064 			"/>
		</g>
		<g>
			<polygon fill="#A67C52" points="218.999,652.064 219,662.064 254.999,641.064 254.999,631.064 			"/>
		</g>
		<g>
			<g>
				<polygon fill="#4094CD" points="220,648.927 220,659.928 226,656.428 226,645.428 				"/>
			</g>
			<g>
				<polygon fill="#66AAD7" points="213.999,645.428 220,648.928 226,645.428 219.999,641.928 				"/>
			</g>
			<g>
				<polygon fill="#0071BC" points="219.999,648.927 220,659.928 213.999,656.428 213.999,645.428 				"/>
			</g>
		</g>
		<rect x="216.191" y="647.572" fill="#C69C6D" width="2.808" height="45.371"/>
		<polygon fill="#A67C52" points="216.825,631.378 204.824,638.378 204.824,688.378 216.825,681.377 		"/>
		<polygon fill="#D1B08A" points="205.999,639.064 218,646.064 218,696.064 205.999,689.062 		"/>
		<polygon fill="#D1B08A" points="192.823,631.378 204.824,638.378 204.824,688.378 192.824,681.377 		"/>
		<polygon fill="#E6E6E6" points="281.969,689.481 185.824,633.396 254.167,620.334 263.5,625.5 		"/>
	</g>
	<g>
		<polygon opacity="0.25" fill="#CCFFFF" enable-background="new    " points="264,679 218,747 224,750.5 270,682.5 		"/>
		<polygon opacity="0.25" fill="#CCFFFF" enable-background="new    " points="276.001,686 230.001,754 231.875,755.094 
			277.875,687.094 		"/>
		<polygon opacity="0.25" fill="#CCFFFF" enable-background="new    " points="216.001,651 170.001,719 176.001,722.5 
			222.001,654.5 		"/>
		<polygon opacity="0.25" fill="#CCFFFF" enable-background="new    " points="192.001,637 146.001,705 147.875,706.094 
			193.875,638.094 		"/>
	</g>
	<g>
		<g>
			<g>
				<path fill="#F261A1" d="M31.001,535.656c-14.593,8.426-23.947,21.945-26.32,35.694h0.004L31.001,556V535.656z"/>
			</g>
			<polygon fill="#F261A1" points="64.682,606.352 91.001,570.656 31.001,535.656 4.682,571.352 			"/>
		</g>
		<g>
			<path fill="#ED1E79" d="M91.001,570.656c-14.593,8.426-23.947,21.945-26.32,35.694h0.004L91.001,591V570.656z"/>
		</g>
	</g>
</g>
</svg>
