<?xml version="1.0" encoding="utf-8"?>
<!-- Generator: Adobe Illustrator 13.0.0, SVG Export Plug-In . SVG Version: 6.00 Build 14948)  -->
<!DOCTYPE svg PUBLIC "-//W3C//DTD SVG 1.1//EN" "http://www.w3.org/Graphics/SVG/1.1/DTD/svg11.dtd">
<svg version="1.1" id="Layer_1" xmlns="http://www.w3.org/2000/svg" xmlns:xlink="http://www.w3.org/1999/xlink" x="0px" y="0px"
	 width="123px" height="275px" viewBox="0 0 122.003 274.999" enable-background="new 0 0 122.003 274.999"
	 xml:space="preserve">
<g opacity="0.2">
	<path fill="#4D4D4D" d="M92.996,34.889c0.008-0.003,0.016-0.005,0.024-0.008c0.019-0.007,0.037-0.013,0.056-0.02L92.996,34.889z"/>
	<path fill="#4D4D4D" d="M121.267,105.872c0.062-0.162,0.118-0.32,0.167-0.472c0.509-1.547,0.562-2.676,0.569-3.525
		c-0.036-2.045-0.393-2.959-0.405-3.147c-0.769-3.16-2.864-5.195-4.234-6.071c-2.163-1.366-3.337-1.457-4.226-1.653
		c-0.29-0.045-0.55-0.078-0.786-0.1c-0.172-0.171-0.357-0.347-0.563-0.525c-0.084-0.096-0.169-0.189-0.255-0.281
		c1.395-1.268,2.168-2.652,2.642-3.805c0.584-1.479,0.768-2.754,0.774-4.017c-0.002-0.175-0.006-0.349-0.015-0.524
		c0.283-0.901,0.476-1.941,0.473-3.064c-0.017-1.425-0.238-2.125-0.245-2.225l-0.217-0.787c0.288-0.983,0.43-1.964,0.4-2.812
		c-0.008-0.962-0.127-1.766-0.291-2.439c0.646-0.793,1.256-1.755,1.612-2.686c0.465-1.135,0.616-2.022,0.692-2.526
		c0.054-0.389,0.075-0.589,0.084-0.693c0.117-0.594,0.233-1.28,0.241-2.359c-0.007-0.785-0.057-1.845-0.52-3.291
		c-0.286-0.884-0.775-1.924-1.504-2.91c0.412-1.064,0.719-2.395,0.715-3.819c0.019-1.959-0.599-3.774-1.288-5.048
		c-0.211-0.66-0.497-1.333-0.876-1.977c-0.884-1.547-2.165-2.727-3.221-3.409c-1.705-1.071-2.773-1.296-3.412-1.448
		c-0.056-0.1-0.113-0.198-0.172-0.294c-1.229-1.966-2.536-2.942-3.546-3.538c-1.408-1.106-2.727-1.544-3.635-1.819
		c-1.383-0.372-2.305-0.403-3.086-0.414c-1.634,0.04-2.553,0.18-4.121,0.685c-0.816,0.288-1.603,0.631-2.416,1.12
		c-0.172-0.35-0.336-0.637-0.465-0.882c-0.354-0.579-0.632-0.976-0.853-1.264c0.228-0.903,0.318-1.771,0.311-2.498
		c-0.002-0.133-0.006-0.263-0.011-0.389c0.062-0.397,0.096-0.762,0.112-1.091c0.004-0.067,0.008-0.136,0.011-0.208
		c0-0.006,0-0.012,0-0.018c0.001-0.024,0.002-0.05,0.003-0.075c0.011-0.375,0.001-0.75-0.029-1.12
		c0.599-1.214,1.107-2.832,1.101-4.663c0.027-2.265-0.836-4.454-1.748-5.769c-0.696-1.002-1.331-1.67-1.881-2.15
		c-0.197-1.297-0.66-2.658-1.385-3.817c-1.095-1.781-2.527-2.925-3.811-3.631c-0.38-1.787-1.397-3.64-2.614-4.864
		c-1.917-1.936-3.749-2.525-4.929-2.841c-0.746-0.18-1.337-0.258-1.832-0.294C71.756,0.188,70.774,0.021,69.558,0
		c-0.949,0.007-2.192,0.101-3.725,0.679c-0.006,0.002-0.013,0.005-0.021,0.007c-0.005,0.001-0.011,0.003-0.017,0.005
		c-0.714,0.06-1.433,0.171-2.148,0.33c-1.556,0.327-3.979,1.209-5.995,3.501c-0.979,1.11-1.716,2.48-2.108,3.74
		c-0.124,0.388-0.22,0.763-0.293,1.122c-0.03,0.062-0.061,0.125-0.091,0.191c-0.182,0.139-0.348,0.278-0.496,0.414
		c-1.234,1.095-1.836,2.024-2.272,2.772l-0.001-0.001c-0.003,0.005-0.006,0.01-0.01,0.017c-0.003,0.005-0.007,0.012-0.012,0.021
		c-0.093,0.151-0.419,0.627-0.872,1.462c-0.352,0.782-1.032,1.801-1.342,3.92c-0.017,0.046-0.028,0.08-0.036,0.101
		c-0.009,0.021-0.011,0.025-0.011,0.025c-0.282,0.633-0.562,1.405-0.752,2.307c-1,1.705-1.236,2.798-1.471,3.535
		c-0.107,0.389-0.177,0.671-0.213,0.815c-0.009,0.033-0.015,0.056-0.019,0.07c-0.119,0.381-0.204,0.674-0.264,0.888
		c-0.759,1.312-1.041,2.345-1.308,3.318c-0.001,0.005-0.002,0.01-0.003,0.015c-0.978,0.213-1.658,0.524-2.191,0.762
		c-0.254,0.125-0.478,0.243-0.678,0.355c-0.669-0.365-1.269-0.589-1.839-0.813c-1.265-0.422-2.355-0.671-4.015-0.695
		c-0.613,0.027-1.355,0.013-2.427,0.265c-0.226-0.016-0.476-0.026-0.752-0.029c-2.273,0.047-3.388,0.568-4.268,0.929
		c-1.468,0.692-2.181,1.298-2.888,1.914c-1.005,0.925-1.797,1.908-2.519,3.196c-0.702,1.275-1.309,2.885-1.488,4.84
		c-0.021,0.209-0.036,0.425-0.047,0.639c-0.119,0.289-0.245,0.623-0.373,1.022c-0.129,0.426-0.276,0.925-0.385,1.558
		c-0.077,0.12-0.156,0.246-0.235,0.38c-0.024,0.041-0.048,0.082-0.072,0.125c-0.867,0.818-1.562,1.583-2.26,2.432
		c-0.378,0.473-0.739,0.935-1.185,1.625c-0.226,0.359-0.475,0.762-0.8,1.457c-0.163,0.357-0.347,0.785-0.541,1.429
		c-0.184,0.65-0.42,1.5-0.433,2.942c-0.003,0.263,0.007,0.533,0.027,0.807c-0.267,0.221-0.546,0.472-0.838,0.759
		c-0.851,0.931-1.392,1.692-1.756,2.316c-0.079,0.114-0.159,0.232-0.238,0.356c-0.329,0.522-0.677,1.161-0.968,1.921
		c-0.096,0.103-0.184,0.196-0.255,0.27c-0.059,0.059-0.104,0.106-0.131,0.133c-0.009,0.008-0.015,0.014-0.019,0.017v0
		c-0.698,0.628-1.524,1.501-2.267,2.826c-0.769,1.345-1.337,3.255-1.317,5.077c0,0.021,0,0.042,0,0.063
		c-0.222,0.838-0.351,1.724-0.338,2.587c0.002,0.206,0.009,0.406,0.021,0.601c-0.05,0.414-0.075,0.831-0.075,1.249
		c0.017,1.599,0.316,2.741,0.645,3.643c-0.473,1.091-0.805,2.417-0.842,3.751c-0.356,0.133-0.675,0.272-0.96,0.406
		c-1.565,0.771-2.361,1.473-3.05,2.068c-0.665,0.602-1.158,1.133-1.61,1.645c-0.443,0.511-0.965,1.152-1.521,2.201
		c-0.532,1.037-1.176,2.59-1.19,4.812c-0.089,2.478,1.207,5.495,2.841,7.063c0.225,0.218,0.443,0.419,0.657,0.604
		c0.095,0.473,0.196,0.857,0.268,1.059c0.171,0.57,0.137,0.447,0.168,0.565c0.15,0.489,0.209,1.017,0.77,2.211
		c-0.079,0.514-0.117,1.022-0.103,1.506c0.06,2.15,0.507,3.343,0.739,3.906c0.252,0.907,0.707,2.122,1.643,3.442
		c0.384,0.551,0.852,1.07,1.334,1.525c0.126,0.317,0.268,0.63,0.428,0.927c0.056,0.111,0.113,0.225,0.176,0.341
		c-0.129,0.511-0.238,1.076-0.314,1.696l-0.003,0c-0.003,0.035-0.007,0.074-0.011,0.119c-0.001,0.003-0.001,0.006-0.001,0.01
		c-0.022,0.215-0.056,0.562-0.06,1.142c0.006,0.785,0.063,1.807,0.467,3.143c0.187,0.621,0.472,1.32,0.865,2.024
		c-0.342,0.709-0.588,1.402-0.714,1.99c-0.367,1.552-0.322,2.415-0.338,2.869c0.005,0.485,0.011,0.555,0.009,0.555
		c-0.007,0.511,0.032,1.086,0.126,1.688c-0.086,0.526-0.142,1.117-0.146,1.782c-0.034,1.694,0.519,3.9,1.563,5.53
		c0.314,0.492,0.634,0.92,0.947,1.291c0.097,0.178,0.197,0.352,0.301,0.516c0.089,0.143,0.177,0.292,0.283,0.459
		c-0.353,0.714-0.617,1.466-0.791,2.239c-0.818,1.516-1.083,2.831-1.226,3.646c-0.119,0.705-0.171,1.427-0.175,2.023
		c-0.349,0.945-0.542,1.822-0.64,2.517c-0.182,1.298-0.144,2.094-0.15,2.421c-0.008,1.235,0.192,2.987,0.952,4.725
		c0.427,1.002,0.988,1.851,1.483,2.484c0.075,0.188,0.154,0.367,0.235,0.537c0.012,0.039,0.026,0.084,0.042,0.134
		c0.088,0.28,0.217,0.676,0.375,1.116c0.317,0.811,0.69,1.866,1.94,3.39c0.118,0.139,0.246,0.282,0.385,0.428
		c0.239,0.694,0.536,1.323,0.856,1.844c1.54,2.432,2.874,3.082,3.599,3.569c0.552,0.309,0.931,0.493,1.2,0.611
		c0.096,0.07,0.191,0.138,0.285,0.204c0.132,0.261,0.271,0.509,0.413,0.745c0.157,0.771,0.417,1.595,0.818,2.418
		c1.147,2.482,3.531,4.302,5.272,4.948c1.507,0.598,2.627,0.723,3.478,0.757c0.315,0.081,0.654,0.154,1.019,0.216
		c0.413,0.198,1.021,0.44,2.049,0.732c0.457,0.114,0.882,0.188,1.264,0.234c0.456,0.231,0.894,0.41,1.301,0.551
		c0.064,0.039,0.129,0.078,0.194,0.116c0.043,0.025,0.69,0.403,1.484,0.84c0.197,0.108,0.401,0.219,0.616,0.333
		c0.106,0.142,0.221,0.286,0.343,0.436c0.059,0.377,0.143,0.782,0.26,1.203c0.147,1.32,0.452,2.011,0.7,2.721
		c0.536,1.273,1.074,2.231,2.192,3.489c0.576,0.618,1.311,1.317,2.504,2.026c1.173,0.688,2.95,1.429,5.264,1.436
		c0.517-0.002,1.007-0.042,1.472-0.108c0.013,0.282,0.034,0.596,0.073,0.945h-0.001c0.003,0.024,0.006,0.047,0.008,0.068
		c-0.006,0.036-0.013,0.08-0.021,0.13l0.002-0.007c-0.195,1.197-0.153,1.349-0.191,1.8c-0.046,1.078-0.055,2.363-0.057,4.117
		c0.001,4.851,0.104,12.515,0.202,17.953L22.966,235.36c-3.059,1.783-4.962,5.099-4.962,8.64c0,3.539,1.903,6.853,4.962,8.638
		l36,20.999c1.556,0.908,3.296,1.362,5.036,1.362c1.741,0,3.483-0.454,5.041-1.362l36-20.999c3.086-1.802,4.962-5.064,4.962-8.638
		c0-3.574-1.876-6.84-4.962-8.64l-29.647-17.294c-0.124-9.897-0.229-19.774-0.227-22.185c-0.002-2.205-0.052-4.333-0.064-6.104
		c1.071-0.207,2.037-0.536,2.752-0.892c0.09-0.046,0.177-0.09,0.261-0.135c0.25,0,0.503,0,0.734,0
		c1.492,0.015,3.306-0.328,4.867-1.077c1.052-0.497,1.892-1.096,2.563-1.677l0.034-0.008c0.028-0.007,0.058-0.013,0.086-0.02
		c0.549,0.08,1.05,0.107,1.493,0.107c1.107-0.03,1.967-0.163,2.657-0.339c0.192,0.011,0.386,0.015,0.581,0.012
		c1.798,0.009,3.417-0.5,4.525-1.062c1.967-1.021,2.706-1.952,3.199-2.465c0.112-0.129,0.206-0.241,0.286-0.339
		c0.542-0.578,1.079-1.282,1.54-2.125c0.211-0.377,0.387-0.784,0.547-1.201c0.146-0.101,0.291-0.198,0.445-0.314
		c0.899-0.695,1.934-1.763,2.707-3.219c0.177-0.325,0.329-0.671,0.468-1.023c1.192-1.61,2.094-4.061,2.018-6.108
		c-0.006-0.257-0.019-0.503-0.036-0.738c0.838-1.072,1.385-2.201,1.668-3.102c0.487-1.516,0.523-2.566,0.533-3.333
		c-0.005-0.179-0.012-0.346-0.02-0.503c0.257-0.517,0.485-1.074,0.668-1.662c0.802-1.396,1.408-3.287,1.378-5.136
		c0-1.112-0.18-2.113-0.445-2.984c0.101-0.417,0.169-0.812,0.213-1.182c1.383-1.916,2.021-4.238,1.866-6.535
		c0.054-0.415,0.086-0.86,0.087-1.334c0.003-0.103,0.004-0.205,0.003-0.309c0.897-1.475,1.477-3.345,1.6-4.947
		c0.116-0.301,0.219-0.604,0.306-0.904c0.624-0.678,1.258-1.488,1.845-2.606c0.698-1.309,1.252-3.179,1.234-5.015
		c0.008-1.8-0.474-3.305-0.851-4.199c0.062-0.45,0.091-0.899,0.085-1.333c0-0.085-0.001-0.169-0.003-0.253
		c0.169-0.277,0.317-0.545,0.452-0.8c0.437-0.851,0.726-1.614,0.94-2.325c0.372-0.368,0.724-0.774,1.042-1.219
		c1.568-2.128,2.009-4.542,1.986-6.106c-0.052-1.392-0.237-2.388-0.463-3.142c0.103-0.438,0.178-0.884,0.222-1.323
		C121.185,106.817,121.226,106.445,121.267,105.872z M35.908,64.59l0.021-0.059L35.908,64.59z M78.555,23.878L78.555,23.878
		L78.555,23.878z M17.827,168.603L17.827,168.603L17.827,168.603z"/>
	
		<line fill="none" stroke="#4D4D4D" stroke-width="0" stroke-linecap="round" stroke-linejoin="round" x1="78.554" y1="23.877" x2="78.555" y2="23.878"/>
	
		<line fill="none" stroke="#4D4D4D" stroke-width="0" stroke-linecap="round" stroke-linejoin="round" x1="17.828" y1="168.602" x2="17.827" y2="168.603"/>
	
		<line fill="none" stroke="#4D4D4D" stroke-width="0" stroke-linecap="round" stroke-linejoin="round" x1="35.908" y1="64.59" x2="35.929" y2="64.532"/>
	<path fill="none" stroke="#4D4D4D" stroke-width="0" stroke-linecap="round" stroke-linejoin="round" d="M50.972,195.185
		c-0.003,0.021-0.007,0.043-0.011,0.066"/>
</g>
<path fill="#4D4D4D" d="M115.978,107.488c0.112-0.344,0.19-0.715,0.226-1.074c0.004-0.064,0.085-0.819,0.123-1.752
	c0.162-0.3,0.284-0.592,0.369-0.855c0.27-0.825,0.304-1.447,0.308-1.93c-0.017-1.168-0.236-1.785-0.268-1.98
	c-0.389-1.599-1.452-2.635-2.156-3.086c-1.111-0.702-1.747-0.761-2.247-0.869c-0.495-0.08-0.858-0.091-1.195-0.093
	c-0.401,0.001-0.751,0.023-1.095,0.063c-0.094-0.096-0.19-0.187-0.288-0.271c-0.337-0.535-0.695-1.084-1.479-1.665
	c-0.548-0.723-1.247-1.274-1.865-1.599c-0.149-0.069-0.293-0.132-0.432-0.19c0.129-0.494,0.198-1.017,0.204-1.576
	c0.007-0.387-0.033-0.793-0.118-1.204c0.005-0.089,0.008-0.178,0.008-0.268c0.026-0.035,0.052-0.071,0.078-0.108
	c0.266-0.405,0.576-0.78,0.945-1.814c0.006-0.02,0.013-0.039,0.019-0.059c0.125-0.07,0.269-0.158,0.439-0.269
	c1.115-0.766,1.67-1.702,1.984-2.466c0.309-0.781,0.409-1.466,0.412-2.147c-0.003-0.393-0.037-0.789-0.123-1.196
	c0.31-0.601,0.558-1.385,0.58-2.392c-0.008-0.719-0.12-1.08-0.126-1.139l-0.131-0.477c-0.227-0.608-0.438-1.027-0.646-1.352
	c0.56-0.871,0.871-1.992,0.842-2.854c-0.087-1.966-0.726-2.641-0.987-3.126c-0.062-0.089-0.12-0.17-0.174-0.244
	c0.158-0.185,0.317-0.392,0.478-0.623c0.124-0.19,0.226-0.364,0.311-0.519c0.166-0.115,0.353-0.254,0.564-0.431
	c0.534-0.435,1.196-1.281,1.507-2.084c0.466-1.243,0.388-1.74,0.43-1.882c0.017-0.158,0.013-0.135,0.038-0.264
	c0.087-0.43,0.169-0.867,0.173-1.531c-0.004-0.428-0.031-0.987-0.271-1.732c-0.205-0.82-0.94-1.859-1.808-2.543
	c-0.101-0.17-0.211-0.34-0.332-0.506c0.064-0.433,0.066-0.74,0.069-1.005c-0.003-0.33-0.019-0.618-0.043-0.874
	c0.207-0.318,0.433-0.712,0.626-1.168c0.268-0.639,0.451-1.39,0.449-2.191c0.012-1.248-0.469-2.385-0.921-3.054
	c-0.107-0.479-0.289-0.988-0.57-1.467c-0.45-0.787-1.1-1.388-1.642-1.736c-0.975-0.614-1.563-0.694-1.905-0.785
	c-0.304-0.061-0.464-0.085-0.548-0.096c-0.539-0.182-1.194-0.328-1.96-0.33h-0.001c-0.17-1.761-1.339-3.179-2.088-3.658
	c-0.262-0.181-0.497-0.326-0.711-0.443c-0.812-0.714-1.601-0.983-2.147-1.146c-0.748-0.205-1.278-0.226-1.742-0.229
	c-0.973,0.019-1.601,0.12-2.506,0.413c-0.782,0.272-1.586,0.669-2.46,1.39c-0.844,0.709-1.813,1.856-2.235,3.538
	c-0.154,0.667-0.265,1.318-0.338,2.002c-0.371,0.636-0.559,1.233-0.677,1.721c-0.07,0.308-0.115,0.587-0.145,0.844
	c-0.73,0.478-1.291,1.088-1.48,1.379c-0.327,0.447-0.353,0.515-0.415,0.597c-0.302,0.494-0.992,1.299-1.062,3.215
	c-0.004,0.11-0.002,0.22,0.004,0.331c-0.016,0.021-0.03,0.042-0.046,0.063c-0.805,0.612-1.184,1.195-1.493,1.661
	c-0.523,0.858-0.749,1.521-0.941,2.167c-0.116,0.443-0.214,0.802-0.274,1.281c-0.433-0.468-0.971-0.906-1.585-1.22
	c0.395-0.303,0.71-0.579,1.01-0.837c0.39-0.344,0.813-0.778,1.208-1.454c0.393-0.662,0.724-1.63,0.716-2.658
	c-0.001-0.158-0.009-0.311-0.021-0.46c0.09-0.111,0.181-0.232,0.272-0.362c0.521-0.73,1-1.917,0.987-3.162
	c-0.009-1.667-0.714-2.895-1.302-3.637c-0.197-0.285-0.461-0.562-0.77-0.819c0.491-0.218,1.08-0.572,1.672-1.196
	c0.916-0.926,1.414-2.464,1.369-3.491c-0.038-1.563-0.529-2.342-0.799-2.85c-0.452-0.743-0.743-1.032-0.941-1.28
	c-0.196-0.228-0.289-0.348-0.289-0.348c-0.245-0.35-0.58-0.735-1.001-1.088c0.169-0.346,0.315-0.743,0.412-1.174
	c0.434-0.823,0.596-1.729,0.587-2.406c-0.015-0.236-0.035-0.452-0.06-0.65c0.143-0.542,0.177-1.013,0.178-1.346
	c0.009-0.547-0.072-1.084-0.235-1.594c0.071-0.209,0.133-0.427,0.186-0.655c0.111-0.15,0.226-0.319,0.341-0.507
	c0.398-0.673,0.783-1.665,0.778-2.81c0.013-1.173-0.433-2.306-0.911-3c-0.583-0.839-1.101-1.252-1.507-1.537
	c-0.259-0.413-0.552-0.764-0.844-0.999c-0.034-0.028-0.063-0.048-0.098-0.076c-0.035-0.286-0.084-0.573-0.161-0.858
	c0.001-0.851-0.254-1.849-0.76-2.657c-0.778-1.266-1.894-1.907-2.689-2.19c-0.719-0.257-1.285-0.321-1.767-0.336
	c0.085-0.388,0.146-0.84,0.161-1.36c0-0.439-0.042-0.722-0.063-0.882l-0.053-0.308c-0.179-0.935-0.708-1.916-1.348-2.559
	c-0.977-0.987-1.92-1.295-2.544-1.461c-0.646-0.156-1.091-0.171-1.464-0.175c-0.02,0-0.039,0-0.058,0.001
	c-0.558-0.217-1.231-0.383-2.124-0.4c-0.521,0.006-1.196,0.059-2.021,0.382v0c0,0-0.009,0.003-0.034,0.014
	c-0.075,0.023-0.274,0.072-0.712,0.249c-0.656,0.016-1.345,0.101-2.06,0.259c-0.935,0.198-2.244,0.696-3.308,1.907
	c-0.904,1.008-1.286,2.293-1.369,3.227c-0.259,0.441-0.598,0.983-0.812,1.901c-0.541,0.243-0.988,0.548-1.3,0.832
	c-0.703,0.622-1.032,1.162-1.289,1.611c0.038-0.05-0.247,0.365-0.607,0.987c-0.288,0.602-0.831,1.318-0.998,2.954
	c-0.177,0.503-0.256,0.796-0.36,0.996c-0.254,0.564-0.489,1.28-0.549,2.136c-0.133,0.17-0.248,0.336-0.348,0.491
	c-0.703,1.124-0.903,1.937-1.085,2.542c-0.084,0.302-0.144,0.549-0.188,0.717c-0.021,0.087-0.04,0.152-0.051,0.19
	c-0.006,0.021-0.006,0.021-0.004,0.021c-0.234,0.728-0.344,1.207-0.429,1.46c-0.01,0.033-0.019,0.06-0.026,0.082
	c-0.639,0.956-0.867,1.729-1.068,2.481c-0.196,0.81-0.287,1.586-0.289,2.411c0.015,0.57,0.037,1.161,0.174,1.826
	c-0.033-0.018-0.066-0.037-0.1-0.054c-0.842-0.456-1.738-0.612-2.42-0.605c-1.162,0.017-1.81,0.314-2.261,0.515
	c-0.477,0.252-0.794,0.457-1.017,0.623c-0.783,0.406-1.221,0.825-1.671,1.151c-0.159,0.138-0.304,0.271-0.438,0.403
	c-0.207-0.321-0.426-0.587-0.626-0.793c-1.036-1.044-1.836-1.348-2.574-1.635c-0.751-0.251-1.426-0.401-2.362-0.411
	c-0.476,0.017-1.064,0.005-2.024,0.356c-0.274-0.052-0.642-0.097-1.154-0.12c-1.154,0.023-1.732,0.289-2.196,0.481
	c-1.455,0.73-1.945,1.354-2.647,2.255c-0.622,0.884-1.191,2.057-1.34,3.59c-0.031,0.344-0.046,0.69-0.044,0.994
	c-0.001,0.109,0.001,0.217,0.005,0.322c-0.013,0.024-0.025,0.05-0.038,0.075c-0.264,0.65-0.779,1.297-0.865,3.266
	c0,0.001,0,0.002,0,0.003c-0.216,0.23-0.476,0.542-0.76,1.018c-0.112,0.191-0.231,0.422-0.341,0.69
	c-0.152,0.13-0.297,0.26-0.45,0.392c-0.736,0.675-1.386,1.382-1.975,2.104c-0.295,0.365-0.565,0.717-0.852,1.162
	c-0.146,0.23-0.296,0.475-0.475,0.861c-0.154,0.422-0.462,0.846-0.516,2.276c-0.038,0.822,0.212,1.666,0.508,2.334
	c-0.023,0.017-0.046,0.032-0.068,0.047c-0.756,0.618-1.031,1.029-1.327,1.416c-0.106,0.149-0.203,0.292-0.293,0.431
	c-0.319,0.21-0.675,0.485-1.074,0.854c-0.533,0.581-0.849,1.055-1.055,1.445c-0.092,0.122-0.184,0.253-0.274,0.394
	c-0.281,0.447-0.578,1.036-0.742,1.777c-0.147,0.167-0.303,0.341-0.458,0.512c-0.44,0.491-0.957,1.015-1.013,1.055
	c-0.771,0.62-1.979,2.198-1.961,4.217c0,0.244,0.017,0.475,0.045,0.694c-0.238,0.595-0.394,1.289-0.383,1.955
	c0.002,0.272,0.022,0.524,0.056,0.757c-0.074,0.356-0.112,0.724-0.11,1.093c0.088,2.036,0.741,2.833,1.232,3.602
	c0.015,0.128,0.037,0.272,0.072,0.435c-0.661,0.666-1.517,2-1.508,3.68c0.002,0.29,0.026,0.564,0.067,0.822
	c-0.09,0.189-0.193,0.431-0.315,0.755l-0.003-0.001c-0.006,0.02-0.013,0.039-0.019,0.059c-0.002,0.006-0.004,0.011-0.007,0.017
	l0.001,0c-0.212,0.673-0.225,0.987-0.258,1.273c-0.229,0.109-0.454,0.229-0.688,0.357c-0.364,0.222-0.735,0.472-1.133,0.84
	c-1.506,0.276-2.212,0.925-2.814,1.333c-0.707,0.561-1.204,1.093-1.694,1.646c-0.449,0.605-1.352,1.407-1.466,3.708
	c-0.044,1.268,0.614,2.797,1.447,3.599c0.645,0.629,1.211,0.975,1.688,1.184c0.036,0.066,0.073,0.132,0.112,0.197
	c-0.002,0.075-0.004,0.152-0.004,0.233c-0.015,0.802,0.194,1.726,0.316,2.099c0.121,0.403,0.154,0.485,0.227,0.776
	c0.115,0.399,0.166,0.785,0.628,1.673c0.129,0.228,0.3,0.51,0.553,0.818c0.008,0.128,0.02,0.252,0.034,0.373
	c-0.259,0.655-0.42,1.397-0.401,2.059c0.04,1.496,0.447,2.151,0.503,2.365c0,0.001,0.001,0.003,0.002,0.005
	c0.138,0.55,0.387,1.282,0.942,2.064c0.441,0.632,1.081,1.18,1.576,1.485c0.124,0.524,0.314,1.12,0.604,1.666
	c0.236,0.562,0.793,1.315,1.263,1.815c-0.002,0.051-0.004,0.1-0.005,0.146c-0.314,0.567-0.753,1.53-0.919,2.908l0.002,0
	c-0.014,0.131-0.033,0.331-0.035,0.651c0.002,0.437,0.036,0.983,0.244,1.679c0.108,0.496,0.406,1.061,0.808,1.587
	c0.093,0.34,0.214,0.672,0.361,0.974c-0.007,0.138-0.012,0.289-0.015,0.455c-0.025,0.38,0.027,0.898,0.173,1.465
	c-0.324,0.391-0.606,0.832-0.795,1.303c-0.549,1.336-0.475,2.167-0.496,2.565c0.002,0.321,0.009,0.458,0.009,0.555
	c-0.008,0.518,0.067,1.124,0.241,1.725c-0.143,0.468-0.258,1.036-0.263,1.744c-0.017,0.906,0.272,2.055,0.818,2.906
	c0.281,0.44,0.571,0.783,0.843,1.051c0.128,0.268,0.279,0.555,0.448,0.827c0.182,0.295,0.354,0.599,0.794,1.099
	c0.119,0.13,0.259,0.277,0.444,0.44c0.093,0.516,0.284,1.12,0.692,1.811c-0.009,0.043-0.017,0.085-0.023,0.126
	c-1.149,0.88-1.823,2.18-1.942,3.541c-0.735,1.068-0.952,2.055-1.063,2.697c-0.078,0.471-0.109,0.938-0.107,1.325
	c0,0.382,0.023,0.662,0.033,0.806c0.001,0.015,0.002,0.028,0.003,0.04c-0.967,1.898-0.791,3.455-0.827,3.975
	c-0.005,0.78,0.12,1.773,0.54,2.735c0.389,0.912,0.976,1.597,1.308,1.935c0.118,0.416,0.273,0.811,0.449,1.14
	c0.051,0.115,0-0.015,0.063,0.173c0.059,0.182,0.198,0.673,0.433,1.318c0.184,0.479,0.398,1.057,1.05,1.852
	c0.146,0.19,0.371,0.403,0.628,0.616c0.157,0.247,0.318,0.49,0.486,0.724c0.125,0.615,0.349,1.184,0.609,1.607
	c0.778,1.228,1.458,1.563,1.838,1.816c0.688,0.386,0.9,0.422,1.067,0.493c0.015,0.006,0.029,0.012,0.042,0.017
	c0.675,0.547,1.31,0.941,1.871,1.229c0.095,0.36,0.229,0.737,0.416,1.102c0.213,0.426,0.458,0.795,0.713,1.112
	c0.015,0.095,0.03,0.178,0.044,0.247c0.062,1.255,0.934,3.111,2.242,3.895c1.374,0.893,2.376,0.889,2.983,0.912
	c0.112-0.002,0.217-0.006,0.315-0.011c0.49,0.181,1.087,0.326,1.831,0.384c0.301,0.165,0.589,0.395,1.688,0.713
	c0.559,0.14,1.025,0.162,1.329,0.162c0.073,0.001,0.146-0.001,0.22-0.004c0.728,0.532,1.433,0.779,1.963,0.902
	c0.174,0.135,0.357,0.259,0.551,0.372c0.021,0.013,0.646,0.377,1.371,0.776c0.367,0.2,0.754,0.407,1.147,0.604
	c0.152,0.077,0.306,0.151,0.479,0.229c0.311,0.522,0.695,1.098,1.312,1.727c0.153,0.153,0.326,0.315,0.523,0.479
	c-0.015,0.151-0.027,0.31-0.036,0.478c-0.002,0.409,0.05,1.066,0.291,1.776c0.01,0.034,0.021,0.08,0.028,0.11
	c0.056,0.919,0.249,1.359,0.409,1.815c0.299,0.71,0.618,1.273,1.235,1.968c0.319,0.342,0.718,0.72,1.349,1.093
	c0.62,0.362,1.544,0.747,2.735,0.749c1.338-0.004,2.349-0.48,2.981-0.896c0.271-0.049,0.755-0.158,1.28-0.382
	c0.688-0.286,1.33-0.737,1.832-1.202c0.342,1.186,0.542,2.499,0.516,2.605c0.005,1.593-0.141,2.466-0.155,3.963
	c0,0.34,0.009,0.77,0.069,1.275c0.035,0.338,0.042,0.501,0.042,0.612c-0.002,0.145-0.006,0.327-0.121,0.99
	c-0.099,0.604-0.087,0.758-0.109,1.096c-0.04,0.88-0.049,2.171-0.051,3.884c0,5.732,0.15,15.634,0.259,20.795l-30.499,17.791
	c-1.529,0.891-2.481,2.549-2.481,4.318s0.952,3.427,2.481,4.318l36,21.002c0.778,0.453,1.647,0.68,2.517,0.68
	c0.871,0,1.741-0.227,2.521-0.68l36-21.002c1.542-0.899,2.481-2.532,2.481-4.318s-0.938-3.419-2.481-4.318L70.432,220.96
	c-0.14-10.783-0.265-22.358-0.263-25.079c-0.002-2.457-0.069-4.921-0.069-6.926c-0.002-1.172,0.025-2.2,0.08-2.868
	c0.215-0.203,0.417-0.389,0.606-0.561c0.002-0.001,0.005-0.002,0.007-0.003c0.696-0.014,1.585-0.237,2.286-0.535
	c1.641-0.014,2.814-0.66,3.442-1.093c0.206-0.049,0.422-0.1,0.61-0.145c0.475,0,1.157,0,1.719,0
	c0.866,0.009,1.872-0.187,2.736-0.601c1.168-0.552,1.89-1.329,2.299-1.843c0.346-0.015,0.679-0.052,0.971-0.111l0.226-0.053
	c0.355-0.079,0.724-0.209,1.071-0.363c0.66,0.231,1.293,0.317,1.743,0.298c1.048-0.027,1.681-0.238,2.148-0.442
	c0.35,0.077,0.716,0.12,1.089,0.115c1.907-0.027,3.036-0.94,3.517-1.371c0.403-0.388,0.617-0.643,0.737-0.802
	c0.319-0.32,0.64-0.722,0.906-1.213c0.327-0.584,0.537-1.285,0.611-1.944c0.146-0.121,0.268-0.252,0.398-0.38
	c0.355-0.138,0.777-0.348,1.298-0.739c0.706-0.467,1.508-1.6,1.828-2.819c0.031-0.032,0.061-0.06,0.092-0.093
	c0.764-0.776,1.393-2.274,1.348-3.496c-0.026-1.224-0.351-1.974-0.604-2.452c0.913-0.512,1.759-1.318,2.13-2.125
	c0.62-1.211,0.622-2.049,0.64-2.595c-0.021-0.834-0.118-1.276-0.194-1.588c0.007-0.034,0.013-0.067,0.019-0.102
	c0.509-0.598,1.001-1.507,1.188-2.524c0.01-0.013,0.02-0.026,0.029-0.039c0.544-0.722,1.002-1.902,0.984-3.048
	c0-1.242-0.438-2.22-0.828-2.825c0.123-0.218,0.227-0.438,0.308-0.653c0.295-0.758,0.362-1.425,0.362-1.933
	c-0.005-0.235-0.019-0.444-0.038-0.632c0.003-0.009,0.006-0.018,0.009-0.026c0.012-0.031,0.022-0.062,0.033-0.092
	c0.093-0.085,0.152-0.139,0.152-0.139c1.312-1.179,1.866-2.913,1.588-4.557c0.081-0.352,0.133-0.741,0.134-1.179
	c0.017-0.546-0.092-1.136-0.284-1.691c0.261-0.232,0.505-0.495,0.712-0.785c0.772-0.989,1.23-2.489,1.196-3.639
	c-0.001-0.093-0.003-0.184-0.007-0.272c0.435-0.774,0.648-1.615,0.712-2.308c0.209-0.177,0.436-0.38,0.679-0.616
	c0.469-0.479,0.918-1.015,1.309-1.761c0.39-0.73,0.681-1.732,0.673-2.711c0.004-1.091-0.329-1.983-0.545-2.443
	c-0.103-0.223-0.183-0.368-0.223-0.439c-0.012-0.024-0.021-0.04-0.023-0.048l-0.002,0.001c-0.014-0.026-0.028-0.053-0.043-0.079
	c-0.018-0.418-0.067-0.775-0.134-1.084c0.135-0.473,0.21-0.972,0.203-1.438c0.001-0.597-0.103-1.143-0.259-1.62
	c1.373-1.369,1.697-2.673,2.025-3.797c0.045-0.191,0.084-0.385,0.113-0.583c0.055-0.084,0.106-0.168,0.155-0.251
	c0.494-0.328,0.974-0.757,1.359-1.294c0.806-1.095,1.034-2.337,1.023-3.158c-0.062-1.692-0.517-2.325-0.747-2.837
	c-0.023-0.043-0.047-0.084-0.069-0.125c0.012-0.023,0.023-0.047,0.036-0.07C115.841,107.9,115.936,107.609,115.978,107.488z"/>
<g>
	<path fill="#FFFFFF" d="M111.856,109.374c-0.066-0.341-0.234-0.742-0.507-1.041c0.239-0.232,0.382-0.428,0.482-0.513
		c0.664-0.731,0.762-1.336,0.82-1.427l0.069-0.321c0-0.025,0.123-1.219,0.123-2.199c0-0.118-0.002-0.231-0.007-0.342
		c0.613-0.581,0.662-1.267,0.666-1.655c-0.006-0.555-0.128-0.961-0.17-1.162c-0.344-1.052-1.053-1.172-1.322-1.269
		c-0.34-0.084-0.605-0.093-0.873-0.097c-0.36,0.002-0.709,0.036-1.033,0.088c-0.358,0.091-0.538,0.046-1.12,0.398
		c-0.146,0.101-0.349,0.25-0.52,0.485c-0.204,0.151-0.438,0.354-0.707,0.626c-0.286,0.273-0.496,0.604-0.634,0.892
		c-0.069,0.003-0.146,0.01-0.229,0.024c0.009-0.007,0.018-0.015,0.025-0.021c0.68-0.569,1.118-1.331,1.12-2.159
		c0-0.242-0.04-0.456-0.091-0.626c-0.162-0.538-0.595-0.898-0.92-1.05c-0.058-0.164-0.13-0.314-0.208-0.46
		c-0.213-0.354-0.433-0.694-0.995-1c-0.042-0.021-0.062-0.033-0.066-0.036l0.001,0c-0.015-0.019-0.067-0.09-0.147-0.229
		c-0.473-0.778-1.247-1.036-1.744-1.12c-0.469-0.08-0.876-0.08-1.253-0.08c-0.055-0.065-0.119-0.138-0.193-0.213
		c-0.229-0.24-0.692-0.555-1.28-0.552c-0.003,0-0.006,0-0.008,0.001c-0.036-0.276-0.107-0.466-0.178-0.602
		c0.078-0.229,0.125-0.468,0.146-0.722c1.141-0.433,1.521-1.379,1.579-2.382c0.004-0.319-0.062-0.664-0.198-0.992
		c0.05-0.151,0.083-0.325,0.087-0.521c-0.012-0.455-0.161-0.74-0.27-0.902c0.114-0.121,0.285-0.307,0.47-0.521
		c0.344-0.435,0.715-0.797,1.002-1.556c0.143-0.435,0.189-0.812,0.189-1.105c0-0.128-0.009-0.242-0.022-0.341
		c0.135-0.05,0.324-0.118,0.508-0.18c0.375-0.144,0.651-0.196,1.146-0.502c0.747-0.561,0.835-1.191,0.856-1.712
		c-0.007-0.454-0.124-1.03-0.583-1.499l0.018-0.072c0.021-0.109,0.034-0.228,0.034-0.352c0-0.019,0-0.038-0.001-0.057
		c0.137-0.085,0.28-0.188,0.441-0.346c0.2-0.202,0.533-0.588,0.548-1.263c-0.002-0.228-0.04-0.35-0.044-0.38l-0.038-0.143
		c-0.226-0.559-0.511-0.94-0.901-1.308c0.017-0.091,0.027-0.189,0.03-0.295c-0.037-0.951-0.681-1.331-0.873-1.432
		c-0.291-0.15-0.461-0.191-0.584-0.224c-0.005-0.044-0.01-0.088-0.017-0.132c0.369-0.037,0.76-0.108,1.17-0.251
		c0.454-0.086,1.251-0.858,1.194-1.658c-0.025-0.658-0.254-0.94-0.393-1.174c-0.449-0.609-0.89-1.073-0.879-1.134
		c-0.116-0.408-0.577-0.854-1.078-1.081c0.022-0.181,0.024-0.343,0.034-0.478c-0.002-0.189-0.015-0.36-0.034-0.515
		c0.003-0.002,0.005-0.003,0.005-0.003c0.033-0.023,0.424-0.169,0.837-0.375c0.419-0.224,0.953-0.508,1.406-1.166
		c0.329-0.521,0.428-0.871,0.5-0.976c0.078-0.11,0.015-0.072,0.221-0.194c0.266-0.139,0.498-0.253,0.785-0.495
		c0.491-0.363,0.733-1.185,0.721-1.436c0.031-0.304,0.034-0.47,0.118-0.871c0.059-0.278,0.097-0.521,0.097-0.803
		c0.007-0.321-0.065-0.937-0.611-1.415c-0.281-0.226-0.54-0.327-0.751-0.374c-0.004-0.039-0.01-0.079-0.017-0.12l-0.023-0.11
		c-0.067-0.327-0.315-0.787-0.685-1.046c-0.552-0.379-0.929-0.365-1.172-0.401c-0.028-0.034-0.058-0.065-0.088-0.096
		c0.366-0.344,0.714-0.768,0.924-1.472c0.072-0.31,0.08-0.54,0.083-0.753c-0.003-0.517-0.082-0.983-0.152-1.354
		c0.016-0.121,0.112-0.487,0.212-0.825c0.127-0.151,0.52-0.584,0.803-1.237c0.103-0.249,0.168-0.527,0.168-0.818
		c-0.024-0.905-0.524-1.398-0.813-1.66c0.01-0.076,0.016-0.158,0.019-0.249c0.062-0.5-0.406-1.291-0.841-1.474
		c-0.607-0.31-0.812-0.247-1.013-0.3c-0.189-0.029-0.331-0.057-0.479-0.111c-0.28-0.104-0.584-0.175-0.919-0.175
		c-1.013-0.019-1.697,0.75-1.854,1.01c-0.023,0.033-0.044,0.061-0.062,0.086c-0.295,0.104-0.463,0.151-0.563,0.146
		c-0.07-0.004-0.116-0.006-0.236-0.063c-0.255-0.128-0.567-0.245-0.975-0.247c-0.48-0.017-1.041,0.243-1.33,0.571
		c-0.669,0.87-0.603,1.415-0.615,1.903c-0.17,0.15-0.323,0.372-0.433,0.606c-0.111-0.01-0.225-0.007-0.336,0.008
		c0,0-0.021,0.004-0.06,0.008c-0.025-0.347-0.076-0.651-0.117-0.883c0.004-0.005,0.009-0.011,0.013-0.017
		c0.002,0,0.196-0.262,0.42-0.54c0.109-0.139,0.228-0.28,0.315-0.379c0.045-0.048,0.08-0.089,0.096-0.101l-0.004-0.004
		c0.574-0.477,1.122-0.978,1.237-2.267c0-0.135-0.013-0.247-0.025-0.34l-0.013-0.078c-0.016-0.076-0.03-0.143-0.042-0.199
		c0.005-0.008,0.011-0.016,0.017-0.024c0.231-0.361,0.651-0.82,0.966-1.546c0.078-0.21,0.122-0.417,0.12-0.637
		c0.013-0.643-0.409-1.177-0.698-1.364c-0.253-0.159-0.469-0.261-0.658-0.329c-0.223-0.294-0.503-0.508-0.723-0.578
		c-0.462-0.2-0.808-0.213-1.128-0.219c-0.504,0.004-0.93,0.078-1.36,0.222c-0.816,0.301-1.999,0.909-2.443,2.46
		c-0.155,0.645-0.279,1.533-0.325,2.4c-0.044,0.059-0.083,0.108-0.116,0.146c-0.645,0.789-0.645,1.522-0.666,2.134
		c0.004,0.401,0.041,0.816,0.085,1.189c-0.537,0.08-0.996,0.346-1.325,0.646c-0.262,0.106-0.522,0.263-0.693,0.463
		c-0.333,0.363-0.384,0.521-0.551,0.74c-0.164,0.253-0.402,0.567-0.421,1.202c-0.016,0.472,0.242,0.955,0.448,1.162
		c-0.08,0.221-0.161,0.44-0.237,0.644c-0.211,0.059-0.446,0.169-0.673,0.369c-0.234,0.203-0.386,0.462-0.474,0.714
		c-0.4,0.162-0.677,0.428-0.855,0.635c-0.775,1.038-0.957,1.951-1.022,2.868c0.049,0.957,0.249,1.28,0.205,1.324
		c0,0-0.003,0.031-0.011,0.095c-0.013,0.091-0.032,0.232-0.032,0.428c-0.002,0.222,0.032,0.563,0.216,0.907
		c0.262,0.458,0.562,0.636,0.698,0.719c-0.03,0.183-0.093,0.441-0.17,0.708c-0.149-0.011-0.327-0.021-0.526-0.022
		c-0.226,0-0.481,0.015-0.766,0.074c-0.477,0.093-1.01,0.339-1.379,0.792c-0.376,0.452-0.48,0.991-0.475,1.36
		c0.006,0.544,0.158,0.896,0.194,1.016c0.149,0.411,0.28,0.609,0.449,1.025c0.158,0.373,0.288,0.799,0.308,1.054
		c0.021,0.609,0.409,1.402,1.029,1.742c0.541,0.307,0.972,0.314,1.247,0.32c0.009,0.016,0.017,0.03,0.024,0.044
		c0.012,0.024,0.021,0.047,0.029,0.064c0.095,0.671,0.412,0.953,0.55,1.159c0.169,0.208,0.314,0.375,0.473,0.591
		c0,0.002,0,0.005,0,0.008c0.002,0.084-0.025,0.253-0.076,0.394c-0.022,0.072-0.051,0.137-0.073,0.182
		c-0.021,0.042-0.027,0.042-0.025,0.044c-0.411,0.559-0.557,1.017-0.774,1.428c-0.037,0.076-0.074,0.147-0.107,0.207
		c-0.218,0.07-0.436,0.16-0.662,0.278c-0.047,0.038-0.104,0.073-0.166,0.11c-0.107-0.102-0.208-0.169-0.272-0.23
		c-0.679-0.454-1.252-0.574-1.691-0.719c-0.59-0.168-1.172-0.213-1.745-0.215c-0.407,0-0.804,0.025-1.177,0.074
		c-0.633,0.07-1.204,0.487-1.482,0.942c-0.293,0.458-0.391,0.932-0.393,1.386c0.002,0.942,0.447,1.931,1.366,2.612
		c0.104,0.077,0.2,0.148,0.29,0.214c-0.166-0.006-0.341-0.014-0.526-0.024c-0.09-0.004-0.189-0.008-0.293-0.008
		c-0.524,0.004-1.048,0.071-1.562,0.388c-0.244,0.155-0.43,0.34-0.57,0.529c-0.002-0.006-0.003-0.012-0.005-0.019
		c-0.281-0.708-0.535-0.814-0.745-1.002c-0.007-0.174-0.034-0.516-0.179-0.961c-0.021-0.059-0.043-0.12-0.069-0.184
		c0.03-0.125,0.052-0.266,0.062-0.426c0.015-0.416-0.207-0.934-0.529-1.215c-0.153-0.138-0.306-0.232-0.45-0.3
		c0-0.01-0.001-0.02-0.002-0.029c-0.012-0.25-0.055-0.444-0.111-0.6c0.03-0.045,0.061-0.087,0.093-0.126
		c0.126-0.185,0.229-0.304,0.304-0.373c0.033,0.015,0.072,0.034,0.12,0.057c0.164,0.061,0.4,0.234,0.993,0.257
		c0.795-0.051,1.103-0.259,1.657-0.519c0.493-0.325,1.013-0.479,1.495-1.461c0.105-0.285,0.124-0.51,0.124-0.679
		c-0.014-0.215-0.042-0.396-0.078-0.552c0.156-0.108,0.297-0.244,0.397-0.407c0.303-0.483,0.278-0.81,0.291-1.004
		c-0.005-0.09-0.01-0.171-0.016-0.244c0.311,0.151,0.725,0.288,1.217,0.286c0.26-0.006,0.637-0.027,1.075-0.339
		c0.454-0.312,0.686-0.953,0.658-1.324c-0.101-1.038-0.444-1.183-0.683-1.561c-0.144-0.171-0.293-0.33-0.442-0.476
		c0.07-0.208,0.093-0.405,0.088-0.548c0-0.055,0-0.055,0-0.055l-0.015-0.208c-0.203-1.366-1.191-2.058-1.81-2.505
		c-0.095-0.068-0.187-0.129-0.275-0.186c-0.195-0.305-0.433-0.595-0.712-0.862c0.002-0.053,0.003-0.107,0.003-0.163
		c-0.002-0.312-0.013-0.67-0.182-1.128c-0.142-0.445-0.639-1.069-1.33-1.25c-0.203-0.059-0.407-0.083-0.593-0.083
		c-0.938,0.04-1.44,0.377-1.955,0.616c-0.055,0.028-0.107,0.056-0.158,0.083c-0.02-0.029-0.038-0.058-0.057-0.088
		c-0.25-0.303-0.437-0.555-0.723-0.799c-0.032-0.135-0.078-0.258-0.133-0.37c0.149-0.061,0.304-0.126,0.457-0.195
		c0.637-0.196,1.402-1.12,1.335-1.917c-0.008-0.38-0.084-0.635-0.148-0.818c0.541-0.51,0.688-1.157,0.702-1.581
		c0.854-0.339,1.254-0.826,1.9-1.337c0.308-0.266,0.706-0.745,0.715-1.463c-0.002-0.652-0.35-1.107-0.586-1.324
		c-0.089-0.076-0.175-0.143-0.258-0.203c0.016-0.021,0.029-0.038,0.04-0.051c0.001-0.001,0.002-0.002,0.003-0.003
		c0.171-0.094,0.502-0.244,0.877-0.484c0.377-0.251,1.124-0.791,1.161-1.923c-0.002-0.609-0.263-1.104-0.552-1.472
		c-0.365-0.504-1.099-0.881-1.717-0.856c-0.717,0.039-1.166,0.265-1.505,0.492c-0.068-0.26-0.195-0.625-0.416-0.995
		c0.125-0.1,0.307-0.252,0.506-0.444c0.329-0.371,0.797-0.698,1.027-1.7c0.029-0.179,0.036-0.337,0.036-0.464
		c0-0.047-0.002-0.094-0.004-0.14c0.64-0.33,0.683-0.629,0.83-0.807c0.231-0.442,0.438-0.877,0.563-1.094c0.023,0,0.049,0,0.077,0
		c0.06,0,0.125,0,0.194,0c0.162-0.006,0.342,0.017,0.733-0.086c0.192-0.059,0.479-0.169,0.762-0.468
		c0.289-0.293,0.447-0.774,0.433-1.109c-0.087-1.046-0.494-1.284-0.718-1.639c-0.261-0.314-0.508-0.588-0.666-0.816
		c-0.302-0.506-1.107-0.945-1.697-0.9c-0.671,0.023-0.982,0.211-1.253,0.293c-0.264,0.097-0.449,0.152-0.619,0.165
		c-0.465,0.046-0.958,0.137-1.458,0.531c-0.057,0.044-0.11,0.092-0.16,0.143c-0.077-0.23-0.21-0.444-0.366-0.624
		c0.028-0.116,0.039-0.229,0.027-0.333c-0.025-0.59-0.207-0.805-0.323-1.016c-0.003-0.005-0.007-0.01-0.01-0.016
		c0.375-0.382,0.62-0.776,0.764-1.028c0.546-0.132,1.005-0.325,1.37-0.506c0.102-0.031,0.507-0.133,0.892-0.249
		c0.229-0.074,0.468-0.149,0.77-0.318c0.149-0.088,0.325-0.198,0.525-0.422c0.193-0.213,0.43-0.62,0.426-1.113
		c-0.001-0.033,0.003-0.083,0.01-0.128c0.285-0.322,0.49-0.814,0.458-1.168c-0.027-0.478-0.137-0.738-0.24-0.921
		c0.306-0.423,0.355-0.85,0.356-1.088c0.019-0.45-0.164-0.882-0.504-1.181c0,0-0.111-0.1-0.301-0.288
		c0.154-0.167,0.278-0.352,0.425-0.56c0.282-0.458,0.513-1.054,0.534-1.766c0.021-0.02,0.049-0.045,0.082-0.075
		c0.131-0.125,0.35-0.333,0.544-0.66c0.158-0.268,0.291-0.624,0.289-1.025c-0.013-0.873-0.553-1.394-0.864-1.625
		c-0.272-0.207-0.52-0.341-0.767-0.47c-0.073-0.348-0.274-0.678-0.477-0.841c-0.581-0.416-0.823-0.412-0.997-0.405
		c-0.059,0.002-0.111,0.004-0.166-0.011c-0.166,0.001-0.306,0.014-0.442,0.033c0.22-0.403,0.369-0.885,0.41-1.505
		c0.003-0.365-0.071-0.749-0.228-1.113c-0.015-0.033-0.03-0.066-0.047-0.1c0.025-0.116,0.045-0.243,0.058-0.383
		c0.034-0.59-0.415-1.254-0.844-1.463c-0.426-0.24-0.768-0.266-1.07-0.27c-0.78-0.002-1.548,0.095-2.215,0.599
		c-0.643,0.521-0.824,1.029-1.044,1.392c-0.088,0.162-0.176,0.321-0.262,0.481c-0.054-0.425-0.195-0.629-0.295-0.829
		c-0.175-0.293-0.379-0.559-0.552-0.769c0.576-0.488,0.879-1.039,0.964-1.165c0.173-0.249,0.303-0.647,0.295-0.975
		c-0.065-0.871-0.369-1.056-0.46-1.259c-0.085-0.128-0.165-0.248-0.253-0.402c0.044-0.066,0.09-0.141,0.135-0.224
		c0.062-0.196,0.515-0.707,0.546-1.708c0-0.173-0.017-0.302-0.029-0.395l-0.017-0.09c-0.114-0.656-0.698-1.132-1.053-1.244
		c-0.373-0.144-0.634-0.15-0.872-0.154c-0.257,0.002-0.496,0.026-0.728,0.064C70.63,8.708,70.175,8.531,69.556,8.5
		c-0.22,0-0.489,0.027-0.806,0.165c-0.087,0.038-0.311,0.091-0.651,0.222c-0.141,0.06-0.313,0.127-0.526,0.282
		c-0.174-0.018-0.356-0.028-0.55-0.027c-0.451-0.002-0.963,0.053-1.534,0.179c-0.5,0.105-1.029,0.333-1.43,0.789
		c-0.405,0.456-0.532,1.046-0.523,1.432c0.001,0.195,0.021,0.358,0.045,0.494c-0.108,0.146-0.237,0.326-0.363,0.517
		c-0.27,0.453-0.635,0.955-0.671,1.879c0.002,0.022-0.003,0.134,0.022,0.302c0.075,0.594,0.078,1.105,0.169,1.751
		c-0.019,0.021-0.036,0.043-0.054,0.064c-0.229-0.252-0.614-0.546-1.293-0.579c-1.048,0.055-1.457,0.729-1.672,1.101
		c-0.112,0.198-0.375,0.584-0.635,1.031c-0.244,0.462-0.555,0.97-0.578,1.818c0,0.025,0,0.066,0.002,0.122
		c-0.228,0.603-0.384,1.181-0.632,1.716c-0.147,0.325-0.253,0.694-0.253,1.103c-0.002,0.378,0.092,0.704,0.219,0.973
		c-1.085,0.564-1.372,1.451-1.613,2.091c-0.223,0.677-0.35,1.322-0.442,1.585c-0.306,1.012-0.538,1.993-0.799,2.288
		c-0.658,0.951-0.808,1.967-0.838,3.049c0.009,0.677,0.08,1.362,0.424,2.069c0.148,0.304,0.315,0.558,0.453,0.746
		c-0.03,0.223-0.03,0.417-0.033,0.601c0,0.31,0.015,0.584,0.015,0.806c0,0.094-0.003,0.175-0.008,0.238
		c-0.002,0-0.004,0.001-0.006,0.002c-0.12-0.011-0.294-0.031-0.53-0.063c-0.124-0.019-0.262-0.034-0.426-0.034
		c-0.527-0.101-1.564,0.473-1.748,1.044c-0.238,0.504-0.245,0.753-0.329,1.05c-0.055,0.217-0.082,0.443-0.082,0.662
		c0.004,0.651,0.224,1.12,0.327,1.368c0.047,0.104,0.076,0.176,0.088,0.208c0.08,1.196,0.658,1.776,0.797,2.149
		c0.051,0.1,0.102,0.191,0.152,0.276c-0.097,0.086-0.188,0.181-0.267,0.281c-0.091,0.051-0.184,0.105-0.277,0.166
		c-0.039-0.022-0.076-0.042-0.112-0.059c-0.054-0.148-0.119-0.285-0.191-0.432c-0.097-0.179-0.207-0.356-0.405-0.559
		c-0.195-0.179-0.508-0.502-1.225-0.531c-0.083-0.007-0.418,0-0.776,0.113c-0.106-0.188-0.233-0.401-0.439-0.604
		c0.04-0.122,0.083-0.255,0.125-0.389c0-0.021,0.078-0.177,0.243-0.47c0.147-0.299,0.415-0.734,0.43-1.463
		c0.007-0.437-0.147-0.934-0.415-1.31c-0.033-0.047-0.067-0.092-0.104-0.135c-0.036-0.093-0.083-0.193-0.146-0.299
		c-0.238-0.456-0.94-0.808-1.379-0.766c-0.731,0.044-0.915,0.283-1.101,0.386c-0.121,0.09-0.199,0.162-0.246,0.208
		c-0.594,0.261-1.01,0.608-1.351,0.876c-0.457,0.39-0.773,0.827-1.043,1.289c-0.251,0.486-0.484,0.867-0.519,1.626
		c-0.007,0.011-0.014,0.022-0.021,0.035c-0.167,0.302-0.629,0.818-0.882,0.975c-0.468,0.316-1.066,0.843-1.094,1.805
		c0.004,0.4,0.123,0.721,0.272,0.968c-0.121,0.087-0.24,0.188-0.351,0.297c0.002-0.042,0.001-0.082-0.003-0.121
		c-0.04-0.744-0.303-1-0.464-1.25c-0.421-0.534-0.889-0.893-1.077-1.037c-0.008-0.008-0.018-0.018-0.031-0.032
		c-0.072-0.074-0.19-0.211-0.253-0.31c-0.013-0.02-0.022-0.037-0.029-0.05c-0.006-0.34,0-0.728-0.336-1.293
		c-0.029-0.039-0.058-0.076-0.086-0.111c0.126-0.202,0.221-0.406,0.306-0.602c0.195-0.502,0.301-0.985,0.306-1.508
		c0-0.609-0.296-1.082-0.555-1.35c-0.822-0.766-1.544-0.894-2.392-0.949c-0.242,0.006-0.517,0.01-0.915,0.177
		c-0.246,0.099-0.537,0.236-0.778,0.333c-0.069,0.027-0.134,0.051-0.187,0.07c-0.062-0.022-0.143-0.054-0.234-0.091
		c-0.254-0.074-0.409-0.217-1.063-0.253c-0.713,0.042-0.902,0.257-1.177,0.42c-0.687,0.527-1.366,1.381-1.52,2.722
		c-0.023,0.247-0.034,0.477-0.032,0.677c-0.002,0.409,0.04,0.747,0.076,0.972c0.005,0.027,0.009,0.053,0.013,0.077
		c-0.093,0.172-0.249,0.454-0.402,0.737c-0.234,0.496-0.549,0.98-0.585,1.876c-0.023,0.344,0.099,0.801,0.346,1.178
		c-0.194,0.106-0.364,0.229-0.493,0.355c-0.404,0.377-0.567,0.637-0.719,0.78c-0.217,0.245-0.584,0.576-0.62,1.368
		c0,0.04,0.001,0.079,0.003,0.117c-0.002,0.001-0.005,0.002-0.007,0.003c-0.88,0.479-1.571,1.219-2.315,2.022
		c-0.354,0.396-0.675,0.789-0.937,1.155c-0.131,0.186-0.246,0.361-0.354,0.559c-0.093,0.221-0.238,0.369-0.271,0.968
		c-0.021,0.569,0.268,1.109,0.444,1.344c0.075,0.273,0.189,0.423,0.274,0.579c0.329,0.476,0.687,0.837,1.108,1.154
		c0.023,0.138,0.05,0.257,0.07,0.371c0,0.129-0.01,0.262-0.021,0.362c-0.071,0.075-0.167,0.179-0.274,0.305
		c-0.239,0.109-0.645,0.382-0.872,0.659c-0.152-0.05-0.313-0.076-0.479-0.067c-0.643,0.025-0.93,0.27-1.143,0.421
		c-0.573,0.487-0.82,0.949-1.107,1.43c-0.081,0.14-0.145,0.239-0.226,0.343c-0.313,0.113-0.659,0.281-1.041,0.642
		c-0.306,0.326-0.455,0.614-0.562,0.871c-0.321,0.338-0.599,0.765-0.629,1.463c-0.005,0.084,0,0.17,0.013,0.256
		c-0.009,0.012-0.012,0.017-0.011,0.018c-0.519,0.618-1.946,2.235-2.528,2.741c-0.367,0.304-0.78,0.883-0.776,1.59
		c0.034,0.616,0.233,0.985,0.412,1.228c-0.007,0.005-0.013,0.01-0.02,0.015c-0.268,0.183-0.731,0.696-0.729,1.408
		c0.026,0.399,0.115,0.658,0.206,0.831c-0.067,0.137-0.146,0.32-0.208,0.572c-0.03,0.107-0.056,0.276-0.053,0.445
		c0.025,0.749,0.299,1.154,0.566,1.55c0.195,0.266,0.42,0.507,0.677,0.724c-0.013,0.147-0.04,0.353-0.048,0.664
		c0.006,0.141-0.004,0.339,0.12,0.681l0.006-0.002c0.354,0.802,0.728,0.925,1.086,1.185c0.224,0.12,0.434,0.233,0.693,0.313
		c-0.014,0.13-0.021,0.262-0.021,0.398c-0.096-0.012-0.195-0.018-0.298-0.018c-0.578,0.004-1.076,0.173-1.624,0.424
		c-0.262,0.125-0.508,0.255-0.776,0.502c-0.257,0.226-0.588,0.702-0.584,1.299c0.049,0.606,0.249,0.95,0.441,1.165
		c-0.106,0.17-0.25,0.391-0.389,0.61c-0.179,0.302-0.333,0.5-0.502,0.964c-0.135,0.449-0.103,0.624-0.115,0.9
		c0.002,0.597,0.071,1.324,0.143,1.906c0.003,0.017,0.011,0.118,0.011,0.242c0,0.022,0,0.044,0,0.067
		c-0.259-0.083-0.495-0.104-0.704-0.105c-0.726,0.017-1.275,0.229-1.813,0.538c-0.37,0.273-0.883,0.526-1.145,1.251
		c-0.251-0.027-0.482-0.038-0.686-0.039c-0.85,0.032-1.31,0.386-1.748,0.707c-0.431,0.339-0.822,0.744-1.229,1.204
		c-0.244,0.306-0.559,0.639-0.593,1.398c-0.013,0.417,0.198,0.909,0.473,1.174c0.675,0.57,1.077,0.57,1.374,0.574
		c0.071,0.173,0.172,0.359,0.353,0.564c0.079,0.096,0.19,0.192,0.323,0.278l0.073,0.243c0.139,0.454,0.48,0.807,0.911,0.968
		c-0.106,0.247-0.194,0.537-0.226,0.862c-0.021,0.179-0.033,0.356-0.033,0.548c-0.007,0.422,0.084,0.831,0.17,1.107
		c0.085,0.287,0.165,0.515,0.267,0.926c0.073,0.276,0.122,0.494,0.297,0.822c0.096,0.294,0.732,0.901,1.408,0.9
		c-0.165,0.275-0.381,0.573-0.43,1.312c0.004,0.522,0.197,0.906,0.348,1.16c-0.378,0.374-0.709,0.911-0.706,1.568
		c0.107,1.095,0.384,1.204,0.373,1.398c0.046,0.61,0.702,1.498,1.225,1.679c0.454,0.213,0.439,0.175,0.627,0.312
		c0.575,0.46,0.521,0.542,0.544,0.588c0.044,0.042-0.038,0.989,0.495,2.058c0.228,0.493,0.602,0.928,0.842,1.113
		c0.224,0.194,0.082,0.051,0.179,0.171c0.114,0.177,0.105,0.194,0.253,0.483c0.048,0.17,0.288,0.436,0.567,0.648
		c-0.033,0.077-0.059,0.15-0.075,0.219c-0.148,0.485-0.142,0.841-0.146,1.143c0,0.184,0.002,0.35,0.002,0.481
		c0,0.094-0.003,0.168-0.006,0.206c-0.104,0.227-0.759,1.009-0.929,2.297c-0.008,0.063-0.019,0.165-0.019,0.312
		c-0.005,0.354,0.069,0.923,0.542,1.402c0.104,0.089,0.205,0.163,0.301,0.224c0,0.025,0,0.051,0,0.077
		c-0.043,0.723,0.436,1.429,0.671,1.653c-0.013,0.263-0.104,0.721-0.116,1.336c-0.021,0.504,0.18,1.284,0.732,1.786
		c0.221,0.205,0.453,0.356,0.695,0.474c-0.073,0.052-0.245,0.172-0.455,0.309c-0.274,0.184-0.631,0.403-0.797,0.487
		c-0.395,0.179-0.88,0.595-1.089,1.109c-0.211,0.506-0.198,0.886-0.204,1.168c0,0.206,0.009,0.375,0.009,0.555
		c-0.05,0.613,0.278,1.263,0.578,1.63c-0.112,0.204-0.253,0.48-0.383,0.813c-0.12,0.306-0.215,0.633-0.217,1.027
		c-0.047,0.751,0.551,1.51,0.888,1.685c0.055,0.038,0.104,0.07,0.146,0.097c0.092,0.247,0.27,0.69,0.584,1.215
		c0.114,0.189,0.215,0.348,0.386,0.54c0.169,0.156,0.437,0.535,1.246,0.582c0.044,0.001,0.087-0.001,0.129-0.004
		c-0.055,0.24-0.1,0.515-0.116,0.812c-0.004,0.046-0.013,0.137-0.013,0.266c0.007,0.352,0.032,0.77,0.361,1.257
		c0.255,0.403,0.754,0.652,1.15,0.723c0.013,0.06,0.025,0.12,0.04,0.183c-0.557,0.419-0.866,1.237-0.832,1.769
		c0.001,0.254,0.035,0.454,0.065,0.601c-0.077,0.118-0.178,0.264-0.269,0.382c-0.059,0.078-0.112,0.147-0.155,0.201l-0.962,0.729
		c-0.593,0.449-0.766,1.266-0.409,1.917c0,0.001,0.018,0.033,0.045,0.087c-0.735,0.41-1.301,1.375-1.32,2.032
		c-0.045,0.27-0.062,0.527-0.062,0.751c0.004,0.455,0.047,0.723,0.042,0.896c0.036,0.272-0.164,1.228-0.213,1.229
		c-0.673,1.048-0.607,2.064-0.617,2.695c-0.068,0.912,0.459,1.912,0.894,2.269c0.305,0.282,0.549,0.418,0.716,0.495
		c-0.006,0.063-0.01,0.135-0.01,0.211c-0.006,0.382,0.108,0.854,0.318,1.255c0.274,0.544,0.251,0.719,0.665,1.887
		c0.093,0.247,0.195,0.492,0.43,0.774c0.114,0.146,0.314,0.312,0.564,0.438c0.397,0.69,0.846,1.322,1.326,1.875
		c-0.02,0.094-0.039,0.19-0.052,0.304c0,0.643,0.39,1.075,0.582,1.225c0.373,0.285,0.522,0.297,0.675,0.369
		c0.413,0.149,0.723,0.27,0.946,0.475c0.795,0.707,1.626,1.086,2.175,1.282c0.194,0.27,0.475,0.605,0.855,0.925
		c0.039,0.032,0.07,0.059,0.096,0.08c-0.004,0.05-0.007,0.102-0.009,0.156c-0.078,0.644,0.424,1.746,1.115,2.195
		c0.073,0.06,0.146,0.112,0.219,0.161c-0.051,0.193-0.073,0.384-0.069,0.543c0.005,0.371,0.074,0.597,0.098,0.724
		c0.015,0.065,0.022,0.104,0.024,0.122h0.002c-0.029,0.412,0.257,1.084,0.713,1.358c0.439,0.286,0.778,0.293,1.009,0.301
		c0.366-0.014,0.619-0.071,0.828-0.139c0.399,0.247,0.96,0.48,1.725,0.533c0.314,0.002,0.376,0.017,0.411,0.021
		c0.008,0,0.124,0.031,0.296,0.053c0.104,0.06,0.272,0.162,0.446,0.268c0.267,0.146,0.462,0.304,0.979,0.453
		c0.194,0.049,0.361,0.057,0.479,0.057c0.554,0,1.162-0.278,1.521-0.791c0.003,0.004,0.006,0.008,0.009,0.012
		c0.023,0.471,0.282,1.212,0.925,1.564c0.522,0.268,0.85,0.266,1.057,0.264c0.055-0.003,0.103-0.003,0.143,0.004
		c0.032,0,0.059-0.001,0.08-0.002c0.065,0.001,0.105,0.003,0.126,0.005c0.01,0.005,0.018,0.01,0.026,0.015
		c0.127,0.279,0.338,0.519,0.609,0.678c0.006,0.003,0.616,0.359,1.295,0.732c0.339,0.186,0.697,0.377,1.019,0.537
		c0.341,0.156,0.513,0.271,0.958,0.384c0.136,0.079,0.332,0.184,0.609,0.314c0.051,0.228,0.138,0.502,0.286,0.746
		c0.468,0.758,1.021,1.733,2.443,2.048c0.133,0.021,0.255,0.031,0.371,0.031c0.153-0.002,0.295-0.019,0.424-0.045
		c-0.002,0.156,0.021,0.305,0.049,0.425c-0.013,0.036-0.026,0.075-0.04,0.112c0,0-0.001,0.001-0.001,0.002
		c-0.078,0.092-0.169,0.207-0.265,0.341c-0.228,0.361-0.578,0.795-0.614,1.686c0,0.171,0.021,0.424,0.121,0.691
		c0.126,0.354,0.193,0.881,0.186,0.886c0.042,0.729,0.24,1.001,0.501,1.432c0.287,0.344,0.629,0.924,1.74,1.004
		c0.801-0.041,1.21-0.391,1.462-0.656c0.223-0.035,0.479-0.085,0.73-0.157c0.067-0.01,0.271-0.034,0.567-0.134
		c0.369-0.128,0.762-0.386,1.08-0.713c0.413-0.413,0.633-0.87,0.742-1.108c0.057-0.12,0.091-0.19,0.105-0.213l-0.002-0.001
		c0.248-0.259,0.432-0.5,0.577-0.678c0.4-0.02,0.95-0.083,1.553-0.323c0.155,0.051,0.429,0.181,0.802,0.336l-0.001,0.001
		c0.068,0.026,0.371,0.192,0.674,0.393c0.735,1.518,1.866,5.399,1.819,6.879c0,1.777-0.15,2.848-0.155,3.964
		c0,0.269,0.007,0.556,0.045,0.866c0.044,0.409,0.066,0.722,0.066,1.02c0,0.416-0.044,0.846-0.174,1.598
		c-0.067,0.426-0.067,0.816-0.088,1.573c-0.013,0.725-0.02,1.679-0.02,2.8c0,6.58,0.202,18.894,0.306,22.778l-32.283,18.83
		c-0.464,0.27-0.744,0.761-0.744,1.297c0,0.535,0.282,1.023,0.744,1.295l36.001,21c0.233,0.136,0.493,0.203,0.755,0.203
		c0.261,0,0.521-0.067,0.755-0.203l36-21c0.463-0.271,0.745-0.76,0.745-1.295c0-0.536-0.282-1.027-0.745-1.297l-33.801-19.717
		c-0.149-11.32-0.291-24.16-0.289-27.106c-0.002-2.393-0.069-4.848-0.069-6.925c0-1.381,0.031-2.598,0.12-3.469
		c0.044-0.434,0.104-0.78,0.161-0.983c0.015-0.056,0.029-0.1,0.04-0.13c0.659-0.663,1.419-1.366,1.945-1.822
		c0.367-0.166,0.715-0.318,0.98-0.419c0.155-0.062,0.284-0.104,0.362-0.124c0.002-0.001,0.004-0.001,0.006-0.002
		c0.113,0.01,0.224,0.014,0.329,0.013c0.498,0.019,1.093-0.167,1.426-0.396c0.161-0.105,0.268-0.187,0.354-0.252
		c0.109,0.04,0.224,0.071,0.343,0.086c0.167,0.025,0.299,0.031,0.408,0.031c0.859-0.004,1.432-0.441,1.7-0.651
		c0.093-0.075,0.166-0.134,0.212-0.171c0.458-0.113,1.368-0.327,1.739-0.413c0.394,0,1.368,0,2.125,0
		c0.872,0.033,1.729-0.448,2.127-0.921c0.418-0.465,0.6-0.824,0.742-0.99c0.399-0.452,0.467-0.509,0.885-0.536
		c0.188,0,0.343-0.024,0.51-0.041c0.167,0.032,0.341,0.056,0.529,0.056c0.181,0,0.354-0.019,0.508-0.052l0.067-0.016
		c0.573-0.135,1.08-0.438,1.39-0.688c0.245-0.19,0.41-0.336,0.624-0.494c0.18,0.265,0.368,0.415,0.437,0.505
		c0.362,0.384,0.907,0.515,1.228,0.502c0.942-0.069,1.204-0.404,1.568-0.637c0.132-0.108,0.247-0.207,0.354-0.308
		c0.241,0.277,0.652,0.598,1.316,0.617c0.609-0.006,0.985-0.301,1.166-0.464c0.281-0.266,0.361-0.421,0.433-0.508
		c0.009-0.013,0.017-0.022,0.023-0.031c0.359-0.281,0.702-0.86,0.679-1.396c-0.048-0.859-0.425-1.171-0.627-1.414
		c0.122-0.016,0.256-0.035,0.399-0.06c0.472-0.016,1.609-0.527,2.174-1.451c0.109-0.009,0.228-0.023,0.378-0.057
		c0.166-0.046,0.39-0.101,0.69-0.326c0.299-0.202,0.644-0.758,0.619-1.267c-0.027-0.266-0.076-0.468-0.135-0.633
		c0.087-0.03,0.176-0.061,0.273-0.1c0.217-0.098,0.462-0.227,0.717-0.5c0.257-0.266,0.458-0.749,0.445-1.149
		c-0.093-1.002-0.458-1.151-0.56-1.362c-0.141-0.177-0.186-0.259-0.188-0.259c-0.116-0.409-0.53-0.818-0.986-1.054
		c-0.026-0.049-0.06-0.106-0.104-0.178c-0.091-0.243-0.692-0.686-1.188-0.718c0.223-0.34,0.382-0.721,0.414-1.278
		c0.002-0.268-0.07-0.635-0.31-0.985c0.512-0.085,0.878-0.303,1.126-0.518c0.194,0.238,0.402,0.37,0.628,0.544
		c0.384,0.243,0.82,0.471,1.501,0.487c0.135,0,0.26-0.013,0.364-0.029c0.513-0.076,1.049-0.475,1.242-0.886
		c0.207-0.404,0.218-0.711,0.222-0.938c-0.039-0.861-0.282-1.405-0.305-1.681c0.093-0.205,0.216-0.553,0.195-0.873
		c0.021-0.242-0.048-0.492-0.164-0.721c0.295-0.141,0.567-0.307,0.832-0.575c0.28-0.281,0.544-0.776,0.536-1.297
		c-0.015-0.209-0.048-0.391-0.095-0.549c0.045-0.024,0.09-0.049,0.135-0.076c0.331-0.189,0.89-0.715,0.894-1.528
		c-0.044-0.886-0.502-1.228-0.717-1.432c-0.377-0.306-0.688-0.445-0.951-0.586c-0.128-0.067-0.242-0.125-0.318-0.167
		c-0.038-0.021-0.065-0.036-0.078-0.046c-0.13-0.107-0.281-0.201-0.443-0.279c0.062-0.072,0.114-0.148,0.157-0.229
		c0.228-0.404,0.243-0.716,0.249-0.924c0.04,0.001,0.085,0.002,0.132,0.003c0.285-0.005,0.724-0.036,1.189-0.405
		c0.477-0.377,0.642-1.004,0.622-1.346c-0.03-0.536-0.146-0.839-0.279-1.127c0.527-0.566,0.608-1.232,0.636-1.46
		c0.001-0.009,0.002-0.017,0.003-0.024c0.367-0.351,0.957-0.881,0.957-0.882c0.564-0.509,0.662-1.36,0.223-1.98
		c0,0-0.009-0.013-0.025-0.036c0.075-0.114,0.146-0.239,0.211-0.379c0.085-0.207,0.152-0.445,0.152-0.736
		c0.013-0.926-0.77-1.53-1.099-1.632c-0.511-0.214-0.848-0.243-1.174-0.305c0.193-0.083,0.391-0.181,0.588-0.296
		c0.497-0.298,0.911-0.73,1.119-1.074c0.151-0.246,0.203-0.348,0.265-0.438c0.077-0.015,0.197-0.038,0.368-0.088
		c0.278-0.076,0.753-0.314,1.052-0.732c0.329-0.428,0.518-1.026,0.505-1.55c-0.002-0.454-0.096-0.854-0.228-1.248
		c0.223-0.16,0.453-0.383,0.643-0.693c0.231-0.391,0.316-0.827,0.312-1.158c-0.027-0.496-0.112-0.836-0.186-1.072
		c0.403-0.321,1.215-0.872,1.866-1.496c0.538-0.537,0.956-1.206,0.958-1.999c-0.023-0.86-0.424-1.284-0.391-1.303
		c-0.154-0.312-0.377-0.526-0.592-0.668c0.114-0.289,0.162-0.581,0.153-0.816c-0.029-0.727-0.249-1.171-0.388-1.405l-0.026-0.067
		c0.08-0.124,0.164-0.263,0.252-0.417c0.142-0.242,0.229-0.564,0.226-0.855c-0.051-0.956-0.584-1.318-0.842-1.527
		c-0.679-0.463-1.394-0.701-2.096-0.969c0.41-0.167,0.962-0.39,1.619-0.722c0.269-0.137,0.427-0.194,0.487-0.211
		c0.002,0,0.003-0.001,0.005-0.001c0.025,0.001,0.069,0.004,0.145,0.005c0.321,0.03,0.924-0.186,1.147-0.39
		c0.854-0.686,1.16-1.531,1.402-2.44c0.046-0.194,0.071-0.382,0.071-0.582c0.005-0.187-0.02-0.363-0.063-0.525
		c0.194-0.123,0.395-0.294,0.551-0.522c0.288-0.453,0.321-0.786,0.335-0.955c0.086-0.018,0.182-0.041,0.285-0.07
		c0.346-0.097,0.751-0.325,1.019-0.7c0.274-0.371,0.354-0.795,0.352-1.092c-0.093-1.157-0.559-1.455-0.594-1.59
		C112.201,109.612,112.039,109.474,111.856,109.374z M89.355,168.734c-0.122,0.106-0.261,0.234-0.406,0.389
		c-0.066-0.012-0.147-0.027-0.241-0.045c0.096-0.182,0.245-0.456,0.396-0.731c0.054,0.026,0.103,0.041,0.152,0.06
		C89.287,168.518,89.309,168.638,89.355,168.734z M96.289,57.66c-0.097,0.127-0.203,0.266-0.307,0.42
		c0.002-0.049,0.004-0.098,0.006-0.144c-0.018-0.221-0.03-0.419-0.055-0.611c0.09,0.014,0.186,0.022,0.286,0.024
		c0.13,0,0.252-0.013,0.366-0.033C96.49,57.422,96.388,57.539,96.289,57.66z M80.423,85.962c-0.032,0.05-0.056,0.083-0.07,0.102
		c-0.526,0.332-0.677,0.417-0.823,0.436c-0.211,0.04-0.706,0.088-1.266,0.253c-0.218,0.069-0.473,0.156-0.733,0.293
		c-0.32-0.207-0.571-0.315-0.785-0.373c0.011-0.015,0.021-0.029,0.032-0.045c0.125-0.166,0.205-0.373,0.253-0.559
		c0.019-0.021,0.036-0.042,0.054-0.062c0.181,0.024,0.345,0.034,0.501,0.034c1.353-0.042,2.481-0.583,3.085-0.92
		c0.106,0.009,0.228,0.019,0.356,0.029C80.709,85.495,80.524,85.812,80.423,85.962z M73.949,26.853
		c-0.03-0.074-0.064-0.145-0.102-0.213c0.31-0.155,0.508-0.354,0.645-0.465c0.156-0.141,0.287-0.267,0.429-0.392
		c0,0.034,0,0.068,0.001,0.103C74.446,26.199,74.154,26.532,73.949,26.853z M42.126,56.922c0.539-0.029,1.001-0.122,1.449-0.305
		c0.062,0.415,0.219,0.714,0.412,0.955c-0.197-0.06-0.409-0.079-0.621-0.053c-0.502,0.061-0.938,0.371-1.162,0.824
		c-0.005,0.016-0.017,0.041-0.032,0.075c-0.188-0.064-0.377-0.092-0.524-0.088c-0.524,0.021-0.693,0.156-0.839,0.211
		c-0.314,0.163-0.438,0.236-0.588,0.279c-0.151,0.004-0.309,0.023-0.464,0.056c0.009-0.13,0.019-0.238,0.027-0.325
		c0.038,0.002,0.077,0.004,0.117,0.004c0.136,0,0.276-0.017,0.387-0.038l0.086-0.019c0.717-0.203,1.065-0.641,1.299-1.025
		c0.103-0.182,0.183-0.369,0.241-0.563C41.991,56.916,42.061,56.918,42.126,56.922z M93.232,161.527
		c-0.049-0.026-0.104-0.062-0.15-0.082c0.095-0.018,0.194-0.039,0.298-0.064c0.021,0.023,0.048,0.038,0.069,0.06
		C93.37,161.465,93.302,161.496,93.232,161.527z M112.185,102.998h-0.005l-0.396-0.531l0,0L112.185,102.998z M51.835,51.469
		c-0.013,0.086-0.021,0.207-0.021,0.333c-0.007,0.118,0,0.237,0.018,0.357c-0.282-0.25-0.621-0.444-0.992-0.534
		c0.029-0.121,0.053-0.244,0.07-0.37c0.561-0.166,0.983-0.526,1.263-0.893C52.019,50.65,51.864,51.042,51.835,51.469z"/>
</g>
</svg>
