<?xml version="1.0" encoding="utf-8"?>
<!-- Generator: Adobe Illustrator 13.0.0, SVG Export Plug-In . SVG Version: 6.00 Build 14948)  -->
<!DOCTYPE svg PUBLIC "-//W3C//DTD SVG 1.1//EN" "http://www.w3.org/Graphics/SVG/1.1/DTD/svg11.dtd">
<svg version="1.1" id="Layer_1" xmlns="http://www.w3.org/2000/svg" xmlns:xlink="http://www.w3.org/1999/xlink" x="0px" y="0px"
	 width="48px" height="63px" viewBox="0 0 48 63" enable-background="new 0 0 48 63" xml:space="preserve">
<g>
	<path fill="#736357" d="M0,14l6,38.5C6,58.298,14.058,63,24,63c9.941,0,18-4.702,18-10.5L48,14H0z"/>
	<path fill="#736357" d="M48,14c0,7.733-10.742,14-24,14C10.743,28,0,21.733,0,14C0,6.266,10.743,0,24,0C37.258,0,48,6.266,48,14z"
		/>
	<path fill="#333333" d="M45.141,12.119C43.115,6.332,34.801,2,24,2C13.199,2,4.885,6.332,2.86,12.119
		C2.702,12.571,2.58,13.032,2.5,13.5c0.08,0.468,0.202,0.929,0.36,1.381C4.885,20.668,13.199,25,24,25
		c10.8,0,19.115-4.332,21.14-10.119c0.158-0.452,0.279-0.913,0.359-1.381C45.42,13.032,45.299,12.571,45.141,12.119z"/>
	<g>
		<path fill="#2E3192" d="M24,27c8.39,0,15.265-2.62,18.871-6.5C39.266,16.62,32.391,14,24,14c-8.39,0-15.264,2.62-18.871,6.5
			C8.735,24.38,15.609,27,24,27z"/>
	</g>
	<path fill="#C7B299" d="M8.811,21.4l6.221-10.619l2.179,2.179L21,11.25c0,0,3.628,4.018,6.598,4.349
		c2.971,0.331-0.153-2.793-0.153-2.793l4.7,0.945c0,0,1.408,4.935,4.937,4.937S42,25,42,25l-23.5,3.5L8.811,21.4z"/>
	<polygon fill="#999999" points="31.292,14.953 24.98,21.183 28.237,24.638 34.196,21.077 	"/>
	
		<rect x="17.762" y="19.795" transform="matrix(0.9559 0.2936 -0.2936 0.9559 8.3507 -5.9447)" fill="#9E005D" width="12.435" height="10.103"/>
	<circle fill="#E8EC7A" cx="27.684" cy="26.386" r="4.456"/>
	<polygon fill="#808080" points="28.841,21.518 30.568,17.93 35.879,17.93 35.484,22.581 36.498,26.309 32.296,26.966 
		28.043,28.693 	"/>
	<polygon fill="#CCCCCC" points="10.598,22.102 6.84,23.417 3.084,19.661 6.652,16.651 8.571,13.299 12.008,15.806 16.236,17.591 	
		"/>
	<polygon fill="#CCCCCC" points="40.737,27.295 37.814,18.923 33.296,20.385 33.96,27.295 	"/>
	<polygon fill="#999999" points="13.825,26.295 10.901,17.923 6.383,19.385 7.047,26.295 	"/>
	<g>
		<path fill="#66AAD7" d="M14.798,19.299l-3.518,5.128c-0.648,0.944,0.139,2.609,1.757,3.72c1.619,1.111,3.455,1.245,4.103,0.301
			l3.518-5.128L14.798,19.299z"/>
		
			<ellipse transform="matrix(0.8246 0.5657 -0.5657 0.8246 15.1644 -6.2914)" fill="#66AAD7" cx="17.728" cy="21.309" rx="3.553" ry="2.073"/>
	</g>
	<g>
		<path fill="#736357" d="M45.01,11.811c0.04,0.104,0.094,0.204,0.131,0.309c0.158,0.452,0.279,0.913,0.359,1.381
			c-0.08,0.468-0.201,0.929-0.359,1.381C43.115,20.668,34.801,25,24,25C13.199,25,4.885,20.668,2.86,14.881
			C2.702,14.429,2.58,13.968,2.5,13.5c0.08-0.468,0.202-0.929,0.36-1.381c0.037-0.104,0.09-0.205,0.131-0.309H1.334l2.923,23.255
			h39.601l3.056-23.255H45.01z"/>
	</g>
	<g>
		<path fill="#8F8279" d="M24,0C10.742,0,0,6.266,0,14c0,7.733,10.743,14,24,14c13.257,0,24-6.267,24-14C48,6.266,37.257,0,24,0z
			 M24,25C13.199,25,4.885,20.668,2.86,14.881C2.702,14.429,2.58,13.968,2.5,13.5c0.08-0.468,0.202-0.929,0.36-1.381
			C4.885,6.332,13.199,2,24,2c10.801,0,19.116,4.332,21.141,10.119c0.158,0.452,0.279,0.913,0.359,1.381
			c-0.08,0.468-0.201,0.929-0.359,1.381C43.115,20.668,34.801,25,24,25z"/>
	</g>
</g>
</svg>
